{"accessors":[{"bufferView":0,"componentType":5126,"count":39,"min":[0.0],"max":[100.0],"type":"SCALAR"},{"bufferView":1,"componentType":5126,"count":39,"type":"VEC4"},{"bufferView":2,"componentType":5126,"count":62,"min":[-13.347999572753907,-1.2640000581741334,-14.911999702453614],"max":[13.347999572753907,5.627999782562256,12.211999893188477],"type":"VEC3","name":"part000_vertices#0_POSITION"},{"bufferView":2,"byteOffset":12,"componentType":5120,"count":62,"type":"VEC4","name":"part000_vertices#0_TANGENT"},{"bufferView":2,"byteOffset":16,"componentType":5120,"count":62,"type":"VEC4","name":"part000_vertices#0_NORMAL"},{"bufferView":2,"byteOffset":20,"componentType":5122,"count":62,"type":"VEC2","name":"part000_vertices#0_TEXCOORD_0"},{"bufferView":2,"byteOffset":24,"componentType":5122,"count":62,"type":"VEC2","name":"part000_vertices#0_TEXCOORD_1"},{"bufferView":2,"byteOffset":28,"componentType":5123,"count":62,"type":"VEC4","name":"part000_vertices#0_COLOR_0"},{"bufferView":3,"componentType":5123,"count":90,"type":"SCALAR","name":"part000_indices#0"}],"animations":[{"name":"c_gear","channels":[{"sampler":0,"target":{"node":13,"path":"rotation"}}],"samplers":[{"input":0,"output":1,"interpolation":"LINEAR"}]}],"asset":{"generator":"ModelConverterX","version":"2.0","extensions":{"ASOBO_asset_optimized":{"BoundingBoxMax":[13.347999572753907,5.627999782562256,12.211999893188477],"BoundingBoxMin":[-13.347999572753907,-1.2640000581741334,-14.911999702453614],"MajorVersion":4,"MinorVersion":3,"UseCheckerboardMaterialForMissingTextures":true}}},"bufferViews":[{"buffer":0,"byteLength":156,"byteStride":4},{"buffer":0,"byteLength":624,"byteStride":16,"byteOffset":156},{"buffer":0,"byteLength":2232,"byteStride":36,"byteOffset":780,"target":34962,"name":"BufferViewVertexND"},{"buffer":0,"byteLength":180,"byteOffset":3012,"target":34963,"name":"BufferViewIndex"}],"extensionsRequired":["MSFT_texture_dds"],"materials":[{"name":"material00","occlusionTexture":{"index":1},"emissiveTexture":{"index":2},"emissiveFactor":[1.0,1.0,1.0],"pbrMetallicRoughness":{"baseColorTexture":{"index":0},"metallicRoughnessTexture":{"index":1}},"extensions":{"ASOBO_material_day_night_switch":{}}}],"meshes":[{"primitives":[{"attributes":{"COLOR_0":7,"NORMAL":4,"POSITION":2,"TANGENT":3,"TEXCOORD_0":5,"TEXCOORD_1":6},"indices":8,"material":0,"mode":4,"extras":{"ASOBO_primitive":{"PrimitiveCount":30,"VertexType":"VTX","VertexVersion":2}}}],"name":"part000"}],"nodes":[{"name":"node0","children":[1,2,3,4,5,6,7,8,9,10]},{"mesh":0,"name":"node1"},{"translation":[4.0,1.0,-0.4999999999999995],"rotation":[-6.123031769111886e-17,0.0,1.0,0.0],"scale":[1.0,1.0,1.0],"name":"contrail1"},{"translation":[1.419999957084657,4.71999979019165,-12.829999923706057],"rotation":[0.6408563057883975,-0.2988361502041592,-0.6963643913854996,-0.12278769146725988],"scale":[1.0,1.0,1.0],"name":"logo_l"},{"translation":[-1.4199999570846543,4.71999979019165,-12.829999923706057],"rotation":[0.6408563567427558,0.2988361074125761,0.6963643360177086,-0.12278781594242946],"scale":[1.0,1.0,1.0],"name":"logo_r"},{"translation":[1.4099999666213985,-0.2199999988079071,5.5],"rotation":[0.45451952814331905,0.5416752033748701,0.18301293851294818,-0.6830125400188871],"scale":[1.0,1.0,1.0],"name":"wing_l"},{"translation":[-1.4099999666213997,-0.2199999988079071,5.5],"rotation":[-0.4545193886460366,0.5416750107880074,0.1830126812920277,0.6830127828568243],"scale":[1.0,1.0,1.0],"name":"wing_r"},{"translation":[1.070000052452087,-0.9900000095367432,3.0299999713897707],"rotation":[-4.329637285359677e-17,0.7071067811865475,0.7071067811865475,4.329637285359677e-17],"scale":[1.0,1.0,1.0],"name":"landing_l"},{"translation":[-1.0700000524520879,-0.9900000095367432,3.0299999713897707],"rotation":[-0.030843644469385604,0.7064337687255942,0.7064337687255942,0.030843644469385604],"scale":[1.0,1.0,1.0],"name":"landing_r"},{"translation":[-4.0,1.0,-0.5000000000000004],"rotation":[-6.123031769111886e-17,0.0,1.0,0.0],"scale":[1.0,1.0,1.0],"name":"contrail2"},{"translation":[0.0,0.0,0.0],"rotation":[-4.329637285359677e-17,0.7071067811865475,0.7071067811865475,4.329637285359677e-17],"scale":[1.0,1.0,1.0],"name":"node12","children":[11]},{"translation":[0.0000030000001061125656,-1.4189549684524537,2.030456066131592],"rotation":[0.0,0.0,0.0,1.0],"scale":[1.0,1.0,1.0],"name":"node25","children":[12]},{"translation":[-0.0000019999999949504856,12.060850143432616,-2.8475260734558107],"rotation":[0.0,0.0,0.0,1.0],"scale":[1.0,1.0,1.0],"name":"node26","children":[13]},{"name":"node12_anim_c_gear","children":[14,15,16,17]},{"translation":[0.21689799427986146,-0.1499979943037033,-0.2527959942817688],"rotation":[-0.030843275128249117,0.03084398290820683,-0.7064334148352619,0.7064341226155734],"scale":[1.0,1.0,1.0],"name":"landing_nose_r"},{"translation":[0.21689799427986146,0.15000200271606446,-0.2527959942817688],"rotation":[-0.030843275128249117,0.03084398290820683,-0.7064334148352619,0.7064341226155734],"scale":[1.0,1.0,1.0],"name":"landing_nose_l"},{"translation":[0.21689799427986146,0.15000200271606446,-0.2527959942817688],"rotation":[-0.030843275128249117,0.03084398290820683,-0.7064334148352619,0.7064341226155734],"scale":[1.0,1.0,1.0],"name":"taxi_l"},{"translation":[0.21689799427986146,-0.1499979943037033,-0.2527959942817688],"rotation":[-0.030843275128249117,0.03084398290820683,-0.7064334148352619,0.7064341226155734],"scale":[1.0,1.0,1.0],"name":"taxi_r"}],"scene":0,"scenes":[{"nodes":[0]}],"textures":[{"extensions":{"MSFT_texture_dds":{"source":0}}},{"extensions":{"MSFT_texture_dds":{"source":1}}},{"extensions":{"MSFT_texture_dds":{"source":2}}}],"extensionsUsed":["ASOBO_material_day_night_switch","MSFT_texture_dds","ASOBO_asset_optimized"],"buffers":[{"byteLength":3192,"uri":"OSP_ATR_72-210_MSFS_LOD1.bin"}],"images":[{"uri":"OSP_ATR_72_210_T.PNG.DDS","extras":"ASOBO_image_converted_meta"},{"uri":"OSP_ATR_72_210_C.PNG.DDS","extras":"ASOBO_image_converted_meta"},{"uri":"OSP_ATR_72_210_L.PNG.DDS","extras":"ASOBO_image_converted_meta"}]}
