{"accessors":[{"bufferView":0,"componentType":5126,"count":32,"min":[0.0],"max":[80.0],"type":"SCALAR"},{"bufferView":2,"componentType":5126,"count":32,"type":"VEC4"},{"bufferView":0,"byteOffset":128,"componentType":5126,"count":2,"min":[0.0],"max":[100.0],"type":"SCALAR"},{"bufferView":1,"componentType":5126,"count":2,"type":"VEC3"},{"bufferView":0,"byteOffset":136,"componentType":5126,"count":2,"min":[0.0],"max":[100.0],"type":"SCALAR"},{"bufferView":2,"byteOffset":512,"componentType":5126,"count":2,"type":"VEC4"},{"bufferView":0,"byteOffset":144,"componentType":5126,"count":2,"min":[0.0],"max":[100.0],"type":"SCALAR"},{"bufferView":1,"byteOffset":24,"componentType":5126,"count":2,"type":"VEC3"},{"bufferView":0,"byteOffset":152,"componentType":5126,"count":2,"min":[0.0],"max":[100.0],"type":"SCALAR"},{"bufferView":2,"byteOffset":544,"componentType":5126,"count":2,"type":"VEC4"},{"bufferView":0,"byteOffset":160,"componentType":5126,"count":2,"min":[0.0],"max":[100.0],"type":"SCALAR"},{"bufferView":1,"byteOffset":48,"componentType":5126,"count":2,"type":"VEC3"},{"bufferView":0,"byteOffset":168,"componentType":5126,"count":2,"min":[0.0],"max":[100.0],"type":"SCALAR"},{"bufferView":2,"byteOffset":576,"componentType":5126,"count":2,"type":"VEC4"},{"bufferView":0,"byteOffset":176,"componentType":5126,"count":2,"min":[0.0],"max":[100.0],"type":"SCALAR"},{"bufferView":1,"byteOffset":72,"componentType":5126,"count":2,"type":"VEC3"},{"bufferView":0,"byteOffset":184,"componentType":5126,"count":2,"min":[0.0],"max":[100.0],"type":"SCALAR"},{"bufferView":2,"byteOffset":608,"componentType":5126,"count":2,"type":"VEC4"},{"bufferView":0,"byteOffset":192,"componentType":5126,"count":2,"min":[0.0],"max":[100.0],"type":"SCALAR"},{"bufferView":1,"byteOffset":96,"componentType":5126,"count":2,"type":"VEC3"},{"bufferView":0,"byteOffset":200,"componentType":5126,"count":2,"min":[0.0],"max":[100.0],"type":"SCALAR"},{"bufferView":2,"byteOffset":640,"componentType":5126,"count":2,"type":"VEC4"},{"bufferView":0,"byteOffset":208,"componentType":5126,"count":2,"min":[0.0],"max":[100.0],"type":"SCALAR"},{"bufferView":1,"byteOffset":120,"componentType":5126,"count":2,"type":"VEC3"},{"bufferView":0,"byteOffset":216,"componentType":5126,"count":2,"min":[0.0],"max":[100.0],"type":"SCALAR"},{"bufferView":2,"byteOffset":672,"componentType":5126,"count":2,"type":"VEC4"},{"bufferView":0,"byteOffset":224,"componentType":5126,"count":2,"min":[0.0],"max":[100.0],"type":"SCALAR"},{"bufferView":1,"byteOffset":144,"componentType":5126,"count":2,"type":"VEC3"},{"bufferView":0,"byteOffset":232,"componentType":5126,"count":2,"min":[0.0],"max":[100.0],"type":"SCALAR"},{"bufferView":2,"byteOffset":704,"componentType":5126,"count":2,"type":"VEC4"},{"bufferView":0,"byteOffset":240,"componentType":5126,"count":2,"min":[0.0],"max":[100.0],"type":"SCALAR"},{"bufferView":2,"byteOffset":736,"componentType":5126,"count":2,"type":"VEC4"},{"bufferView":0,"byteOffset":248,"componentType":5126,"count":2,"min":[0.0],"max":[100.0],"type":"SCALAR"},{"bufferView":2,"byteOffset":768,"componentType":5126,"count":2,"type":"VEC4"},{"bufferView":0,"byteOffset":256,"componentType":5126,"count":2,"min":[0.0],"max":[100.0],"type":"SCALAR"},{"bufferView":1,"byteOffset":168,"componentType":5126,"count":2,"type":"VEC3"},{"bufferView":0,"byteOffset":264,"componentType":5126,"count":2,"min":[0.0],"max":[100.0],"type":"SCALAR"},{"bufferView":2,"byteOffset":800,"componentType":5126,"count":2,"type":"VEC4"},{"bufferView":0,"byteOffset":272,"componentType":5126,"count":2,"min":[0.0],"max":[100.0],"type":"SCALAR"},{"bufferView":1,"byteOffset":192,"componentType":5126,"count":2,"type":"VEC3"},{"bufferView":0,"byteOffset":280,"componentType":5126,"count":2,"min":[0.0],"max":[100.0],"type":"SCALAR"},{"bufferView":2,"byteOffset":832,"componentType":5126,"count":2,"type":"VEC4"},{"bufferView":0,"byteOffset":288,"componentType":5126,"count":2,"min":[0.0],"max":[100.0],"type":"SCALAR"},{"bufferView":1,"byteOffset":216,"componentType":5126,"count":2,"type":"VEC3"},{"bufferView":0,"byteOffset":296,"componentType":5126,"count":2,"min":[0.0],"max":[100.0],"type":"SCALAR"},{"bufferView":2,"byteOffset":864,"componentType":5126,"count":2,"type":"VEC4"},{"bufferView":0,"byteOffset":304,"componentType":5126,"count":2,"min":[0.0],"max":[100.0],"type":"SCALAR"},{"bufferView":1,"byteOffset":240,"componentType":5126,"count":2,"type":"VEC3"},{"bufferView":0,"byteOffset":312,"componentType":5126,"count":2,"min":[0.0],"max":[100.0],"type":"SCALAR"},{"bufferView":2,"byteOffset":896,"componentType":5126,"count":2,"type":"VEC4"},{"bufferView":0,"byteOffset":320,"componentType":5126,"count":2,"min":[0.0],"max":[100.0],"type":"SCALAR"},{"bufferView":1,"byteOffset":264,"componentType":5126,"count":2,"type":"VEC3"},{"bufferView":0,"byteOffset":328,"componentType":5126,"count":2,"min":[0.0],"max":[100.0],"type":"SCALAR"},{"bufferView":2,"byteOffset":928,"componentType":5126,"count":2,"type":"VEC4"},{"bufferView":0,"byteOffset":336,"componentType":5126,"count":2,"min":[0.0],"max":[100.0],"type":"SCALAR"},{"bufferView":1,"byteOffset":288,"componentType":5126,"count":2,"type":"VEC3"},{"bufferView":0,"byteOffset":344,"componentType":5126,"count":2,"min":[0.0],"max":[100.0],"type":"SCALAR"},{"bufferView":2,"byteOffset":960,"componentType":5126,"count":2,"type":"VEC4"},{"bufferView":0,"byteOffset":352,"componentType":5126,"count":2,"min":[0.0],"max":[100.0],"type":"SCALAR"},{"bufferView":2,"byteOffset":992,"componentType":5126,"count":2,"type":"VEC4"},{"bufferView":3,"componentType":5126,"count":84,"min":[-30.65999984741211,-4.400000095367432,-38.619998931884769],"max":[30.65999984741211,11.5,36.70000076293945],"type":"VEC3","name":"part000_vertices#0_POSITION"},{"bufferView":3,"byteOffset":12,"componentType":5120,"count":84,"type":"VEC4","name":"part000_vertices#0_TANGENT"},{"bufferView":3,"byteOffset":16,"componentType":5120,"count":84,"type":"VEC4","name":"part000_vertices#0_NORMAL"},{"bufferView":3,"byteOffset":20,"componentType":5122,"count":84,"type":"VEC2","name":"part000_vertices#0_TEXCOORD_0"},{"bufferView":3,"byteOffset":24,"componentType":5122,"count":84,"type":"VEC2","name":"part000_vertices#0_TEXCOORD_1"},{"bufferView":3,"byteOffset":28,"componentType":5123,"count":84,"type":"VEC4","name":"part000_vertices#0_COLOR_0"},{"bufferView":4,"componentType":5123,"count":132,"type":"SCALAR","name":"part000_indices#0"}],"animations":[{"name":"c_gear","channels":[{"sampler":0,"target":{"node":19,"path":"rotation"}}],"samplers":[{"input":0,"output":1,"interpolation":"LINEAR"}]},{"name":"AI_Wingflex_v2","channels":[{"sampler":0,"target":{"node":29,"path":"translation"}},{"sampler":1,"target":{"node":31,"path":"rotation"}},{"sampler":2,"target":{"node":33,"path":"translation"}},{"sampler":3,"target":{"node":35,"path":"rotation"}},{"sampler":4,"target":{"node":37,"path":"translation"}},{"sampler":5,"target":{"node":39,"path":"rotation"}},{"sampler":6,"target":{"node":41,"path":"translation"}},{"sampler":7,"target":{"node":43,"path":"rotation"}},{"sampler":8,"target":{"node":45,"path":"translation"}},{"sampler":9,"target":{"node":45,"path":"rotation"}},{"sampler":10,"target":{"node":57,"path":"rotation"}},{"sampler":11,"target":{"node":59,"path":"rotation"}},{"sampler":12,"target":{"node":61,"path":"translation"}},{"sampler":13,"target":{"node":63,"path":"rotation"}},{"sampler":14,"target":{"node":65,"path":"translation"}},{"sampler":15,"target":{"node":67,"path":"rotation"}},{"sampler":16,"target":{"node":69,"path":"translation"}},{"sampler":17,"target":{"node":71,"path":"rotation"}},{"sampler":18,"target":{"node":73,"path":"translation"}},{"sampler":19,"target":{"node":73,"path":"rotation"}},{"sampler":20,"target":{"node":85,"path":"rotation"}}],"samplers":[{"input":2,"output":3,"interpolation":"LINEAR"},{"input":4,"output":5,"interpolation":"LINEAR"},{"input":6,"output":7,"interpolation":"LINEAR"},{"input":8,"output":9,"interpolation":"LINEAR"},{"input":10,"output":11,"interpolation":"LINEAR"},{"input":12,"output":13,"interpolation":"LINEAR"},{"input":14,"output":15,"interpolation":"LINEAR"},{"input":16,"output":17,"interpolation":"LINEAR"},{"input":18,"output":19,"interpolation":"LINEAR"},{"input":20,"output":21,"interpolation":"LINEAR"},{"input":30,"output":31,"interpolation":"LINEAR"},{"input":32,"output":33,"interpolation":"LINEAR"},{"input":34,"output":35,"interpolation":"LINEAR"},{"input":36,"output":37,"interpolation":"LINEAR"},{"input":38,"output":39,"interpolation":"LINEAR"},{"input":40,"output":41,"interpolation":"LINEAR"},{"input":42,"output":43,"interpolation":"LINEAR"},{"input":44,"output":45,"interpolation":"LINEAR"},{"input":46,"output":47,"interpolation":"LINEAR"},{"input":48,"output":49,"interpolation":"LINEAR"},{"input":58,"output":59,"interpolation":"LINEAR"}]},{"name":"custom_anim_REV_THRUST","channels":[{"sampler":0,"target":{"node":50,"path":"translation"}},{"sampler":1,"target":{"node":50,"path":"rotation"}},{"sampler":2,"target":{"node":54,"path":"translation"}},{"sampler":3,"target":{"node":54,"path":"rotation"}},{"sampler":4,"target":{"node":78,"path":"translation"}},{"sampler":5,"target":{"node":78,"path":"rotation"}},{"sampler":6,"target":{"node":82,"path":"translation"}},{"sampler":7,"target":{"node":82,"path":"rotation"}}],"samplers":[{"input":22,"output":23,"interpolation":"LINEAR"},{"input":24,"output":25,"interpolation":"LINEAR"},{"input":26,"output":27,"interpolation":"LINEAR"},{"input":28,"output":29,"interpolation":"LINEAR"},{"input":50,"output":51,"interpolation":"LINEAR"},{"input":52,"output":53,"interpolation":"LINEAR"},{"input":54,"output":55,"interpolation":"LINEAR"},{"input":56,"output":57,"interpolation":"LINEAR"}]}],"asset":{"generator":"ModelConverterX","version":"2.0","extensions":{"ASOBO_asset_optimized":{"BoundingBoxMax":[30.65999984741211,11.5,36.70000076293945],"BoundingBoxMin":[-30.65999984741211,-4.400000095367432,-38.619998931884769],"MajorVersion":4,"MinorVersion":4,"UseCheckerboardMaterialForMissingTextures":true,"UseOnlyFilenameForImageURI":true}}},"bufferViews":[{"buffer":0,"byteLength":360,"byteStride":4},{"buffer":0,"byteLength":312,"byteStride":12,"byteOffset":360},{"buffer":0,"byteLength":1024,"byteStride":16,"byteOffset":672},{"buffer":0,"byteLength":3024,"byteStride":36,"byteOffset":1696,"target":34962,"name":"BufferViewVertexND"},{"buffer":0,"byteLength":264,"byteOffset":4720,"target":34963,"name":"BufferViewIndex"}],"extensionsRequired":["MSFT_texture_dds"],"materials":[{"name":"material00","occlusionTexture":{"index":1},"emissiveTexture":{"index":2},"emissiveFactor":[1.0,1.0,1.0],"pbrMetallicRoughness":{"baseColorTexture":{"index":0},"metallicRoughnessTexture":{"index":1}},"extensions":{"ASOBO_material_day_night_switch":{}}}],"meshes":[{"primitives":[{"attributes":{"COLOR_0":65,"NORMAL":62,"POSITION":60,"TANGENT":61,"TEXCOORD_0":63,"TEXCOORD_1":64},"indices":66,"material":0,"mode":4,"extras":{"ASOBO_primitive":{"PrimitiveCount":44,"VertexType":"VTX","VertexVersion":2}}}],"name":"part000"}],"nodes":[{"name":"node0","children":[1,2,3,4,5,6,7,8,9,10,11,12,13,14,15,16]},{"mesh":0,"name":"node1"},{"translation":[3.608999967575072,-1.1100000143051148,7.796999931335449],"rotation":[0.18301277579014572,0.6830126820913253,0.6830126820913253,-0.18301277579014572],"scale":[1.0,1.0,1.0],"name":"landing_l2"},{"translation":[-2.72106554073857e-16,3.0,2.221992015838623],"rotation":[0.0,1.0,0.0,6.123031769111886e-17],"scale":[1.0,1.0,1.0],"name":"beacon"},{"translation":[-9.439745996377843e-16,-3.169919967651367,7.708392143249512],"rotation":[-6.123031769111886e-17,0.0,1.0,0.0],"scale":[1.0,1.0,1.0],"name":"beacon_b"},{"translation":[2.9500000476837138,0.029999999329447744,19.187000274658204],"rotation":[0.7151641644446196,0.23035442799048193,0.2745254900425654,-0.6000939209854558],"scale":[1.0,1.0,1.0],"name":"wing_l"},{"translation":[-2.950000047683718,0.029999999329447744,19.187000274658204],"rotation":[0.715164326075595,-0.23035429605736733,-0.27452612438257187,-0.6000936608374822],"scale":[1.0,1.0,1.0],"name":"wing_r"},{"translation":[3.5490000247955315,-1.1100000143051148,7.896999835968018],"rotation":[0.030843293167498507,0.7064337840637179,0.7064337840637179,-0.030843293167498507],"scale":[1.0,1.0,1.0],"name":"landing_l1"},{"translation":[-3.549352884292603,-1.1100000143051148,7.896909236907959],"rotation":[-0.030843293167498593,0.7064337840637179,0.7064337840637179,0.030843293167498593],"scale":[1.0,1.0,1.0],"name":"landing_r1"},{"translation":[4.496664053575167e-15,1.8227039575576785,-36.719261169433597],"rotation":[-0.7071067811865475,-4.329637285359677e-17,-4.329637285359677e-17,0.7071067811865475],"scale":[1.0,1.0,1.0],"name":"navwhi_tail"},{"translation":[-3.609353065490723,-1.1100000143051148,7.796909809112549],"rotation":[-0.1830127757901458,0.6830126820913253,0.6830126820913253,0.1830127757901458],"scale":[1.0,1.0,1.0],"name":"landing_r2"},{"translation":[4.4966322873581038e-15,1.8227039575576785,-36.71900177001953],"rotation":[-0.7071067811865475,-4.329637285359677e-17,-4.329637285359677e-17,0.7071067811865475],"scale":[1.0,1.0,1.0],"name":"strobe_tail"},{"translation":[-2.950000047683718,0.029999999329447744,18.145999908447267],"rotation":[0.750664768084984,-0.16288068235585438,-0.20114011526311285,-0.6078773052034378],"scale":[1.0,1.0,1.0],"name":"engine_r"},{"translation":[2.9500000476837138,0.029999999329447744,18.145999908447267],"rotation":[0.750664768084984,0.16288068235585446,0.20114011526311294,-0.6078773052034378],"scale":[1.0,1.0,1.0],"name":"engine_l"},{"translation":[4.840000152587895,2.450000047683716,-34.400001525878909],"rotation":[-0.3534532609865325,0.9207767364887326,0.1540856644065764,-0.05914843639043069],"scale":[1.0,1.0,1.0],"name":"logo_l"},{"translation":[-4.840000152587886,2.450000047683716,-34.400001525878909],"rotation":[0.3534532609865325,0.9207767364887326,0.15408566440657643,0.0591484363904308],"scale":[1.0,1.0,1.0],"name":"logo_r"},{"translation":[0.0,0.0,0.0],"rotation":[-4.329637285359677e-17,0.7071067811865475,0.7071067811865475,4.329637285359677e-17],"scale":[1.0,1.0,1.0],"name":"node21","children":[17,28]},{"translation":[0.0,29.1299991607666,-3.199887990951538],"rotation":[0.0,0.0,0.0,1.0],"scale":[1.0,1.0,1.0],"name":"node34","children":[18]},{"translation":[-9.99999997475243e-7,0.9327620267868042,0.9132019877433778],"rotation":[0.0,0.0,0.0,1.0],"scale":[1.0,1.0,1.0],"name":"node35","children":[19]},{"name":"node18_anim_c_gear","children":[20,21,22,23,24,25,26,27]},{"translation":[1.0700000524520875,0.20000000298023225,0.2199999988079071],"rotation":[0.5372997448503404,0.0,0.0,0.8433913588505394],"scale":[1.0,1.0,1.0],"name":"landing_nose_l2"},{"translation":[0.40999999642372128,-0.3199999928474426,0.2199999988079071],"rotation":[0.7071067811865475,0.0,0.0,0.7071067811865475],"scale":[1.0,1.0,1.0],"name":"taxi_nose_r"},{"translation":[0.40999999642372128,0.3199999928474426,0.2199999988079071],"rotation":[0.7071067811865475,0.0,0.0,0.7071067811865475],"scale":[1.0,1.0,1.0],"name":"landing_nose_l"},{"translation":[1.0700000524520875,-0.20000000298023225,0.2199999988079071],"rotation":[0.8433913588505394,0.0,0.0,0.5372997448503404],"scale":[1.0,1.0,1.0],"name":"landing_nose_r2"},{"translation":[1.0700000524520875,0.20000000298023225,0.2199999988079071],"rotation":[0.5372997448503404,0.0,0.0,0.8433913588505394],"scale":[1.0,1.0,1.0],"name":"taxi_nose_l2"},{"translation":[1.0700000524520875,-0.20000000298023225,0.2199999988079071],"rotation":[0.8433913588505394,0.0,0.0,0.5372997448503404],"scale":[1.0,1.0,1.0],"name":"taxi_nose_r2"},{"translation":[0.40999999642372128,0.3199999928474426,0.2199999988079071],"rotation":[0.7071067811865475,0.0,0.0,0.7071067811865475],"scale":[1.0,1.0,1.0],"name":"taxi_nose_l"},{"translation":[0.40999999642372128,-0.3199999928474426,0.2199999988079071],"rotation":[0.7071067811865475,0.0,0.0,0.7071067811865475],"scale":[1.0,1.0,1.0],"name":"landing_nose_r"},{"translation":[0.0,3.0,0.0],"rotation":[0.0,0.0,0.0,1.0],"scale":[1.0,1.0,1.0],"name":"node127","children":[29]},{"name":"node27_anim_AI_Wingflex_v2","children":[30,58]},{"translation":[0.0,0.0,0.0],"rotation":[-0.1330508487483327,0.0782879591666367,0.987000567611948,0.04470287428820389],"scale":[1.0,1.0,1.0],"name":"node128","children":[31]},{"name":"node28_anim_AI_Wingflex_v2","children":[32]},{"translation":[3.0855763175981876,0.0,0.0],"rotation":[0.0,0.0,0.0,1.0],"scale":[1.0,1.0,1.0],"name":"node129","children":[33]},{"name":"node29_anim_AI_Wingflex_v2","children":[34]},{"translation":[0.0,0.0,0.0],"rotation":[-0.10408083505540264,-0.12685290902900393,0.2998479727834567,0.9397695017336],"scale":[1.0,1.0,1.0],"name":"node130","children":[35]},{"name":"node30_anim_AI_Wingflex_v2","children":[36]},{"translation":[6.978504270668728,9.999997995955476e-7,0.0],"rotation":[0.0,0.0,0.0,1.0],"scale":[1.0,1.0,1.0],"name":"node131","children":[37]},{"name":"node31_anim_AI_Wingflex_v2","children":[38,56]},{"translation":[0.0,0.0,0.0],"rotation":[-0.0020057216087928416,-0.011128642294843212,-0.028991793363736579,0.9995156858384088],"scale":[1.0,1.0,1.0],"name":"node132","children":[39]},{"name":"node32_anim_AI_Wingflex_v2","children":[40,48,52]},{"translation":[11.160154583056432,-9.999998673166538e-7,0.0],"rotation":[0.0,0.0,0.0,1.0],"scale":[1.0,1.0,1.0],"name":"node133","children":[41]},{"name":"node33_anim_AI_Wingflex_v2","children":[42]},{"translation":[0.0,0.0,0.0],"rotation":[0.0,0.009309900429198312,0.00001000043126580052,0.9999566618879032],"scale":[1.0,1.0,1.0],"name":"node134","children":[43]},{"name":"node34_anim_AI_Wingflex_v2","children":[44]},{"translation":[12.24338867407976,0.0,-0.000008000001641679075],"rotation":[0.0,0.0,0.0,1.0],"scale":[1.0,1.0,1.0],"name":"node135","children":[45]},{"name":"node35_anim_AI_Wingflex_v2","children":[46,47]},{"translation":[0.37973295251749897,-0.360470963361826,-0.03260700709475337],"rotation":[0.029595366912662098,0.04610697618457728,-0.22928459163313184,0.9718162670066572],"scale":[1.0,1.0,1.0],"name":"nav_l"},{"translation":[0.16389798721666588,-0.459155946903364,-0.017701003652315366],"rotation":[0.006672305341580722,0.05108182053493515,-0.1427703304281616,0.9884142693718547],"scale":[1.0,1.0,1.0],"name":"strobe_l"},{"translation":[-8.102177455006652,3.78995250009801,1.1470168092424494],"rotation":[0.04295857106155836,0.010139524026973249,0.9723092275570272,0.22949186285531429],"scale":[1.0,1.0,1.0],"name":"node154","children":[49]},{"translation":[0.0000019999985890554607,0.7301046680547658,-9.999993259191478e-7],"rotation":[0.0,0.0,0.0,1.0],"scale":[1.0,1.0,1.0],"name":"node158","children":[50]},{"name":"node39_anim_custom_anim_REV_THRUST","children":[51]},{"translation":[-19.179986822642247,-5.999997412989825,-1.7899987597676406],"rotation":[-0.7071067811865475,0.0,0.0,0.7071067811865475],"scale":[1.0,1.0,1.0],"name":"contrail1"},{"translation":[-8.102180316028198,3.7899534537722028,1.1470147826848676],"rotation":[0.04295857106155836,0.010139524026973249,0.9723092275570272,0.22949186285531429],"scale":[1.0,1.0,1.0],"name":"node160","children":[53]},{"translation":[0.0,0.7301056813332901,0.0000019999986518382957],"rotation":[0.0,0.0,0.0,1.0],"scale":[1.0,1.0,1.0],"name":"node164","children":[54]},{"name":"node42_anim_custom_anim_REV_THRUST","children":[55]},{"translation":[-9.479992878294212,0.4999997844158188,-3.069997871565627],"rotation":[-0.7071067811865475,0.0,0.0,0.7071067811865475],"scale":[1.0,1.0,1.0],"name":"contrail2"},{"translation":[0.0,0.0,0.0],"rotation":[-0.0020057216087928416,-0.011128642294843212,-0.028991793363736579,0.9995156858384088],"scale":[1.0,1.0,1.0],"name":"node167","children":[57]},{"name":"node44_anim_AI_Wingflex_v2"},{"translation":[0.0,0.0,0.0],"rotation":[-0.0782879591666367,0.1330508487483327,0.04470287428820389,0.987000567611948],"scale":[1.0,1.0,1.0],"name":"node177","children":[59]},{"name":"node45_anim_AI_Wingflex_v2","children":[60]},{"translation":[3.085573218157356,0.0,0.0],"rotation":[0.0,0.0,0.0,1.0],"scale":[1.0,1.0,1.0],"name":"node178","children":[61]},{"name":"node46_anim_AI_Wingflex_v2","children":[62]},{"translation":[0.0,0.0,0.0],"rotation":[0.10408083505540264,-0.12685290902900393,-0.2998479727834567,0.9397695017336],"scale":[1.0,1.0,1.0],"name":"node179","children":[63]},{"name":"node47_anim_AI_Wingflex_v2","children":[64]},{"translation":[6.978502363320593,-9.999997995955476e-7,-0.0000010000000955627548],"rotation":[0.0,0.0,0.0,1.0],"scale":[1.0,1.0,1.0],"name":"node180","children":[65]},{"name":"node48_anim_AI_Wingflex_v2","children":[66,84]},{"translation":[0.0,0.0,0.0],"rotation":[0.002005721608873064,-0.011128142361831194,0.02899154350971428,0.9995156986413986],"scale":[1.0,1.0,1.0],"name":"node181","children":[67]},{"name":"node49_anim_AI_Wingflex_v2","children":[68,76,80]},{"translation":[11.159734069318308,-0.00019199998180075424,0.00003399999412682162],"rotation":[0.0,0.0,0.0,1.0],"scale":[1.0,1.0,1.0],"name":"node182","children":[69]},{"name":"node50_anim_AI_Wingflex_v2","children":[70]},{"translation":[0.0,0.0,0.0],"rotation":[0.0,0.00926789984862092,-0.000010000430398970893,0.9999570520439344],"scale":[1.0,1.0,1.0],"name":"node183","children":[71]},{"name":"node51_anim_AI_Wingflex_v2","children":[72]},{"translation":[12.243739793059014,0.00019999996895585787,-0.00004399998180261152],"rotation":[0.0,0.0,0.0,1.0],"scale":[1.0,1.0,1.0],"name":"node184","children":[73]},{"name":"node52_anim_AI_Wingflex_v2","children":[74,75]},{"translation":[0.16388486585199314,0.459149926835024,-0.017698992036178506],"rotation":[-0.0161357580992708,0.1794804311320332,0.13618268939929374,0.9741564196529741],"scale":[1.0,1.0,1.0],"name":"strobe_r"},{"translation":[0.3801397014841292,0.3596269617014917,-0.03256198509312782],"rotation":[-0.009992661725329524,0.184082244111903,0.22148746124142697,0.9575788341093504],"scale":[1.0,1.0,1.0],"name":"nav_r"},{"translation":[-8.102169174199729,-3.78995250009801,1.147013803621753],"rotation":[0.010139524026973249,0.04295857106155836,0.22949186285531429,0.9723092275570272],"scale":[1.0,1.0,1.0],"name":"node203","children":[77]},{"translation":[0.0,0.7301037143808605,0.0000019999986075686617],"rotation":[0.0,0.0,0.0,1.0],"scale":[1.0,1.0,1.0],"name":"node207","children":[78]},{"name":"node56_anim_custom_anim_REV_THRUST","children":[79]},{"translation":[9.479992116100814,0.4999997844158188,-3.0699978036117399],"rotation":[-0.7071067811865475,0.0,0.0,0.7071067811865475],"scale":[1.0,1.0,1.0],"name":"contrail3"},{"translation":[-8.1021634521571,-3.789948446982693,1.147013803621753],"rotation":[0.010139524026973249,0.04295857106155836,0.22949186285531429,0.9723092275570272],"scale":[1.0,1.0,1.0],"name":"node209","children":[81]},{"translation":[0.0,0.730101687823812,0.0],"rotation":[0.0,0.0,0.0,1.0],"scale":[1.0,1.0,1.0],"name":"node213","children":[82]},{"name":"node59_anim_custom_anim_REV_THRUST","children":[83]},{"translation":[19.179985280567317,-5.999997412989825,-1.7899987201463186],"rotation":[-0.7071067811865475,0.0,0.0,0.7071067811865475],"scale":[1.0,1.0,1.0],"name":"contrail4"},{"translation":[0.0,0.0,0.0],"rotation":[0.002005721608873064,-0.011128142361831194,0.02899154350971428,0.9995156986413986],"scale":[1.0,1.0,1.0],"name":"node216","children":[85]},{"name":"node61_anim_AI_Wingflex_v2"}],"scene":0,"scenes":[{"nodes":[0]}],"textures":[{"extensions":{"MSFT_texture_dds":{"source":0}}},{"extensions":{"MSFT_texture_dds":{"source":1}}},{"extensions":{"MSFT_texture_dds":{"source":2}}}],"extensionsUsed":["ASOBO_material_day_night_switch","MSFT_texture_dds","ASOBO_asset_optimized"],"buffers":[{"byteLength":4984,"uri":"TFS_Airbus_A340-600_MSFS_LOD1.bin"}],"images":[{"uri":"TFS_A346_T.PNG.DDS","extras":"ASOBO_image_converted_meta"},{"uri":"TFS_A346_C.PNG.DDS","extras":"ASOBO_image_converted_meta"},{"uri":"TFS_A346_L.PNG.DDS","extras":"ASOBO_image_converted_meta"}]}
