{"accessors":[{"bufferView":0,"componentType":5126,"count":3525,"min":[-13.140089988708496,-1.2641799449920655,-19.85603904724121],"max":[13.140089988708496,5.251589775085449,19.2419490814209],"type":"VEC3","name":"part000_vertices#0_POSITION"},{"bufferView":0,"byteOffset":12,"componentType":5120,"count":3525,"type":"VEC4","name":"part000_vertices#0_TANGENT"},{"bufferView":0,"byteOffset":16,"componentType":5120,"count":3525,"type":"VEC4","name":"part000_vertices#0_NORMAL"},{"bufferView":0,"byteOffset":20,"componentType":5122,"count":3525,"type":"VEC2","name":"part000_vertices#0_TEXCOORD_0"},{"bufferView":0,"byteOffset":24,"componentType":5122,"count":3525,"type":"VEC2","name":"part000_vertices#0_TEXCOORD_1"},{"bufferView":0,"byteOffset":28,"componentType":5123,"count":3525,"type":"VEC4","name":"part000_vertices#0_COLOR_0"},{"bufferView":1,"componentType":5123,"count":12333,"type":"SCALAR","name":"part000_indices#0"}],"asset":{"generator":"ModelConverterX","version":"2.0","extensions":{"ASOBO_asset_optimized":{"BoundingBoxMax":[13.140089988708496,5.251589775085449,19.2419490814209],"BoundingBoxMin":[-13.140089988708496,-1.2641799449920655,-19.85603904724121],"MajorVersion":4,"MinorVersion":3,"UseCheckerboardMaterialForMissingTextures":true}}},"bufferViews":[{"buffer":0,"byteLength":126900,"byteStride":36,"target":34962,"name":"BufferViewVertexND"},{"buffer":0,"byteLength":24666,"byteOffset":126900,"target":34963,"name":"BufferViewIndex"}],"extensionsRequired":["MSFT_texture_dds"],"materials":[{"name":"material00","normalTexture":{"index":3},"occlusionTexture":{"index":1},"emissiveTexture":{"index":2},"emissiveFactor":[1.0,1.0,1.0],"pbrMetallicRoughness":{"baseColorTexture":{"index":0},"metallicRoughnessTexture":{"index":1}},"extensions":{"ASOBO_material_day_night_switch":{}}}],"meshes":[{"primitives":[{"attributes":{"COLOR_0":5,"NORMAL":2,"POSITION":0,"TANGENT":1,"TEXCOORD_0":3,"TEXCOORD_1":4},"indices":6,"material":0,"mode":4,"extras":{"ASOBO_primitive":{"PrimitiveCount":4111,"VertexType":"VTX","VertexVersion":2}}}],"name":"part000"}],"nodes":[{"name":"node0","children":[1,2,3,4,5,6,7,8,9,10,11]},{"mesh":0,"name":"node1"},{"translation":[1.8999999999999997,-0.66,1.64],"rotation":[0.7101851869288142,-4.3107056892752386e-17,4.348486461517792e-17,0.7040149148042855],"scale":[1.0,1.0,1.0],"name":"landing_l2"},{"translation":[1.3374619483947748,0.5583140254020691,3.3280560970306398],"rotation":[-0.2519928098113679,-0.5855285423626886,0.7152612261339636,-0.28645650327988039],"scale":[1.0,1.0,1.0],"name":"wing_l"},{"translation":[1.3900000000000017,1.43,-12.13],"rotation":[0.5674808882508561,-0.1566141595291552,-0.09317590407496412,-0.8029668096533061],"scale":[1.0,1.0,1.0],"name":"logo_l"},{"translation":[-1.3899999999999984,1.43,-12.13],"rotation":[0.5647679165070942,0.13015485194420726,0.1084144804982802,-0.8076776680198018],"scale":[1.0,1.0,1.0],"name":"logo_r"},{"translation":[-1.3374619483947759,0.5583140254020691,3.328110933303833],"rotation":[0.33022806103061716,-0.6157624815243172,0.6826774869678597,0.2138631404478616],"scale":[1.0,1.0,1.0],"name":"wing_r"},{"translation":[1.6683490276336668,-0.6604840159416199,1.7760150432586673],"rotation":[0.7101851869288142,-4.3107056892752386e-17,4.348486461517792e-17,0.7040149148042855],"scale":[1.0,1.0,1.0],"name":"landing_l1"},{"translation":[-1.6684750318527225,-0.6604840159416199,1.7760150432586668],"rotation":[0.7101851869288142,-4.3107056892752386e-17,4.348486461517792e-17,0.7040149148042855],"scale":[1.0,1.0,1.0],"name":"landing_r1"},{"translation":[-1.9,-0.66,1.6399999999999997],"rotation":[0.7101851869288142,-4.3107056892752386e-17,4.348486461517792e-17,0.7040149148042855],"scale":[1.0,1.0,1.0],"name":"landing_r2"},{"translation":[2.2600000000000017,1.32,-13.2],"rotation":[-6.123031769111886e-17,3.061515884555943e-17,1.0,1.874575902277672e-33],"scale":[1.0,1.0,1.0],"name":"contrail1"},{"translation":[-2.259999999999998,1.32,-13.2],"rotation":[-6.123031769111886e-17,3.061515884555943e-17,1.0,1.874575902277672e-33],"scale":[1.0,1.0,1.0],"name":"contrail2"}],"scene":0,"scenes":[{"nodes":[0]}],"textures":[{"extensions":{"MSFT_texture_dds":{"source":0}}},{"extensions":{"MSFT_texture_dds":{"source":1}}},{"extensions":{"MSFT_texture_dds":{"source":2}}},{"extensions":{"MSFT_texture_dds":{"source":3}}}],"extensionsUsed":["ASOBO_material_day_night_switch","MSFT_texture_dds","ASOBO_asset_optimized"],"buffers":[{"byteLength":151566,"uri":"RFSL_Bombardier_CRJ-1000_MSFS_LOD1.bin"}],"images":[{"uri":"RFSL_CRJ1000_T.PNG.DDS","extras":"ASOBO_image_converted_meta"},{"uri":"RFSL_CRJ1000_C.PNG.DDS","extras":"ASOBO_image_converted_meta"},{"uri":"RFSL_CRJ1000_L.PNG.DDS","extras":"ASOBO_image_converted_meta"},{"uri":"RFSL_CRJ1000_B.PNG.DDS","extras":"ASOBO_image_converted_meta"}]}
