{"accessors":[{"bufferView":0,"componentType":5126,"count":51,"min":[0.0],"max":[100.0],"type":"SCALAR"},{"bufferView":2,"componentType":5126,"count":51,"type":"VEC4"},{"bufferView":0,"byteOffset":204,"componentType":5126,"count":51,"min":[0.0],"max":[100.0],"type":"SCALAR"},{"bufferView":2,"byteOffset":816,"componentType":5126,"count":51,"type":"VEC4"},{"bufferView":0,"byteOffset":408,"componentType":5126,"count":2,"min":[0.0],"max":[100.0],"type":"SCALAR"},{"bufferView":1,"componentType":5126,"count":2,"type":"VEC3"},{"bufferView":0,"byteOffset":416,"componentType":5126,"count":42,"min":[0.0],"max":[100.0],"type":"SCALAR"},{"bufferView":2,"byteOffset":1632,"componentType":5126,"count":42,"type":"VEC4"},{"bufferView":0,"byteOffset":584,"componentType":5126,"count":42,"min":[0.0],"max":[100.0],"type":"SCALAR"},{"bufferView":2,"byteOffset":2304,"componentType":5126,"count":42,"type":"VEC4"},{"bufferView":3,"componentType":5126,"count":126,"min":[-14.064000129699707,-1.1360000371932984,-19.840009689331056],"max":[14.064000129699707,5.964000225067139,15.62399959564209],"type":"VEC3","name":"part000_vertices#0_POSITION"},{"bufferView":3,"byteOffset":12,"componentType":5120,"count":126,"type":"VEC4","name":"part000_vertices#0_TANGENT"},{"bufferView":3,"byteOffset":16,"componentType":5120,"count":126,"type":"VEC4","name":"part000_vertices#0_NORMAL"},{"bufferView":3,"byteOffset":20,"componentType":5122,"count":126,"type":"VEC2","name":"part000_vertices#0_TEXCOORD_0"},{"bufferView":3,"byteOffset":24,"componentType":5122,"count":126,"type":"VEC2","name":"part000_vertices#0_TEXCOORD_1"},{"bufferView":3,"byteOffset":28,"componentType":5123,"count":126,"type":"VEC4","name":"part000_vertices#0_COLOR_0"},{"bufferView":4,"componentType":5123,"count":216,"type":"SCALAR","name":"part000_indices#0"},{"bufferView":3,"byteOffset":4536,"componentType":5126,"count":8,"min":[0.0867300033569336,-2.2730801105499269,0.7862799763679504],"max":[0.610729992389679,-0.4330799877643585,2.262279987335205],"type":"VEC3","name":"part001_vertices#0_POSITION"},{"bufferView":3,"byteOffset":4548,"componentType":5120,"count":8,"type":"VEC4","name":"part001_vertices#0_TANGENT"},{"bufferView":3,"byteOffset":4552,"componentType":5120,"count":8,"type":"VEC4","name":"part001_vertices#0_NORMAL"},{"bufferView":3,"byteOffset":4556,"componentType":5122,"count":8,"type":"VEC2","name":"part001_vertices#0_TEXCOORD_0"},{"bufferView":3,"byteOffset":4560,"componentType":5122,"count":8,"type":"VEC2","name":"part001_vertices#0_TEXCOORD_1"},{"bufferView":3,"byteOffset":4564,"componentType":5123,"count":8,"type":"VEC4","name":"part001_vertices#0_COLOR_0"},{"bufferView":4,"byteOffset":432,"componentType":5123,"count":12,"type":"SCALAR","name":"part001_indices#0"},{"bufferView":3,"byteOffset":4824,"componentType":5126,"count":8,"min":[-0.6094499826431274,-2.2730801105499269,0.7862799763679504],"max":[-0.08545000106096268,-0.4330799877643585,2.262279987335205],"type":"VEC3","name":"part002_vertices#0_POSITION"},{"bufferView":3,"byteOffset":4836,"componentType":5120,"count":8,"type":"VEC4","name":"part002_vertices#0_TANGENT"},{"bufferView":3,"byteOffset":4840,"componentType":5120,"count":8,"type":"VEC4","name":"part002_vertices#0_NORMAL"},{"bufferView":3,"byteOffset":4844,"componentType":5122,"count":8,"type":"VEC2","name":"part002_vertices#0_TEXCOORD_0"},{"bufferView":3,"byteOffset":4848,"componentType":5122,"count":8,"type":"VEC2","name":"part002_vertices#0_TEXCOORD_1"},{"bufferView":3,"byteOffset":4852,"componentType":5123,"count":8,"type":"VEC4","name":"part002_vertices#0_COLOR_0"},{"bufferView":4,"byteOffset":456,"componentType":5123,"count":12,"type":"SCALAR","name":"part002_indices#0"},{"bufferView":3,"byteOffset":5112,"componentType":5126,"count":22,"min":[-3.131999969482422,-0.007449999917298555,-0.917389988899231],"max":[3.131999969482422,0.64055997133255,0.13061000406742097],"type":"VEC3","name":"part003_vertices#0_POSITION"},{"bufferView":3,"byteOffset":5124,"componentType":5120,"count":22,"type":"VEC4","name":"part003_vertices#0_TANGENT"},{"bufferView":3,"byteOffset":5128,"componentType":5120,"count":22,"type":"VEC4","name":"part003_vertices#0_NORMAL"},{"bufferView":3,"byteOffset":5132,"componentType":5122,"count":22,"type":"VEC2","name":"part003_vertices#0_TEXCOORD_0"},{"bufferView":3,"byteOffset":5136,"componentType":5122,"count":22,"type":"VEC2","name":"part003_vertices#0_TEXCOORD_1"},{"bufferView":3,"byteOffset":5140,"componentType":5123,"count":22,"type":"VEC4","name":"part003_vertices#0_COLOR_0"},{"bufferView":4,"byteOffset":480,"componentType":5123,"count":30,"type":"SCALAR","name":"part003_indices#0"},{"bufferView":3,"byteOffset":5904,"componentType":5126,"count":22,"min":[-3.131999969482422,-0.714900016784668,-0.9166100025177002],"max":[3.131999969482422,-0.006899999920278788,0.131400004029274],"type":"VEC3","name":"part004_vertices#0_POSITION"},{"bufferView":3,"byteOffset":5916,"componentType":5120,"count":22,"type":"VEC4","name":"part004_vertices#0_TANGENT"},{"bufferView":3,"byteOffset":5920,"componentType":5120,"count":22,"type":"VEC4","name":"part004_vertices#0_NORMAL"},{"bufferView":3,"byteOffset":5924,"componentType":5122,"count":22,"type":"VEC2","name":"part004_vertices#0_TEXCOORD_0"},{"bufferView":3,"byteOffset":5928,"componentType":5122,"count":22,"type":"VEC2","name":"part004_vertices#0_TEXCOORD_1"},{"bufferView":3,"byteOffset":5932,"componentType":5123,"count":22,"type":"VEC4","name":"part004_vertices#0_COLOR_0"},{"bufferView":4,"byteOffset":540,"componentType":5123,"count":30,"type":"SCALAR","name":"part004_indices#0"}],"animations":[{"name":"AIA_Fokker_TailSpeedBrake","channels":[{"sampler":0,"target":{"node":37,"path":"rotation"}},{"sampler":1,"target":{"node":39,"path":"rotation"}}],"samplers":[{"input":0,"output":1,"interpolation":"LINEAR"},{"input":2,"output":3,"interpolation":"LINEAR"}]},{"name":"custom_anim_REV_THRUST","channels":[{"sampler":0,"target":{"node":41,"path":"translation"}},{"sampler":1,"target":{"node":43,"path":"rotation"}},{"sampler":2,"target":{"node":45,"path":"rotation"}}],"samplers":[{"input":4,"output":5,"interpolation":"LINEAR"},{"input":6,"output":7,"interpolation":"LINEAR"},{"input":8,"output":9,"interpolation":"LINEAR"}]}],"asset":{"generator":"ModelConverterX","version":"2.0","extensions":{"ASOBO_asset_optimized":{"BoundingBoxMax":[14.064000129699707,5.964000225067139,15.62399959564209],"BoundingBoxMin":[-14.064000129699707,-2.2730801105499269,-19.840009689331056],"MajorVersion":4,"MinorVersion":3,"UseCheckerboardMaterialForMissingTextures":true}}},"bufferViews":[{"buffer":0,"byteLength":752,"byteStride":4},{"buffer":0,"byteLength":24,"byteStride":12,"byteOffset":752},{"buffer":0,"byteLength":2976,"byteStride":16,"byteOffset":776},{"buffer":0,"byteLength":6696,"byteStride":36,"byteOffset":3752,"target":34962,"name":"BufferViewVertexND"},{"buffer":0,"byteLength":600,"byteOffset":10448,"target":34963,"name":"BufferViewIndex"}],"extensionsRequired":["MSFT_texture_dds"],"materials":[{"name":"material00","occlusionTexture":{"index":1},"emissiveTexture":{"index":2},"emissiveFactor":[1.0,1.0,1.0],"pbrMetallicRoughness":{"baseColorTexture":{"index":0},"metallicRoughnessTexture":{"index":1}},"extensions":{"ASOBO_material_day_night_switch":{}}}],"meshes":[{"primitives":[{"attributes":{"COLOR_0":15,"NORMAL":12,"POSITION":10,"TANGENT":11,"TEXCOORD_0":13,"TEXCOORD_1":14},"indices":16,"material":0,"mode":4,"extras":{"ASOBO_primitive":{"PrimitiveCount":72,"VertexType":"VTX","VertexVersion":2}}}],"name":"part000"},{"primitives":[{"attributes":{"COLOR_0":22,"NORMAL":19,"POSITION":17,"TANGENT":18,"TEXCOORD_0":20,"TEXCOORD_1":21},"indices":23,"material":0,"mode":4,"extras":{"ASOBO_primitive":{"PrimitiveCount":4,"VertexType":"VTX","VertexVersion":2}}}],"name":"part001"},{"primitives":[{"attributes":{"COLOR_0":29,"NORMAL":26,"POSITION":24,"TANGENT":25,"TEXCOORD_0":27,"TEXCOORD_1":28},"indices":30,"material":0,"mode":4,"extras":{"ASOBO_primitive":{"PrimitiveCount":4,"VertexType":"VTX","VertexVersion":2}}}],"name":"part002"},{"primitives":[{"attributes":{"COLOR_0":36,"NORMAL":33,"POSITION":31,"TANGENT":32,"TEXCOORD_0":34,"TEXCOORD_1":35},"indices":37,"material":0,"mode":4,"extras":{"ASOBO_primitive":{"PrimitiveCount":10,"VertexType":"VTX","VertexVersion":2}}}],"name":"part003"},{"primitives":[{"attributes":{"COLOR_0":43,"NORMAL":40,"POSITION":38,"TANGENT":39,"TEXCOORD_0":41,"TEXCOORD_1":42},"indices":44,"material":0,"mode":4,"extras":{"ASOBO_primitive":{"PrimitiveCount":10,"VertexType":"VTX","VertexVersion":2}}}],"name":"part004"}],"nodes":[{"name":"node0","children":[1,2,3,4,5,6,7,8,9,10,11,12,13,14,15,16,17,18,19,20,21,22,23,24,25,26,27,28,29,30,31,32,33,34,35]},{"mesh":0,"name":"node1"},{"translation":[8.15999984741211,0.119999997317791,-4.929999828338622],"rotation":[0.5996607294331549,-0.3747093966462496,-0.13492202820111177,-0.6941152094190118],"scale":[1.0,1.0,1.0],"name":"logo_l"},{"translation":[-8.15999984741211,0.119999997317791,-4.929999828338624],"rotation":[0.5996607294331549,0.3747093966462498,0.1349220282011119,-0.6941152094190118],"scale":[1.0,1.0,1.0],"name":"logo_r"},{"translation":[0.1400000005960447,-0.5899999737739563,14.359999656677246],"rotation":[-4.329637285359677e-17,0.7071067811865476,0.7071067811865475,4.329637285359677e-17],"scale":[1.0,1.0,1.0],"name":"taxi_nose"},{"translation":[-13.300000190734864,0.4000000059604645,-4.63000011444092],"rotation":[-0.030025958368935909,-0.6876984444277031,-0.7246849569760634,0.03163865497055121],"scale":[1.0,1.0,1.0],"name":"landing_wing_r"},{"translation":[13.300000190734864,0.4000000059604645,-4.630000114440916],"rotation":[-0.030025958368935829,0.6876984444277033,0.7246849569760634,0.03163865497055113],"scale":[1.0,1.0,1.0],"name":"landing_wing_l"},{"translation":[0.1400000005960447,-0.5899999737739563,14.359999656677246],"rotation":[-4.329637285359677e-17,0.7071067811865476,0.7071067811865475,4.329637285359677e-17],"scale":[1.0,1.0,1.0],"name":"landing_nose"},{"translation":[2.590000000000001,1.12,-11.85],"rotation":[-6.123031769111886e-17,3.061515884555943e-17,1.0,1.874575902277672e-33],"scale":[1.0,1.0,1.0],"name":"contrail1"},{"translation":[-2.5899999999999987,1.12,-11.85],"rotation":[-6.123031769111886e-17,3.061515884555943e-17,1.0,1.874575902277672e-33],"scale":[1.0,1.0,1.0],"name":"contrail2"},{"translation":[0.0,0.0,0.0],"rotation":[-4.329637285359677e-17,0.7071067811865476,0.7071067811865475,4.329637285359677e-17],"scale":[1.0,1.0,1.0],"name":"node12"},{"translation":[1.6763999999999988,0.0,10.9728],"rotation":[-4.329637285359677e-17,0.7071067811865476,0.7071067811865475,4.329637285359677e-17],"scale":[1.0,1.0,1.0],"name":"node13"},{"translation":[13.822680000000002,0.48768000000000008,-3.9166799999999988],"rotation":[-4.329637285359677e-17,0.7071067811865476,0.7071067811865475,4.329637285359677e-17],"scale":[1.0,1.0,1.0],"name":"node14"},{"translation":[-13.822680000000002,0.48768000000000008,-3.9166800000000019],"rotation":[-4.329637285359677e-17,0.7071067811865476,0.7071067811865475,4.329637285359677e-17],"scale":[1.0,1.0,1.0],"name":"node15"},{"translation":[13.8684,0.48768000000000008,-4.0233599999999989],"rotation":[-4.329637285359677e-17,0.7071067811865476,0.7071067811865475,4.329637285359677e-17],"scale":[1.0,1.0,1.0],"name":"node16"},{"translation":[-13.8684,0.48768000000000008,-4.023360000000002],"rotation":[-4.329637285359677e-17,0.7071067811865476,0.7071067811865475,4.329637285359677e-17],"scale":[1.0,1.0,1.0],"name":"node17"},{"translation":[2.3869978064451629e-15,5.68452,-19.49196],"rotation":[-4.329637285359677e-17,0.7071067811865476,0.7071067811865475,4.329637285359677e-17],"scale":[1.0,1.0,1.0],"name":"node18"},{"translation":[2.3869978064451629e-15,5.68452,-19.49196],"rotation":[-4.329637285359677e-17,0.7071067811865476,0.7071067811865475,4.329637285359677e-17],"scale":[1.0,1.0,1.0],"name":"node19"},{"translation":[2.0398659909652564e-15,6.14172,-16.657320000000003],"rotation":[-4.329637285359677e-17,0.7071067811865476,0.7071067811865475,4.329637285359677e-17],"scale":[1.0,1.0,1.0],"name":"node20"},{"translation":[4.049871180598907e-16,-0.92964,-3.30708],"rotation":[-4.329637285359677e-17,0.7071067811865476,0.7071067811865475,4.329637285359677e-17],"scale":[1.0,1.0,1.0],"name":"node21"},{"translation":[-1.4782800000000005,-0.04572,2.30124],"rotation":[-4.329637285359677e-17,0.7071067811865476,0.7071067811865475,4.329637285359677e-17],"scale":[1.0,1.0,1.0],"name":"node22"},{"translation":[1.4782799999999999,-0.04572,2.30124],"rotation":[-4.329637285359677e-17,0.7071067811865476,0.7071067811865475,4.329637285359677e-17],"scale":[1.0,1.0,1.0],"name":"node23"},{"translation":[-1.3064100582577122e-15,-2.19456,10.668],"rotation":[-4.329637285359677e-17,0.7071067811865476,0.7071067811865475,4.329637285359677e-17],"scale":[1.0,1.0,1.0],"name":"node24"},{"translation":[4.572,-2.4841200000000005,-2.4383999999999999],"rotation":[-4.329637285359677e-17,0.7071067811865476,0.7071067811865475,4.329637285359677e-17],"scale":[1.0,1.0,1.0],"name":"node25"},{"translation":[-4.572,-2.4841200000000005,-2.438400000000001],"rotation":[-4.329637285359677e-17,0.7071067811865476,0.7071067811865475,4.329637285359677e-17],"scale":[1.0,1.0,1.0],"name":"node26"},{"translation":[16.434816,-0.3048,-5.714999999999998],"rotation":[-4.329637285359677e-17,0.7071067811865476,0.7071067811865475,4.329637285359677e-17],"scale":[1.0,1.0,1.0],"name":"node27"},{"translation":[-16.434816,-0.3048,-5.715000000000002],"rotation":[-4.329637285359677e-17,0.7071067811865476,0.7071067811865475,4.329637285359677e-17],"scale":[1.0,1.0,1.0],"name":"node28"},{"translation":[2.3142121031993764e-15,0.9144,-18.8976],"rotation":[-4.329637285359677e-17,0.7071067811865476,0.7071067811865475,4.329637285359677e-17],"scale":[1.0,1.0,1.0],"name":"node29"},{"translation":[-2.762124123173449e-15,0.0,22.555200000000004],"rotation":[-4.329637285359677e-17,0.7071067811865476,0.7071067811865475,4.329637285359677e-17],"scale":[1.0,1.0,1.0],"name":"node30"},{"translation":[0.0,0.0,0.0],"rotation":[-4.329637285359677e-17,0.7071067811865476,0.7071067811865475,4.329637285359677e-17],"scale":[1.0,1.0,1.0],"name":"node31"},{"translation":[5.7912,0.0,-0.9143999999999993],"rotation":[-4.329637285359677e-17,0.7071067811865476,0.7071067811865475,4.329637285359677e-17],"scale":[1.0,1.0,1.0],"name":"node32"},{"translation":[-5.7912,0.0,-0.9144000000000008],"rotation":[-4.329637285359677e-17,0.7071067811865476,0.7071067811865475,4.329637285359677e-17],"scale":[1.0,1.0,1.0],"name":"node33"},{"translation":[0.0,0.0,0.0],"rotation":[-4.329637285359677e-17,0.7071067811865476,0.7071067811865475,4.329637285359677e-17],"scale":[1.0,1.0,1.0],"name":"node34"},{"translation":[2.590800000000001,0.18288,-8.10768],"rotation":[-4.329637285359677e-17,0.7071067811865476,0.7071067811865475,4.329637285359677e-17],"scale":[1.0,1.0,1.0],"name":"node35"},{"translation":[-2.5907999999999995,0.18288,-8.10768],"rotation":[-4.329637285359677e-17,0.7071067811865476,0.7071067811865475,4.329637285359677e-17],"scale":[1.0,1.0,1.0],"name":"node36"},{"translation":[0.0,0.0,0.0],"rotation":[-4.329637285359677e-17,0.7071067811865476,0.7071067811865475,4.329637285359677e-17],"scale":[1.0,1.0,1.0],"name":"node37","children":[36,38,40,44]},{"translation":[-0.610729992389679,-14.666919708251952,-0.07027500122785568],"rotation":[0.0,0.0,0.0,1.0],"scale":[1.0,1.0,1.0],"name":"node38","children":[37]},{"mesh":1,"name":"node36_anim_AIA_Fokker_TailSpeedBrake"},{"translation":[0.609453022480011,-14.666919708251952,-0.07027500122785568],"rotation":[0.0,0.0,0.0,1.0],"scale":[1.0,1.0,1.0],"name":"node40","children":[39]},{"mesh":2,"name":"node37_anim_AIA_Fokker_TailSpeedBrake"},{"name":"node42","children":[41]},{"name":"node38_anim_custom_anim_REV_THRUST","children":[42]},{"name":"node43","children":[43]},{"mesh":3,"name":"node39_anim_custom_anim_REV_THRUST"},{"translation":[0.0,-11.516599655151368,1.1909019947052003],"rotation":[0.0,0.0,0.0,1.0],"scale":[1.0,1.0,1.0],"name":"node45","children":[45]},{"mesh":4,"name":"node40_anim_custom_anim_REV_THRUST"}],"scene":0,"scenes":[{"nodes":[0]}],"textures":[{"extensions":{"MSFT_texture_dds":{"source":0}}},{"extensions":{"MSFT_texture_dds":{"source":1}}},{"extensions":{"MSFT_texture_dds":{"source":2}}}],"extensionsUsed":["ASOBO_material_day_night_switch","MSFT_texture_dds","ASOBO_asset_optimized"],"buffers":[{"byteLength":11048,"uri":"AIA_Fokker_100_MSFS_LOD1.bin"}],"images":[{"uri":"AIA_FOKKER_100_T.PNG.DDS","extras":"ASOBO_image_converted_meta"},{"uri":"AIA_FOKKER_100_C.PNG.DDS","extras":"ASOBO_image_converted_meta"},{"uri":"AIA_FOKKER_100_L.PNG.DDS","extras":"ASOBO_image_converted_meta"}]}
