{"accessors":[{"bufferView":0,"componentType":5126,"count":5,"min":[-2.8495700359344484,-0.2075600028038025,1.8966200351715088],"max":[-2.375309944152832,0.5212100148200989,2.056030035018921],"type":"VEC3","name":"part000_vertices#0_POSITION"},{"bufferView":0,"byteOffset":12,"componentType":5120,"count":5,"type":"VEC4","name":"part000_vertices#0_TANGENT"},{"bufferView":0,"byteOffset":16,"componentType":5120,"count":5,"type":"VEC4","name":"part000_vertices#0_NORMAL"},{"bufferView":0,"byteOffset":20,"componentType":5122,"count":5,"type":"VEC2","name":"part000_vertices#0_TEXCOORD_0"},{"bufferView":0,"byteOffset":24,"componentType":5122,"count":5,"type":"VEC2","name":"part000_vertices#0_TEXCOORD_1"},{"bufferView":0,"byteOffset":28,"componentType":5123,"count":5,"type":"VEC4","name":"part000_vertices#0_COLOR_0"},{"bufferView":1,"componentType":5123,"count":9,"type":"SCALAR","name":"part000_indices#0"},{"bufferView":0,"byteOffset":180,"componentType":5126,"count":22,"min":[-2.922420024871826,-0.25207000970840456,1.9732799530029297],"max":[2.922420024871826,0.08412999659776688,1.9734300374984742],"type":"VEC3","name":"part001_vertices#0_POSITION"},{"bufferView":0,"byteOffset":192,"componentType":5120,"count":22,"type":"VEC4","name":"part001_vertices#0_TANGENT"},{"bufferView":0,"byteOffset":196,"componentType":5120,"count":22,"type":"VEC4","name":"part001_vertices#0_NORMAL"},{"bufferView":0,"byteOffset":200,"componentType":5122,"count":22,"type":"VEC2","name":"part001_vertices#0_TEXCOORD_0"},{"bufferView":0,"byteOffset":204,"componentType":5122,"count":22,"type":"VEC2","name":"part001_vertices#0_TEXCOORD_1"},{"bufferView":0,"byteOffset":208,"componentType":5123,"count":22,"type":"VEC4","name":"part001_vertices#0_COLOR_0"},{"bufferView":1,"byteOffset":18,"componentType":5123,"count":54,"type":"SCALAR","name":"part001_indices#0"},{"bufferView":0,"byteOffset":972,"componentType":5126,"count":189,"min":[-8.265870094299317,-0.4425700008869171,-10.792200088500977],"max":[8.265870094299317,3.2945899963378908,6.993030071258545],"type":"VEC3","name":"part002_vertices#0_POSITION"},{"bufferView":0,"byteOffset":984,"componentType":5120,"count":189,"type":"VEC4","name":"part002_vertices#0_TANGENT"},{"bufferView":0,"byteOffset":988,"componentType":5120,"count":189,"type":"VEC4","name":"part002_vertices#0_NORMAL"},{"bufferView":0,"byteOffset":992,"componentType":5122,"count":189,"type":"VEC2","name":"part002_vertices#0_TEXCOORD_0"},{"bufferView":0,"byteOffset":996,"componentType":5122,"count":189,"type":"VEC2","name":"part002_vertices#0_TEXCOORD_1"},{"bufferView":0,"byteOffset":1000,"componentType":5123,"count":189,"type":"VEC4","name":"part002_vertices#0_COLOR_0"},{"bufferView":1,"byteOffset":126,"componentType":5123,"count":339,"type":"SCALAR","name":"part002_indices#0"}],"asset":{"generator":"ModelConverterX","version":"2.0","extensions":{"ASOBO_asset_optimized":{"BoundingBoxMax":[8.265870094299317,3.2945899963378908,6.993030071258545],"BoundingBoxMin":[-8.265870094299317,-0.4425700008869171,-10.792200088500977],"MajorVersion":4,"MinorVersion":3,"UseCheckerboardMaterialForMissingTextures":true}}},"bufferViews":[{"buffer":0,"byteLength":7776,"byteStride":36,"target":34962,"name":"BufferViewVertexND"},{"buffer":0,"byteLength":804,"byteOffset":7776,"target":34963,"name":"BufferViewIndex"}],"extensionsRequired":["MSFT_texture_dds"],"materials":[{"name":"material00","occlusionTexture":{"index":1},"emissiveTexture":{"index":2},"emissiveFactor":[1.0,1.0,1.0],"pbrMetallicRoughness":{"baseColorTexture":{"index":0},"metallicRoughnessTexture":{"index":1}},"extensions":{"ASOBO_material_day_night_switch":{}}},{"name":"material01","pbrMetallicRoughness":{"baseColorFactor":[0.03921600058674812,0.03921600058674812,0.03921600058674812,1.0],"metallicFactor":0.0}},{"name":"material02","pbrMetallicRoughness":{"baseColorFactor":[0.7960780262947084,0.7960780262947084,0.7960780262947084,1.0],"metallicFactor":0.0}}],"meshes":[{"primitives":[{"attributes":{"COLOR_0":5,"NORMAL":2,"POSITION":0,"TANGENT":1,"TEXCOORD_0":3,"TEXCOORD_1":4},"indices":6,"material":2,"mode":4,"extras":{"ASOBO_primitive":{"PrimitiveCount":3,"VertexType":"VTX","VertexVersion":2}}}],"name":"part000"},{"primitives":[{"attributes":{"COLOR_0":12,"NORMAL":9,"POSITION":7,"TANGENT":8,"TEXCOORD_0":10,"TEXCOORD_1":11},"indices":13,"material":1,"mode":4,"extras":{"ASOBO_primitive":{"PrimitiveCount":18,"VertexType":"VTX","VertexVersion":2}}}],"name":"part001"},{"primitives":[{"attributes":{"COLOR_0":19,"NORMAL":16,"POSITION":14,"TANGENT":15,"TEXCOORD_0":17,"TEXCOORD_1":18},"indices":20,"material":0,"mode":4,"extras":{"ASOBO_primitive":{"PrimitiveCount":113,"VertexType":"VTX","VertexVersion":2}}}],"name":"part002"}],"nodes":[{"name":"node0","children":[1,2,3,4,5,6,7,8,9,10,11,12,13,14,15,16,17,18,19,20,21,22,23,24,25,26,27,28,29]},{"mesh":0,"name":"node1"},{"mesh":1,"name":"node2"},{"mesh":2,"name":"node3"},{"translation":[1.7300000190734877,3.0999999046325685,-9.989999771118164],"rotation":[-0.14454395769732276,0.30997569206635036,0.8516507490488197,0.39713110714947316],"scale":[1.0,1.0,1.0],"name":"logo_l"},{"translation":[3.1500000953674318,-0.10000000149011612,0.7300000190734868],"rotation":[-0.03084364446938532,-0.7064337687255942,-0.7064337687255942,0.030843644469385316],"scale":[1.0,1.0,1.0],"name":"landing_l"},{"translation":[-3.1500000953674318,-0.10000000149011612,0.730000019073486],"rotation":[-0.030843644469385237,0.7064337687255942,0.7064337687255942,0.03084364446938523],"scale":[1.0,1.0,1.0],"name":"landing_r"},{"translation":[-1.730000019073485,3.0999999046325685,-9.989999771118164],"rotation":[0.14454395769732265,0.30997569206635047,0.8516507490488197,-0.397131107149473],"scale":[1.0,1.0,1.0],"name":"logo_r"},{"translation":[2.63,0.1,-1.4999999999999998],"rotation":[-6.123031769111886e-17,3.061515884555943e-17,1.0,1.874575902277672e-33],"scale":[1.0,1.0,1.0],"name":"contrail1"},{"translation":[-2.63,0.1,-1.5000000000000003],"rotation":[-6.123031769111886e-17,3.061515884555943e-17,1.0,1.874575902277672e-33],"scale":[1.0,1.0,1.0],"name":"contrail2"},{"translation":[-5.598900249675911e-17,0.0,0.4572000000000001],"rotation":[-4.329637285359677e-17,0.7071067811865476,0.7071067811865475,4.329637285359677e-17],"scale":[1.0,1.0,1.0],"name":"node16"},{"translation":[8.290560000000001,0.4572000000000001,1.0152672452745648e-15],"rotation":[-4.329637285359677e-17,0.7071067811865476,0.7071067811865475,4.329637285359677e-17],"scale":[1.0,1.0,1.0],"name":"node17"},{"translation":[-8.290560000000001,0.4572000000000001,-1.0152672452745648e-15],"rotation":[-4.329637285359677e-17,0.7071067811865476,0.7071067811865475,4.329637285359677e-17],"scale":[1.0,1.0,1.0],"name":"node18"},{"translation":[1.3250730590899653e-15,3.2004,-10.8204],"rotation":[-4.329637285359677e-17,0.7071067811865476,0.7071067811865475,4.329637285359677e-17],"scale":[1.0,1.0,1.0],"name":"node19"},{"translation":[8.32104,0.4572000000000001,-0.015239999999998984],"rotation":[-4.329637285359677e-17,0.7071067811865476,0.7071067811865475,4.329637285359677e-17],"scale":[1.0,1.0,1.0],"name":"node20"},{"translation":[-8.32104,0.4572000000000001,-0.01524000000000102],"rotation":[-4.329637285359677e-17,0.7071067811865476,0.7071067811865475,4.329637285359677e-17],"scale":[1.0,1.0,1.0],"name":"node21"},{"translation":[1.1533734514332373e-15,3.3528,-9.41832],"rotation":[-4.329637285359677e-17,0.7071067811865476,0.7071067811865475,4.329637285359677e-17],"scale":[1.0,1.0,1.0],"name":"node22"},{"translation":[2.239560099870364e-16,-0.5334,-1.8288],"rotation":[-4.329637285359677e-17,0.7071067811865476,0.7071067811865475,4.329637285359677e-17],"scale":[1.0,1.0,1.0],"name":"node23"},{"translation":[-8.099742361197815e-16,-1.6611600000000003,6.61416],"rotation":[-4.329637285359677e-17,0.7071067811865476,0.7071067811865475,4.329637285359677e-17],"scale":[1.0,1.0,1.0],"name":"node24"},{"translation":[2.95656,-1.63068,-0.6095999999999997],"rotation":[-4.329637285359677e-17,0.7071067811865476,0.7071067811865475,4.329637285359677e-17],"scale":[1.0,1.0,1.0],"name":"node25"},{"translation":[-2.95656,-1.63068,-0.6096000000000004],"rotation":[-4.329637285359677e-17,0.7071067811865476,0.7071067811865475,4.329637285359677e-17],"scale":[1.0,1.0,1.0],"name":"node26"},{"translation":[4.4196,-0.3048,5.412270241353378e-16],"rotation":[-4.329637285359677e-17,0.7071067811865476,0.7071067811865475,4.329637285359677e-17],"scale":[1.0,1.0,1.0],"name":"node27"},{"translation":[1.8288,-0.4572000000000001,2.239560099870364e-16],"rotation":[-4.329637285359677e-17,0.7071067811865476,0.7071067811865475,4.329637285359677e-17],"scale":[1.0,1.0,1.0],"name":"node28"},{"translation":[-4.4196,-0.3048,-5.412270241353378e-16],"rotation":[-4.329637285359677e-17,0.7071067811865476,0.7071067811865475,4.329637285359677e-17],"scale":[1.0,1.0,1.0],"name":"node29"},{"translation":[-1.8288,-0.4572000000000001,-2.239560099870364e-16],"rotation":[-4.329637285359677e-17,0.7071067811865476,0.7071067811865475,4.329637285359677e-17],"scale":[1.0,1.0,1.0],"name":"node30"},{"translation":[0.0,0.0,0.0],"rotation":[-4.329637285359677e-17,0.7071067811865476,0.7071067811865475,4.329637285359677e-17],"scale":[1.0,1.0,1.0],"name":"node31"},{"translation":[0.6095999999999998,0.0,1.524],"rotation":[-4.329637285359677e-17,0.7071067811865476,0.7071067811865475,4.329637285359677e-17],"scale":[1.0,1.0,1.0],"name":"node32"},{"translation":[-0.6096000000000003,0.0,1.524],"rotation":[-4.329637285359677e-17,0.7071067811865476,0.7071067811865475,4.329637285359677e-17],"scale":[1.0,1.0,1.0],"name":"node33"},{"translation":[2.6822399999999999,0.21336,2.2250400000000005],"rotation":[-4.329637285359677e-17,0.7071067811865476,0.7071067811865475,4.329637285359677e-17],"scale":[1.0,1.0,1.0],"name":"node34"},{"translation":[-2.6822400000000008,0.21336,2.2250399999999996],"rotation":[-4.329637285359677e-17,0.7071067811865476,0.7071067811865475,4.329637285359677e-17],"scale":[1.0,1.0,1.0],"name":"node35"}],"scene":0,"scenes":[{"nodes":[0]}],"textures":[{"extensions":{"MSFT_texture_dds":{"source":0}}},{"extensions":{"MSFT_texture_dds":{"source":1}}},{"extensions":{"MSFT_texture_dds":{"source":2}}}],"extensionsUsed":["ASOBO_material_day_night_switch","MSFT_texture_dds","ASOBO_asset_optimized"],"buffers":[{"byteLength":8580,"uri":"HTAI Beechcraft 1900C MSFS_LOD1.bin"}],"images":[{"uri":"1900C.PNG.DDS","extras":"ASOBO_image_converted_meta"},{"uri":"1900C_C.PNG.DDS","extras":"ASOBO_image_converted_meta"},{"uri":"CABIN_LIGHTS.PNG.DDS","extras":"ASOBO_image_converted_meta"}]}
