{"accessors":[{"bufferView":0,"componentType":5126,"count":76,"min":[-10.564000129699707,-1.715999960899353,-13.104000091552735],"max":[10.539999961853028,5.099999904632568,8.196000099182129],"type":"VEC3","name":"part000_vertices#0_POSITION"},{"bufferView":0,"byteOffset":12,"componentType":5120,"count":76,"type":"VEC4","name":"part000_vertices#0_TANGENT"},{"bufferView":0,"byteOffset":16,"componentType":5120,"count":76,"type":"VEC4","name":"part000_vertices#0_NORMAL"},{"bufferView":0,"byteOffset":20,"componentType":5122,"count":76,"type":"VEC2","name":"part000_vertices#0_TEXCOORD_0"},{"bufferView":0,"byteOffset":24,"componentType":5122,"count":76,"type":"VEC2","name":"part000_vertices#0_TEXCOORD_1"},{"bufferView":0,"byteOffset":28,"componentType":5123,"count":76,"type":"VEC4","name":"part000_vertices#0_COLOR_0"},{"bufferView":1,"componentType":5123,"count":132,"type":"SCALAR","name":"part000_indices#0"}],"asset":{"generator":"ModelConverterX","version":"2.0","extensions":{"ASOBO_asset_optimized":{"BoundingBoxMax":[10.539999961853028,5.099999904632568,8.196000099182129],"BoundingBoxMin":[-10.564000129699707,-1.715999960899353,-13.104000091552735],"MajorVersion":4,"MinorVersion":3,"UseCheckerboardMaterialForMissingTextures":true}}},"bufferViews":[{"buffer":0,"byteLength":2736,"byteStride":36,"target":34962,"name":"BufferViewVertexND"},{"buffer":0,"byteLength":264,"byteOffset":2736,"target":34963,"name":"BufferViewIndex"}],"extensionsRequired":["MSFT_texture_dds"],"materials":[{"name":"material00","occlusionTexture":{"index":1},"emissiveTexture":{"index":2},"emissiveFactor":[1.0,1.0,1.0],"pbrMetallicRoughness":{"baseColorTexture":{"index":0},"metallicRoughnessTexture":{"index":1}},"extensions":{"ASOBO_material_day_night_switch":{}}}],"meshes":[{"primitives":[{"attributes":{"COLOR_0":5,"NORMAL":2,"POSITION":0,"TANGENT":1,"TEXCOORD_0":3,"TEXCOORD_1":4},"indices":6,"material":0,"mode":4,"extras":{"ASOBO_primitive":{"PrimitiveCount":44,"VertexType":"VTX","VertexVersion":2}}}],"name":"part000"}],"nodes":[{"name":"node0","children":[1,2,3,4,5,6,7]},{"mesh":0,"name":"node1"},{"translation":[3.5,0.44,-0.6999999999999995],"rotation":[-6.123031769111886e-17,3.061515884555943e-17,1.0,1.874575902277672e-33],"scale":[1.0,1.0,1.0],"name":"contrail1"},{"translation":[1.12999999523163,4.440000057220459,-11.869999885559082],"rotation":[-0.6459743584556793,0.28760612271922528,0.7053842390477425,0.04932465605784501],"scale":[1.0,1.0,1.0],"name":"logo_l"},{"translation":[-1.1299999952316269,4.440000057220459,-11.869999885559082],"rotation":[-0.645974358455679,-0.2876061227192255,-0.7053842390477427,0.04932465605784504],"scale":[1.0,1.0,1.0],"name":"logo_r"},{"translation":[-1.1299999952316285,-1.0,0.8000000119209288],"rotation":[-0.06162833820646024,0.7044160332714683,0.7044160332714683,0.061628338206460218],"scale":[1.0,1.0,1.0],"name":"landing_r"},{"translation":[1.1299999952316285,-1.0,0.8000000119209291],"rotation":[-0.061628338206460308,-0.7044160332714682,-0.7044160332714682,0.06162833820646029],"scale":[1.0,1.0,1.0],"name":"landing_l"},{"translation":[-3.5,0.44,-0.7000000000000004],"rotation":[-6.123031769111886e-17,3.061515884555943e-17,1.0,1.874575902277672e-33],"scale":[1.0,1.0,1.0],"name":"contrail2"}],"scene":0,"scenes":[{"nodes":[0]}],"textures":[{"extensions":{"MSFT_texture_dds":{"source":0}}},{"extensions":{"MSFT_texture_dds":{"source":1}}},{"extensions":{"MSFT_texture_dds":{"source":2}}}],"extensionsUsed":["ASOBO_material_day_night_switch","MSFT_texture_dds","ASOBO_asset_optimized"],"buffers":[{"byteLength":3000,"uri":"AIG_Do_328J_MSFS_LOD1.bin"}],"images":[{"uri":"AIG_DO328J_T.PNG.DDS","extras":"ASOBO_image_converted_meta"},{"uri":"AIG_DO328J_C.PNG.DDS","extras":"ASOBO_image_converted_meta"},{"uri":"AIG_DO328J_L.PNG.DDS","extras":"ASOBO_image_converted_meta"}]}
