{"accessors":[{"bufferView":0,"componentType":5126,"count":2,"min":[0.0],"max":[100.0],"type":"SCALAR"},{"bufferView":1,"componentType":5126,"count":2,"type":"VEC4"},{"bufferView":2,"componentType":5126,"count":24,"min":[-2.83597993850708,-0.4166400134563446,2.697000026702881],"max":[2.83597993850708,-0.15330000221729279,2.697000026702881],"type":"VEC3","name":"part000_vertices#0_POSITION"},{"bufferView":2,"byteOffset":12,"componentType":5120,"count":24,"type":"VEC4","name":"part000_vertices#0_TANGENT"},{"bufferView":2,"byteOffset":16,"componentType":5120,"count":24,"type":"VEC4","name":"part000_vertices#0_NORMAL"},{"bufferView":2,"byteOffset":20,"componentType":5122,"count":24,"type":"VEC2","name":"part000_vertices#0_TEXCOORD_0"},{"bufferView":2,"byteOffset":24,"componentType":5122,"count":24,"type":"VEC2","name":"part000_vertices#0_TEXCOORD_1"},{"bufferView":2,"byteOffset":28,"componentType":5123,"count":24,"type":"VEC4","name":"part000_vertices#0_COLOR_0"},{"bufferView":3,"componentType":5123,"count":60,"type":"SCALAR","name":"part000_indices#0"},{"bufferView":2,"byteOffset":864,"componentType":5126,"count":250,"min":[-7.554780006408691,-0.4983200132846832,-7.217130184173584],"max":[7.554780006408691,3.114490032196045,3.631730079650879],"type":"VEC3","name":"part001_vertices#0_POSITION"},{"bufferView":2,"byteOffset":876,"componentType":5120,"count":250,"type":"VEC4","name":"part001_vertices#0_TANGENT"},{"bufferView":2,"byteOffset":880,"componentType":5120,"count":250,"type":"VEC4","name":"part001_vertices#0_NORMAL"},{"bufferView":2,"byteOffset":884,"componentType":5122,"count":250,"type":"VEC2","name":"part001_vertices#0_TEXCOORD_0"},{"bufferView":2,"byteOffset":888,"componentType":5122,"count":250,"type":"VEC2","name":"part001_vertices#0_TEXCOORD_1"},{"bufferView":2,"byteOffset":892,"componentType":5123,"count":250,"type":"VEC4","name":"part001_vertices#0_COLOR_0"},{"bufferView":3,"byteOffset":120,"componentType":5123,"count":696,"type":"SCALAR","name":"part001_indices#0"}],"animations":[{"name":"c_gear","channels":[{"sampler":0,"target":{"node":8,"path":"rotation"}}],"samplers":[{"input":0,"output":1,"interpolation":"LINEAR"}]}],"asset":{"generator":"ModelConverterX","version":"2.0","extensions":{"ASOBO_asset_optimized":{"BoundingBoxMax":[7.554780006408691,3.114490032196045,3.631730079650879],"BoundingBoxMin":[-7.554780006408691,-0.4983200132846832,-7.217130184173584],"MajorVersion":4,"MinorVersion":3,"UseCheckerboardMaterialForMissingTextures":true}}},"bufferViews":[{"buffer":0,"byteLength":8,"byteStride":4},{"buffer":0,"byteLength":32,"byteStride":16,"byteOffset":8},{"buffer":0,"byteLength":9864,"byteStride":36,"byteOffset":40,"target":34962,"name":"BufferViewVertexND"},{"buffer":0,"byteLength":1512,"byteOffset":9904,"target":34963,"name":"BufferViewIndex"}],"extensionsRequired":["MSFT_texture_dds"],"materials":[{"name":"material00","occlusionTexture":{"index":1},"emissiveTexture":{"index":2},"emissiveFactor":[1.0,1.0,1.0],"pbrMetallicRoughness":{"baseColorTexture":{"index":0},"metallicRoughnessTexture":{"index":1}},"extensions":{"ASOBO_material_day_night_switch":{}}},{"name":"material01","pbrMetallicRoughness":{"baseColorFactor":[0.03921600058674812,0.03921600058674812,0.03921600058674812,1.0],"metallicFactor":0.0}}],"meshes":[{"primitives":[{"attributes":{"COLOR_0":7,"NORMAL":4,"POSITION":2,"TANGENT":3,"TEXCOORD_0":5,"TEXCOORD_1":6},"indices":8,"material":1,"mode":4,"extras":{"ASOBO_primitive":{"PrimitiveCount":20,"VertexType":"VTX","VertexVersion":2}}}],"name":"part000"},{"primitives":[{"attributes":{"COLOR_0":14,"NORMAL":11,"POSITION":9,"TANGENT":10,"TEXCOORD_0":12,"TEXCOORD_1":13},"indices":15,"material":0,"mode":4,"extras":{"ASOBO_primitive":{"PrimitiveCount":232,"VertexType":"VTX","VertexVersion":2}}}],"name":"part001"}],"nodes":[{"name":"node0","children":[1,2,3,4,5]},{"mesh":0,"name":"node1"},{"mesh":1,"name":"node2"},{"translation":[2.6000000000000007,0.0,-2.0],"rotation":[-6.123031769111886e-17,3.061515884555943e-17,1.0,1.874575902277672e-33],"scale":[1.0,1.0,1.0],"name":"contrail1"},{"translation":[-2.5999999999999998,0.0,-2.0000000000000006],"rotation":[-6.123031769111886e-17,3.061515884555943e-17,1.0,1.874575902277672e-33],"scale":[1.0,1.0,1.0],"name":"contrail2"},{"translation":[0.0,0.0,0.0],"rotation":[-4.329637285359677e-17,0.7071067811865476,0.7071067811865475,4.329637285359677e-17],"scale":[1.0,1.0,1.0],"name":"node15","children":[6]},{"translation":[0.0,3.1465539932250978,0.1673250049352646],"rotation":[0.0,0.0,0.0,1.0],"scale":[1.0,1.0,1.0],"name":"node90","children":[7]},{"name":"node96","children":[8]},{"name":"node7_anim_c_gear","children":[9,10,11,12]},{"translation":[0.0,0.09000000357627869,-0.5400000214576721],"rotation":[0.0,0.0,0.0,1.0],"scale":[1.0,1.0,1.0],"name":"landing_c"},{"translation":[0.09000000357627869,0.10000000149011612,-0.4000000059604645],"rotation":[0.0,0.0,0.0,1.0],"scale":[1.0,1.0,1.0],"name":"landing_r"},{"translation":[0.0,0.09000000357627869,-0.5400000214576721],"rotation":[0.0,0.0,0.0,1.0],"scale":[1.0,1.0,1.0],"name":"taxi"},{"translation":[-0.09000000357627869,0.10000000149011612,-0.4000000059604645],"rotation":[0.0,0.0,0.0,1.0],"scale":[1.0,1.0,1.0],"name":"landing_l"}],"scene":0,"scenes":[{"nodes":[0]}],"textures":[{"extensions":{"MSFT_texture_dds":{"source":0}}},{"extensions":{"MSFT_texture_dds":{"source":1}}},{"extensions":{"MSFT_texture_dds":{"source":2}}}],"extensionsUsed":["ASOBO_material_day_night_switch","MSFT_texture_dds","ASOBO_asset_optimized"],"buffers":[{"byteLength":11416,"uri":"HTAI Beechcraft King Air C90 4Blade21Fin MSFS_LOD2.bin"}],"images":[{"uri":"C90.PNG.DDS","extras":"ASOBO_image_converted_meta"},{"uri":"C90_C.PNG.DDS","extras":"ASOBO_image_converted_meta"},{"uri":"CABIN_LIGHTS.PNG.DDS","extras":"ASOBO_image_converted_meta"}]}
