{"accessors":[{"bufferView":0,"componentType":5126,"count":102,"min":[-12.899145126342774,-13.684948921203614,-3.40047287940979],"max":[12.899145126342774,13.684948921203614,3.40047287940979],"type":"VEC3","name":"LowLOD_LOD_005_vertices#0_POSITION"},{"bufferView":0,"byteOffset":12,"componentType":5120,"count":102,"type":"VEC4","name":"LowLOD_LOD_005_vertices#0_TANGENT"},{"bufferView":0,"byteOffset":16,"componentType":5120,"count":102,"type":"VEC4","name":"LowLOD_LOD_005_vertices#0_NORMAL"},{"bufferView":0,"byteOffset":20,"componentType":5122,"count":102,"type":"VEC2","name":"LowLOD_LOD_005_vertices#0_TEXCOORD_0"},{"bufferView":0,"byteOffset":24,"componentType":5122,"count":102,"type":"VEC2","name":"LowLOD_LOD_005_vertices#0_TEXCOORD_1"},{"bufferView":0,"byteOffset":28,"componentType":5123,"count":102,"type":"VEC4","name":"LowLOD_LOD_005_vertices#0_COLOR_0"},{"bufferView":1,"componentType":5123,"count":336,"type":"SCALAR","name":"LowLOD_LOD_005_indices#0"}],"asset":{"generator":"babylon.js glTF exporter for 3dsmax 2021 v1.0.8124.17907","version":"2.0","extensions":{"ASOBO_asset_optimized":{"BoundingBoxMax":[12.899145126342774,13.684948921203614,3.40047287940979],"BoundingBoxMin":[-12.899145126342774,-13.684948921203614,-3.40047287940979],"MajorVersion":4,"MinorVersion":4,"UseCheckerboardMaterialForMissingTextures":true,"UseOnlyFilenameForImageURI":true},"ASOBO_normal_map_convention":{"tangent_space_convention":"DirectX"}}},"bufferViews":[{"buffer":0,"byteLength":3672,"byteStride":36,"target":34962,"name":"BufferViewVertexND"},{"buffer":0,"byteLength":672,"byteOffset":3672,"target":34963,"name":"BufferViewIndex"}],"extensionsRequired":["MSFT_texture_dds"],"materials":[{"name":"Fuse","occlusionTexture":{"index":1},"emissiveTexture":{"index":2},"emissiveFactor":[0.10000000149011612,0.10000000149011612,0.10000000149011612],"pbrMetallicRoughness":{"baseColorTexture":{"index":0},"metallicRoughnessTexture":{"index":1}}}],"meshes":[{"primitives":[{"attributes":{"COLOR_0":5,"NORMAL":2,"POSITION":0,"TANGENT":1,"TEXCOORD_0":3,"TEXCOORD_1":4},"indices":6,"material":0,"mode":4,"extras":{"ASOBO_primitive":{"PrimitiveCount":112,"VertexType":"VTX","VertexVersion":2}}}],"name":"LowLOD_LOD_005"}],"nodes":[{"translation":[1.98661421e-9,0.0,0.0],"rotation":[0.49999997,0.5,-0.5,0.5000001],"scale":[0.99999994,0.99999994,0.99999994],"extensions":{"ASOBO_unique_id":{"id":"LOD1"}},"name":"LOD1","children":[1]},{"translation":[1.37970591,0.0000510421924,-2.64749455],"rotation":[-1.77635684e-15,-1.77635684e-15,-8.881783e-16,1.0],"mesh":0,"extensions":{"ASOBO_unique_id":{"id":"LowLOD_LOD_005"}},"name":"LowLOD_LOD_005"}],"scene":0,"scenes":[{"nodes":[0]}],"textures":[{"extensions":{"MSFT_texture_dds":{"source":0}}},{"extensions":{"MSFT_texture_dds":{"source":1}}},{"extensions":{"MSFT_texture_dds":{"source":2}}}],"extensionsUsed":["ASOBO_normal_map_convention","ASOBO_unique_id","MSFT_texture_dds","ASOBO_asset_optimized"],"buffers":[{"byteLength":4344,"uri":"AIG_DHC-Dash-8-311_LOD1.bin"}],"images":[{"uri":"AIG_DASH-8-300_T.PNG.DDS","extras":"ASOBO_image_converted_meta"},{"uri":"AIG_DASH-8-311_C.PNG.DDS","extras":"ASOBO_image_converted_meta"},{"uri":"AIG_DASH-8-300_L.PNG.DDS","extras":"ASOBO_image_converted_meta"}]}
