{"accessors":[{"bufferView":0,"componentType":5126,"count":5,"min":[0.0],"max":[200.0],"type":"SCALAR"},{"bufferView":2,"componentType":5126,"count":5,"type":"VEC4"},{"bufferView":0,"byteOffset":20,"componentType":5126,"count":6,"min":[0.0],"max":[200.0],"type":"SCALAR"},{"bufferView":1,"componentType":5126,"count":6,"type":"VEC3"},{"bufferView":0,"byteOffset":44,"componentType":5126,"count":5,"min":[0.0],"max":[100.0],"type":"SCALAR"},{"bufferView":2,"byteOffset":80,"componentType":5126,"count":5,"type":"VEC4"},{"bufferView":0,"byteOffset":64,"componentType":5126,"count":5,"min":[0.0],"max":[200.0],"type":"SCALAR"},{"bufferView":2,"byteOffset":160,"componentType":5126,"count":5,"type":"VEC4"},{"bufferView":0,"byteOffset":84,"componentType":5126,"count":6,"min":[0.0],"max":[200.0],"type":"SCALAR"},{"bufferView":1,"byteOffset":72,"componentType":5126,"count":6,"type":"VEC3"},{"bufferView":0,"byteOffset":108,"componentType":5126,"count":5,"min":[0.0],"max":[100.0],"type":"SCALAR"},{"bufferView":2,"byteOffset":240,"componentType":5126,"count":5,"type":"VEC4"},{"bufferView":3,"componentType":5126,"count":148,"min":[-6.827060222625732,-1.4286400079727173,-7.0271501541137699],"max":[6.827060222625732,2.8332700729370119,7.067170143127441],"type":"VEC3","name":"part000_vertices#0_POSITION"},{"bufferView":3,"byteOffset":12,"componentType":5120,"count":148,"type":"VEC4","name":"part000_vertices#0_TANGENT"},{"bufferView":3,"byteOffset":16,"componentType":5120,"count":148,"type":"VEC4","name":"part000_vertices#0_NORMAL"},{"bufferView":3,"byteOffset":20,"componentType":5122,"count":148,"type":"VEC2","name":"part000_vertices#0_TEXCOORD_0"},{"bufferView":3,"byteOffset":24,"componentType":5122,"count":148,"type":"VEC2","name":"part000_vertices#0_TEXCOORD_1"},{"bufferView":3,"byteOffset":28,"componentType":5123,"count":148,"type":"VEC4","name":"part000_vertices#0_COLOR_0"},{"bufferView":4,"componentType":5123,"count":258,"type":"SCALAR","name":"part000_indices#0"},{"bufferView":3,"byteOffset":5328,"componentType":5126,"count":12,"min":[-0.0640299990773201,-0.06302999705076218,-0.46020999550819399],"max":[0.0640299990773201,0.06103000044822693,-0.00800000037997961],"type":"VEC3","name":"part001_vertices#0_POSITION"},{"bufferView":3,"byteOffset":5340,"componentType":5120,"count":12,"type":"VEC4","name":"part001_vertices#0_TANGENT"},{"bufferView":3,"byteOffset":5344,"componentType":5120,"count":12,"type":"VEC4","name":"part001_vertices#0_NORMAL"},{"bufferView":3,"byteOffset":5348,"componentType":5122,"count":12,"type":"VEC2","name":"part001_vertices#0_TEXCOORD_0"},{"bufferView":3,"byteOffset":5352,"componentType":5122,"count":12,"type":"VEC2","name":"part001_vertices#0_TEXCOORD_1"},{"bufferView":3,"byteOffset":5356,"componentType":5123,"count":12,"type":"VEC4","name":"part001_vertices#0_COLOR_0"},{"bufferView":4,"byteOffset":516,"componentType":5123,"count":24,"type":"SCALAR","name":"part001_indices#0"},{"bufferView":3,"byteOffset":5760,"componentType":5126,"count":20,"min":[-0.10204999893903732,-0.3191399872303009,-0.3181400001049042],"max":[0.10204999893903732,0.32113999128341677,0.3181400001049042],"type":"VEC3","name":"part002_vertices#0_POSITION"},{"bufferView":3,"byteOffset":5772,"componentType":5120,"count":20,"type":"VEC4","name":"part002_vertices#0_TANGENT"},{"bufferView":3,"byteOffset":5776,"componentType":5120,"count":20,"type":"VEC4","name":"part002_vertices#0_NORMAL"},{"bufferView":3,"byteOffset":5780,"componentType":5122,"count":20,"type":"VEC2","name":"part002_vertices#0_TEXCOORD_0"},{"bufferView":3,"byteOffset":5784,"componentType":5122,"count":20,"type":"VEC2","name":"part002_vertices#0_TEXCOORD_1"},{"bufferView":3,"byteOffset":5788,"componentType":5123,"count":20,"type":"VEC4","name":"part002_vertices#0_COLOR_0"},{"bufferView":4,"byteOffset":564,"componentType":5123,"count":36,"type":"SCALAR","name":"part002_indices#0"},{"bufferView":3,"byteOffset":6480,"componentType":5126,"count":12,"min":[-0.0640299990773201,-0.06302999705076218,-0.46004000306129458],"max":[0.0640299990773201,0.06103000044822693,-0.007840000092983246],"type":"VEC3","name":"part003_vertices#0_POSITION"},{"bufferView":3,"byteOffset":6492,"componentType":5120,"count":12,"type":"VEC4","name":"part003_vertices#0_TANGENT"},{"bufferView":3,"byteOffset":6496,"componentType":5120,"count":12,"type":"VEC4","name":"part003_vertices#0_NORMAL"},{"bufferView":3,"byteOffset":6500,"componentType":5122,"count":12,"type":"VEC2","name":"part003_vertices#0_TEXCOORD_0"},{"bufferView":3,"byteOffset":6504,"componentType":5122,"count":12,"type":"VEC2","name":"part003_vertices#0_TEXCOORD_1"},{"bufferView":3,"byteOffset":6508,"componentType":5123,"count":12,"type":"VEC4","name":"part003_vertices#0_COLOR_0"},{"bufferView":4,"byteOffset":636,"componentType":5123,"count":24,"type":"SCALAR","name":"part003_indices#0"},{"bufferView":3,"byteOffset":6912,"componentType":5126,"count":20,"min":[-0.10204999893903732,-0.3191399872303009,-0.3181400001049042],"max":[0.10204999893903732,0.32113999128341677,0.3181400001049042],"type":"VEC3","name":"part004_vertices#0_POSITION"},{"bufferView":3,"byteOffset":6924,"componentType":5120,"count":20,"type":"VEC4","name":"part004_vertices#0_TANGENT"},{"bufferView":3,"byteOffset":6928,"componentType":5120,"count":20,"type":"VEC4","name":"part004_vertices#0_NORMAL"},{"bufferView":3,"byteOffset":6932,"componentType":5122,"count":20,"type":"VEC2","name":"part004_vertices#0_TEXCOORD_0"},{"bufferView":3,"byteOffset":6936,"componentType":5122,"count":20,"type":"VEC2","name":"part004_vertices#0_TEXCOORD_1"},{"bufferView":3,"byteOffset":6940,"componentType":5123,"count":20,"type":"VEC4","name":"part004_vertices#0_COLOR_0"},{"bufferView":4,"byteOffset":684,"componentType":5123,"count":36,"type":"SCALAR","name":"part004_indices#0"}],"animations":[{"name":"l_gear","channels":[{"sampler":0,"target":{"node":31,"path":"rotation"}},{"sampler":1,"target":{"node":33,"path":"translation"}}],"samplers":[{"input":0,"output":1,"interpolation":"LINEAR"},{"input":2,"output":3,"interpolation":"LINEAR"}]},{"name":"tire_anim","channels":[{"sampler":0,"target":{"node":36,"path":"rotation"}},{"sampler":1,"target":{"node":44,"path":"rotation"}}],"samplers":[{"input":4,"output":5,"interpolation":"LINEAR"},{"input":10,"output":11,"interpolation":"LINEAR"}]},{"name":"r_gear","channels":[{"sampler":0,"target":{"node":39,"path":"rotation"}},{"sampler":1,"target":{"node":41,"path":"translation"}}],"samplers":[{"input":6,"output":7,"interpolation":"LINEAR"},{"input":8,"output":9,"interpolation":"LINEAR"}]}],"asset":{"generator":"ModelConverterX","version":"2.0","extensions":{"ASOBO_asset_optimized":{"BoundingBoxMax":[6.827060222625732,2.8332700729370119,7.067170143127441],"BoundingBoxMin":[-6.827060222625732,-1.4286400079727173,-7.0271501541137699],"MajorVersion":4,"MinorVersion":4,"UseCheckerboardMaterialForMissingTextures":true,"UseOnlyFilenameForImageURI":true}}},"bufferViews":[{"buffer":0,"byteLength":128,"byteStride":4},{"buffer":0,"byteLength":144,"byteStride":12,"byteOffset":128},{"buffer":0,"byteLength":320,"byteStride":16,"byteOffset":272},{"buffer":0,"byteLength":7632,"byteStride":36,"byteOffset":592,"target":34962,"name":"BufferViewVertexND"},{"buffer":0,"byteLength":756,"byteOffset":8224,"target":34963,"name":"BufferViewIndex"}],"extensionsRequired":["MSFT_texture_dds"],"materials":[{"name":"material00","occlusionTexture":{"index":1},"emissiveTexture":{"index":2},"emissiveFactor":[1.0,1.0,1.0],"pbrMetallicRoughness":{"baseColorTexture":{"index":0},"metallicRoughnessTexture":{"index":1}},"extensions":{"ASOBO_material_day_night_switch":{}}}],"meshes":[{"primitives":[{"attributes":{"COLOR_0":17,"NORMAL":14,"POSITION":12,"TANGENT":13,"TEXCOORD_0":15,"TEXCOORD_1":16},"indices":18,"material":0,"mode":4,"extras":{"ASOBO_primitive":{"PrimitiveCount":86,"VertexType":"VTX","VertexVersion":2}}}],"name":"part000"},{"primitives":[{"attributes":{"COLOR_0":24,"NORMAL":21,"POSITION":19,"TANGENT":20,"TEXCOORD_0":22,"TEXCOORD_1":23},"indices":25,"material":0,"mode":4,"extras":{"ASOBO_primitive":{"PrimitiveCount":8,"VertexType":"VTX","VertexVersion":2}}}],"name":"part001"},{"primitives":[{"attributes":{"COLOR_0":31,"NORMAL":28,"POSITION":26,"TANGENT":27,"TEXCOORD_0":29,"TEXCOORD_1":30},"indices":32,"material":0,"mode":4,"extras":{"ASOBO_primitive":{"PrimitiveCount":12,"VertexType":"VTX","VertexVersion":2}}}],"name":"part002"},{"primitives":[{"attributes":{"COLOR_0":38,"NORMAL":35,"POSITION":33,"TANGENT":34,"TEXCOORD_0":36,"TEXCOORD_1":37},"indices":39,"material":0,"mode":4,"extras":{"ASOBO_primitive":{"PrimitiveCount":8,"VertexType":"VTX","VertexVersion":2}}}],"name":"part003"},{"primitives":[{"attributes":{"COLOR_0":45,"NORMAL":42,"POSITION":40,"TANGENT":41,"TEXCOORD_0":43,"TEXCOORD_1":44},"indices":46,"material":0,"mode":4,"extras":{"ASOBO_primitive":{"PrimitiveCount":12,"VertexType":"VTX","VertexVersion":2}}}],"name":"part004"}],"nodes":[{"name":"node0","children":[1,2,3,4,5,6,7,8,9,10,11,12,13,14,15,16,17,18,19,20,21,22,23,24,25,26,27,28]},{"mesh":0,"name":"node1"},{"translation":[1.2500000000000005,0.25,-3.3],"rotation":[-6.123031769111886e-17,3.061515884555943e-17,1.0,1.874575902277672e-33],"scale":[1.0,1.0,1.0],"name":"contrail1"},{"translation":[0.28000000119209259,-1.2599999904632569,2.549999952316284],"rotation":[0.07195270508740066,0.6845837279882425,0.7214006426717834,-0.07582229201041792],"scale":[1.0,1.0,1.0],"name":"taxi_l"},{"translation":[-0.28000000119209325,-1.2599999904632569,2.549999952316284],"rotation":[-0.07195270508740073,0.6845837279882425,0.7214006426717834,0.07582229201041799],"scale":[1.0,1.0,1.0],"name":"taxi_r"},{"translation":[0.28000000119209259,-1.2599999904632569,2.549999952316284],"rotation":[-4.329637285359677e-17,0.7071067811865475,0.7071067811865475,4.329637285359677e-17],"scale":[1.0,1.0,1.0],"name":"landing_l"},{"translation":[-0.28000000119209325,-1.2599999904632569,2.549999952316284],"rotation":[-4.329637285359677e-17,0.7071067811865475,0.7071067811865475,4.329637285359677e-17],"scale":[1.0,1.0,1.0],"name":"landing_r"},{"translation":[-1.2499999999999996,0.25,-3.3],"rotation":[-6.123031769111886e-17,3.061515884555943e-17,1.0,1.874575902277672e-33],"scale":[1.0,1.0,1.0],"name":"contrail2"},{"translation":[-3.732600166450607e-17,0.3048,0.3048],"rotation":[-4.329637285359677e-17,0.7071067811865475,0.7071067811865475,4.329637285359677e-17],"scale":[1.0,1.0,1.0],"name":"node11"},{"translation":[6.723888,-0.8382,-0.9143999999999992],"rotation":[-4.329637285359677e-17,0.7071067811865475,0.7071067811865475,4.329637285359677e-17],"scale":[1.0,1.0,1.0],"name":"node12"},{"translation":[-6.723888,-0.8382,-0.9052560000000008],"rotation":[-4.329637285359677e-17,0.7071067811865475,0.7071067811865475,4.329637285359677e-17],"scale":[1.0,1.0,1.0],"name":"node13"},{"translation":[6.754368,-0.8382,-0.9845039999999992],"rotation":[-4.329637285359677e-17,0.7071067811865475,0.7071067811865475,4.329637285359677e-17],"scale":[1.0,1.0,1.0],"name":"node14"},{"translation":[-6.754368,-0.85344,-0.9662160000000009],"rotation":[-4.329637285359677e-17,0.7071067811865475,0.7071067811865475,4.329637285359677e-17],"scale":[1.0,1.0,1.0],"name":"node15"},{"translation":[-3.213768743313971e-16,-1.222248,2.624328],"rotation":[-4.329637285359677e-17,0.7071067811865475,0.7071067811865475,4.329637285359677e-17],"scale":[1.0,1.0,1.0],"name":"node16"},{"translation":[7.032218713592941e-16,0.5394960000000001,-5.742432],"rotation":[-4.329637285359677e-17,0.7071067811865475,0.7071067811865475,4.329637285359677e-17],"scale":[1.0,1.0,1.0],"name":"node17"},{"translation":[-8.942451500777369e-16,-2.1336,7.30230696],"rotation":[-4.329637285359677e-17,0.7071067811865475,0.7071067811865475,4.329637285359677e-17],"scale":[1.0,1.0,1.0],"name":"node18"},{"translation":[1.8897295200000004,-2.25552,-1.1866473599999999],"rotation":[-4.329637285359677e-17,0.7071067811865475,0.7071067811865475,4.329637285359677e-17],"scale":[1.0,1.0,1.0],"name":"node19"},{"translation":[-1.88972952,-2.25552,-1.1868912000000005],"rotation":[-4.329637285359677e-17,0.7071067811865475,0.7071067811865475,4.329637285359677e-17],"scale":[1.0,1.0,1.0],"name":"node20"},{"translation":[8.19912,0.1524,-2.133599999999999],"rotation":[-4.329637285359677e-17,0.7071067811865475,0.7071067811865475,4.329637285359677e-17],"scale":[1.0,1.0,1.0],"name":"node21"},{"translation":[-8.19912,0.1524,-2.133600000000001],"rotation":[-4.329637285359677e-17,0.7071067811865475,0.7071067811865475,4.329637285359677e-17],"scale":[1.0,1.0,1.0],"name":"node22"},{"translation":[8.510328379507382e-16,1.0668,-6.949440000000001],"rotation":[-4.329637285359677e-17,0.7071067811865475,0.7071067811865475,4.329637285359677e-17],"scale":[1.0,1.0,1.0],"name":"node23"},{"translation":[-1.0712562477713239e-15,0.21336,8.74776],"rotation":[-4.329637285359677e-17,0.7071067811865475,0.7071067811865475,4.329637285359677e-17],"scale":[1.0,1.0,1.0],"name":"node24"},{"translation":[-3.732600166450607e-17,-0.3048,0.3048],"rotation":[-4.329637285359677e-17,0.7071067811865475,0.7071067811865475,4.329637285359677e-17],"scale":[1.0,1.0,1.0],"name":"node25"},{"translation":[2.4384,-0.3048,2.986080133160485e-16],"rotation":[-4.329637285359677e-17,0.7071067811865475,0.7071067811865475,4.329637285359677e-17],"scale":[1.0,1.0,1.0],"name":"node26"},{"translation":[-2.4384,-0.3048,-2.986080133160485e-16],"rotation":[-4.329637285359677e-17,0.7071067811865475,0.7071067811865475,4.329637285359677e-17],"scale":[1.0,1.0,1.0],"name":"node27"},{"translation":[-7.465200332901214e-17,0.4572000000000001,0.6096],"rotation":[-4.329637285359677e-17,0.7071067811865475,0.7071067811865475,4.329637285359677e-17],"scale":[1.0,1.0,1.0],"name":"node28"},{"translation":[1.3716000000000004,0.3048,-2.1336],"rotation":[-4.329637285359677e-17,0.7071067811865475,0.7071067811865475,4.329637285359677e-17],"scale":[1.0,1.0,1.0],"name":"node29"},{"translation":[-1.3716,0.3048,-2.1336],"rotation":[-4.329637285359677e-17,0.7071067811865475,0.7071067811865475,4.329637285359677e-17],"scale":[1.0,1.0,1.0],"name":"node30"},{"translation":[0.0,0.0,0.0],"rotation":[-4.329637285359677e-17,0.7071067811865475,0.7071067811865475,4.329637285359677e-17],"scale":[1.0,1.0,1.0],"name":"node31","children":[29,37]},{"translation":[-0.990444004535675,-0.1150519996881485,-1.20353901386261],"rotation":[0.0,0.0,0.0,1.0],"scale":[1.0,1.0,1.0],"name":"node32","children":[30]},{"translation":[-0.17007599771022798,-0.07003100216388703,0.11105000227689745],"rotation":[0.0,0.0,0.0,1.0],"scale":[1.0,1.0,1.0],"name":"node33","children":[31]},{"mesh":1,"name":"node30_anim_l_gear","children":[32]},{"name":"node34","children":[33]},{"name":"node31_anim_l_gear","children":[34]},{"translation":[0.0,0.0,-0.22510099411010746],"rotation":[0.0,0.0,0.0,1.0],"scale":[1.0,1.0,1.0],"name":"node35","children":[35]},{"translation":[-0.221779003739357,0.0,-0.01465499959886074],"rotation":[0.0,0.0,0.0,1.0],"scale":[1.0,1.0,1.0],"name":"node36","children":[36]},{"mesh":2,"name":"node33_anim_tire_anim"},{"translation":[0.990444004535675,-0.1150519996881485,-1.2037030458450316],"rotation":[0.0,0.0,0.0,1.0],"scale":[1.0,1.0,1.0],"name":"node37","children":[38]},{"translation":[0.17007599771022798,-0.07003100216388703,0.11105000227689745],"rotation":[0.0,0.0,0.0,1.0],"scale":[1.0,1.0,1.0],"name":"node38","children":[39]},{"mesh":3,"name":"node35_anim_r_gear","children":[40]},{"name":"node39","children":[41]},{"name":"node36_anim_r_gear","children":[42]},{"translation":[0.0,0.0,-0.22510099411010746],"rotation":[0.0,0.0,0.0,1.0],"scale":[1.0,1.0,1.0],"name":"node40","children":[43]},{"translation":[0.221779003739357,0.0,-0.01465499959886074],"rotation":[0.0,0.0,0.0,1.0],"scale":[1.0,1.0,1.0],"name":"node41","children":[44]},{"mesh":4,"name":"node38_anim_tire_anim"}],"scene":0,"scenes":[{"nodes":[0]}],"textures":[{"extensions":{"MSFT_texture_dds":{"source":0}}},{"extensions":{"MSFT_texture_dds":{"source":1}}},{"extensions":{"MSFT_texture_dds":{"source":2}}}],"extensionsUsed":["ASOBO_material_day_night_switch","MSFT_texture_dds","ASOBO_asset_optimized"],"buffers":[{"byteLength":8980,"uri":"SBAI_Beechcraft_Premier1A_MSFS_LOD1.bin"}],"images":[{"uri":"SBAI_B_PREMIER_1A_T.PNG.DDS","extras":"ASOBO_image_converted_meta"},{"uri":"SBAI_B_PREMIER_1A_C.PNG.DDS","extras":"ASOBO_image_converted_meta"},{"uri":"SBAI_B_PREMIER_1A_L.PNG.DDS","extras":"ASOBO_image_converted_meta"}]}
