{"accessors":[{"bufferView":0,"componentType":5126,"count":3,"min":[0.0],"max":[100.0],"type":"SCALAR"},{"bufferView":1,"componentType":5126,"count":3,"type":"VEC3"},{"bufferView":2,"componentType":5126,"count":88,"min":[-17.91975975036621,-1.9201300144195557,-23.024770736694337],"max":[17.91975975036621,3.6936800479888918,4.452340126037598],"type":"VEC3","name":"part000_vertices#0_POSITION"},{"bufferView":2,"byteOffset":12,"componentType":5120,"count":88,"type":"VEC4","name":"part000_vertices#0_TANGENT"},{"bufferView":2,"byteOffset":16,"componentType":5120,"count":88,"type":"VEC4","name":"part000_vertices#0_NORMAL"},{"bufferView":2,"byteOffset":20,"componentType":5122,"count":88,"type":"VEC2","name":"part000_vertices#0_TEXCOORD_0"},{"bufferView":2,"byteOffset":24,"componentType":5122,"count":88,"type":"VEC2","name":"part000_vertices#0_TEXCOORD_1"},{"bufferView":2,"byteOffset":28,"componentType":5123,"count":88,"type":"VEC4","name":"part000_vertices#0_COLOR_0"},{"bufferView":3,"componentType":5123,"count":120,"type":"SCALAR","name":"part000_indices#0"},{"bufferView":2,"byteOffset":3168,"componentType":5126,"count":50,"min":[-17.19399070739746,-1.0240000486373902,-22.667499542236329],"max":[17.19399070739746,10.076000213623047,18.87466049194336],"type":"VEC3","name":"part001_vertices#0_POSITION"},{"bufferView":2,"byteOffset":3180,"componentType":5120,"count":50,"type":"VEC4","name":"part001_vertices#0_TANGENT"},{"bufferView":2,"byteOffset":3184,"componentType":5120,"count":50,"type":"VEC4","name":"part001_vertices#0_NORMAL"},{"bufferView":2,"byteOffset":3188,"componentType":5122,"count":50,"type":"VEC2","name":"part001_vertices#0_TEXCOORD_0"},{"bufferView":2,"byteOffset":3192,"componentType":5122,"count":50,"type":"VEC2","name":"part001_vertices#0_TEXCOORD_1"},{"bufferView":2,"byteOffset":3196,"componentType":5123,"count":50,"type":"VEC4","name":"part001_vertices#0_COLOR_0"},{"bufferView":3,"byteOffset":240,"componentType":5123,"count":90,"type":"SCALAR","name":"part001_indices#0"},{"bufferView":2,"byteOffset":4968,"componentType":5126,"count":16,"min":[-5.288760185241699,-1.4351600408554078,0.052400000393390658],"max":[5.288760185241699,0.4440799951553345,2.533250093460083],"type":"VEC3","name":"part002_vertices#0_POSITION"},{"bufferView":2,"byteOffset":4980,"componentType":5120,"count":16,"type":"VEC4","name":"part002_vertices#0_TANGENT"},{"bufferView":2,"byteOffset":4984,"componentType":5120,"count":16,"type":"VEC4","name":"part002_vertices#0_NORMAL"},{"bufferView":2,"byteOffset":4988,"componentType":5122,"count":16,"type":"VEC2","name":"part002_vertices#0_TEXCOORD_0"},{"bufferView":2,"byteOffset":4992,"componentType":5122,"count":16,"type":"VEC2","name":"part002_vertices#0_TEXCOORD_1"},{"bufferView":2,"byteOffset":4996,"componentType":5123,"count":16,"type":"VEC4","name":"part002_vertices#0_COLOR_0"},{"bufferView":3,"byteOffset":420,"componentType":5123,"count":24,"type":"SCALAR","name":"part002_indices#0"}],"animations":[{"name":"custom_anim_REV_THRUST","channels":[{"sampler":0,"target":{"node":25,"path":"translation"}}],"samplers":[{"input":0,"output":1,"interpolation":"LINEAR"}]}],"asset":{"generator":"ModelConverterX","version":"2.0","extensions":{"ASOBO_asset_optimized":{"BoundingBoxMax":[17.91975975036621,10.076000213623047,18.87466049194336],"BoundingBoxMin":[-17.91975975036621,-1.9201300144195557,-23.024770736694337],"MajorVersion":4,"MinorVersion":3,"UseCheckerboardMaterialForMissingTextures":true}}},"bufferViews":[{"buffer":0,"byteLength":12,"byteStride":4},{"buffer":0,"byteLength":36,"byteStride":12,"byteOffset":12},{"buffer":0,"byteLength":5544,"byteStride":36,"byteOffset":48,"target":34962,"name":"BufferViewVertexND"},{"buffer":0,"byteLength":468,"byteOffset":5592,"target":34963,"name":"BufferViewIndex"}],"extensionsRequired":["MSFT_texture_dds"],"materials":[{"name":"material00","occlusionTexture":{"index":1},"emissiveTexture":{"index":2},"emissiveFactor":[1.0,1.0,1.0],"pbrMetallicRoughness":{"baseColorTexture":{"index":0},"metallicRoughnessTexture":{"index":1}},"extensions":{"ASOBO_material_day_night_switch":{}}},{"name":"material01","occlusionTexture":{"index":4},"pbrMetallicRoughness":{"baseColorTexture":{"index":3},"metallicRoughnessTexture":{"index":4}}}],"meshes":[{"primitives":[{"attributes":{"COLOR_0":7,"NORMAL":4,"POSITION":2,"TANGENT":3,"TEXCOORD_0":5,"TEXCOORD_1":6},"indices":8,"material":1,"mode":4,"extras":{"ASOBO_primitive":{"PrimitiveCount":40,"VertexType":"VTX","VertexVersion":2}}}],"name":"part000"},{"primitives":[{"attributes":{"COLOR_0":14,"NORMAL":11,"POSITION":9,"TANGENT":10,"TEXCOORD_0":12,"TEXCOORD_1":13},"indices":15,"material":0,"mode":4,"extras":{"ASOBO_primitive":{"PrimitiveCount":30,"VertexType":"VTX","VertexVersion":2}}}],"name":"part001"},{"primitives":[{"attributes":{"COLOR_0":21,"NORMAL":18,"POSITION":16,"TANGENT":17,"TEXCOORD_0":19,"TEXCOORD_1":20},"indices":22,"material":1,"mode":4,"extras":{"ASOBO_primitive":{"PrimitiveCount":8,"VertexType":"VTX","VertexVersion":2}}}],"name":"part002"}],"nodes":[{"name":"node0","children":[1,2,3,4,5,6,7,8,9,10,11,12,13,14,15,16,17,18,19,20,21,22,23]},{"mesh":0,"name":"node1"},{"mesh":1,"name":"node2"},{"translation":[1.0531614818053787e-16,-1.1399999856948853,-0.8600000143051148],"rotation":[-4.329637285359677e-17,0.7071067811865476,0.7071067811865475,4.329637285359677e-17],"scale":[1.0,1.0,1.0],"name":"beacon_belly"},{"translation":[16.43000030517578,1.5499999523162842,-5.429999828338621],"rotation":[-4.329637285359677e-17,0.7071067811865476,0.7071067811865475,4.329637285359677e-17],"scale":[1.0,1.0,1.0],"name":"wing_r_nav"},{"translation":[-16.43000030517578,1.5499999523162842,-5.429999828338625],"rotation":[-4.329637285359677e-17,0.7071067811865476,0.7071067811865475,4.329637285359677e-17],"scale":[1.0,1.0,1.0],"name":"wing_l_nav"},{"translation":[0.3600000143051174,2.2300000190734865,-21.940000534057618],"rotation":[0.640856466500338,0.2988360576381323,0.2988360576381323,-0.6408564665003381],"scale":[1.0,1.0,1.0],"name":"strobe_tail_l"},{"translation":[-0.3600000143051121,2.2300000190734865,-21.940000534057618],"rotation":[0.6408564665003382,-0.2988360576381322,-0.2988360576381322,-0.6408564665003381],"scale":[1.0,1.0,1.0],"name":"strobe_tail_r"},{"translation":[0.3600000143051174,2.2300000190734865,-21.940000534057618],"rotation":[0.640856466500338,0.2988360576381323,0.2988360576381323,-0.6408564665003381],"scale":[1.0,1.0,1.0],"name":"navwhi_tail_l"},{"translation":[-0.3600000143051121,2.2300000190734865,-21.940000534057618],"rotation":[0.6408564665003382,-0.2988360576381322,-0.2988360576381322,-0.6408564665003381],"scale":[1.0,1.0,1.0],"name":"navwhi_tail_r"},{"translation":[16.8700008392334,1.4700000286102296,-6.030000209808348],"rotation":[0.18301277579014578,0.6830126820913255,0.6830126820913254,-0.18301277579014578],"scale":[1.0,1.0,1.0],"name":"strobe_l"},{"translation":[-16.8700008392334,1.4700000286102296,-6.030000209808351],"rotation":[-0.1830127757901458,0.6830126820913254,0.6830126820913253,0.1830127757901458],"scale":[1.0,1.0,1.0],"name":"strobe_r"},{"translation":[4.449999809265139,2.75,-21.670000076293947],"rotation":[-0.12278786432584672,0.6963640766090102,0.38511794913046529,0.5930298293006201],"scale":[1.0,1.0,1.0],"name":"logo_l"},{"translation":[-4.449999809265134,2.75,-21.670000076293947],"rotation":[0.12278786432584664,0.6963640766090102,0.3851179491304651,-0.5930298293006199],"scale":[1.0,1.0,1.0],"name":"logo_r"},{"translation":[-1.6164804512786976e-16,3.130000114440918,1.3200000524520875],"rotation":[-4.329637285359677e-17,0.7071067811865476,0.7071067811865475,4.329637285359677e-17],"scale":[1.0,1.0,1.0],"name":"beacon_top"},{"translation":[2.1800000667572019,0.15000000596046449,2.9500000476837164],"rotation":[0.14622442345406537,0.6595758762858928,0.7198010825806367,-0.15957594719432534],"scale":[1.0,1.0,1.0],"name":"landing_l2"},{"translation":[2.1300001144409177,0.15000000596046449,3.0000000000000006],"rotation":[-0.0706193810652308,-0.6718873458735817,-0.7332404004197106,0.0770636922633507],"scale":[1.0,1.0,1.0],"name":"landing_l1"},{"translation":[2.1300001144409177,0.15000000596046449,3.0000000000000006],"rotation":[-0.0706193810652308,-0.6718873458735817,-0.7332404004197106,0.0770636922633507],"scale":[1.0,1.0,1.0],"name":"taxi_l"},{"translation":[-2.1300001144409186,0.15000000596046449,2.9999999999999997],"rotation":[-0.07061938106523072,0.6718873458735816,0.7332404004197105,0.07706369226335062],"scale":[1.0,1.0,1.0],"name":"taxi_r"},{"translation":[-2.1300001144409186,0.15000000596046449,2.9999999999999997],"rotation":[-0.07061938106523072,0.6718873458735816,0.7332404004197105,0.07706369226335062],"scale":[1.0,1.0,1.0],"name":"landing_r1"},{"translation":[-2.1800000667572028,0.15000000596046449,2.9500000476837155],"rotation":[-0.14622442345406545,0.6595758762858929,0.7198010825806366,0.15957594719432545],"scale":[1.0,1.0,1.0],"name":"landing_r2"},{"translation":[5.05,-0.79,-1.1999999999999994],"rotation":[-6.123031769111886e-17,3.061515884555943e-17,1.0,1.874575902277672e-33],"scale":[1.0,1.0,1.0],"name":"contrail1"},{"translation":[-5.05,-0.79,-1.2000000000000007],"rotation":[-6.123031769111886e-17,3.061515884555943e-17,1.0,1.874575902277672e-33],"scale":[1.0,1.0,1.0],"name":"contrail2"},{"translation":[0.0,0.0,0.0],"rotation":[-4.329637285359677e-17,0.7071067811865476,0.7071067811865475,4.329637285359677e-17],"scale":[1.0,1.0,1.0],"name":"node26","children":[24]},{"translation":[0.0,1.8062200546264649,-1.9725279808044432],"rotation":[0.0,0.0,0.0,1.0],"scale":[1.0,1.0,1.0],"name":"node74","children":[25]},{"name":"node24_anim_custom_anim_REV_THRUST","children":[26]},{"mesh":2,"name":"node75"}],"scene":0,"scenes":[{"nodes":[0]}],"textures":[{"extensions":{"MSFT_texture_dds":{"source":0}}},{"extensions":{"MSFT_texture_dds":{"source":1}}},{"extensions":{"MSFT_texture_dds":{"source":2}}},{"extensions":{"MSFT_texture_dds":{"source":3}}},{"extensions":{"MSFT_texture_dds":{"source":4}}}],"extensionsUsed":["ASOBO_material_day_night_switch","MSFT_texture_dds","ASOBO_asset_optimized"],"buffers":[{"byteLength":6060,"uri":"AIA_737-9_MAX_MSFS_LOD1.bin"}],"images":[{"uri":"AIA_737_900_MAX_T.PNG.DDS","extras":"ASOBO_image_converted_meta"},{"uri":"AIA_737_900_MAX_C.PNG.DDS","extras":"ASOBO_image_converted_meta"},{"uri":"AIA_737_900_MAX_L.PNG.DDS","extras":"ASOBO_image_converted_meta"},{"uri":"AIA_737_MAX_T.PNG.DDS","extras":"ASOBO_image_converted_meta"},{"uri":"AIA_737_MAX_C.PNG.DDS","extras":"ASOBO_image_converted_meta"}]}
