{"accessors":[{"bufferView":0,"componentType":5126,"count":2,"min":[0.0],"max":[100.0],"type":"SCALAR"},{"bufferView":1,"componentType":5126,"count":2,"type":"VEC3"},{"bufferView":0,"byteOffset":8,"componentType":5126,"count":2,"min":[0.0],"max":[100.0],"type":"SCALAR"},{"bufferView":2,"componentType":5126,"count":2,"type":"VEC4"},{"bufferView":0,"byteOffset":16,"componentType":5126,"count":2,"min":[0.0],"max":[100.0],"type":"SCALAR"},{"bufferView":1,"byteOffset":24,"componentType":5126,"count":2,"type":"VEC3"},{"bufferView":0,"byteOffset":24,"componentType":5126,"count":2,"min":[0.0],"max":[100.0],"type":"SCALAR"},{"bufferView":2,"byteOffset":32,"componentType":5126,"count":2,"type":"VEC4"},{"bufferView":3,"componentType":5126,"count":86,"min":[-6.6034698486328129,-0.5181599855422974,-8.043760299682618],"max":[6.603489875793457,3.114449977874756,6.521500110626221],"type":"VEC3","name":"part000_vertices#0_POSITION"},{"bufferView":3,"byteOffset":12,"componentType":5120,"count":86,"type":"VEC4","name":"part000_vertices#0_TANGENT"},{"bufferView":3,"byteOffset":16,"componentType":5120,"count":86,"type":"VEC4","name":"part000_vertices#0_NORMAL"},{"bufferView":3,"byteOffset":20,"componentType":5122,"count":86,"type":"VEC2","name":"part000_vertices#0_TEXCOORD_0"},{"bufferView":3,"byteOffset":24,"componentType":5122,"count":86,"type":"VEC2","name":"part000_vertices#0_TEXCOORD_1"},{"bufferView":3,"byteOffset":28,"componentType":5123,"count":86,"type":"VEC4","name":"part000_vertices#0_COLOR_0"},{"bufferView":4,"componentType":5123,"count":168,"type":"SCALAR","name":"part000_indices#0"}],"animations":[{"name":"beechjet_lights_v2","channels":[{"sampler":0,"target":{"node":23,"path":"translation"}},{"sampler":1,"target":{"node":25,"path":"rotation"}}],"samplers":[{"input":0,"output":1,"interpolation":"LINEAR"},{"input":2,"output":3,"interpolation":"LINEAR"}]},{"name":"custom_anim_LIGHT_LANDING_00","channels":[{"sampler":0,"target":{"node":29,"path":"translation"}},{"sampler":1,"target":{"node":31,"path":"rotation"}}],"samplers":[{"input":4,"output":5,"interpolation":"LINEAR"},{"input":6,"output":7,"interpolation":"LINEAR"}]}],"asset":{"generator":"ModelConverterX","version":"2.0","extensions":{"ASOBO_asset_optimized":{"BoundingBoxMax":[6.603489875793457,3.114449977874756,6.521500110626221],"BoundingBoxMin":[-6.6034698486328129,-0.5181599855422974,-8.043760299682618],"MajorVersion":4,"MinorVersion":3,"UseCheckerboardMaterialForMissingTextures":true}}},"bufferViews":[{"buffer":0,"byteLength":32,"byteStride":4},{"buffer":0,"byteLength":48,"byteStride":12,"byteOffset":32},{"buffer":0,"byteLength":64,"byteStride":16,"byteOffset":80},{"buffer":0,"byteLength":3096,"byteStride":36,"byteOffset":144,"target":34962,"name":"BufferViewVertexND"},{"buffer":0,"byteLength":336,"byteOffset":3240,"target":34963,"name":"BufferViewIndex"}],"extensionsRequired":["MSFT_texture_dds"],"materials":[{"name":"material00","occlusionTexture":{"index":1},"emissiveTexture":{"index":2},"emissiveFactor":[1.0,1.0,1.0],"pbrMetallicRoughness":{"baseColorTexture":{"index":0},"metallicRoughnessTexture":{"index":1}},"extensions":{"ASOBO_material_day_night_switch":{}}}],"meshes":[{"primitives":[{"attributes":{"COLOR_0":13,"NORMAL":10,"POSITION":8,"TANGENT":9,"TEXCOORD_0":11,"TEXCOORD_1":12},"indices":14,"material":0,"mode":4,"extras":{"ASOBO_primitive":{"PrimitiveCount":56,"VertexType":"VTX","VertexVersion":2}}}],"name":"part000"}],"nodes":[{"name":"node0","children":[1,2,3,4,5,6,7,8,9,10,11,12,13,14,15,16,17,18,19,20,21]},{"mesh":0,"name":"node1"},{"translation":[1.2700000000000005,0.67,-4.0],"rotation":[-6.123031769111886e-17,3.061515884555943e-17,1.0,1.874575902277672e-33],"scale":[1.0,1.0,1.0],"name":"contrail1"},{"translation":[-1.2699999999999996,0.67,-4.0],"rotation":[-6.123031769111886e-17,3.061515884555943e-17,1.0,1.874575902277672e-33],"scale":[1.0,1.0,1.0],"name":"contrail2"},{"translation":[-6.718680299611078e-17,0.0,0.5486399999999989],"rotation":[-4.329637285359677e-17,0.7071067811865476,0.7071067811865475,4.329637285359677e-17],"scale":[1.0,1.0,1.0],"name":"node19"},{"translation":[6.583680000000001,-0.012192,-1.554479999999999],"rotation":[-4.329637285359677e-17,0.7071067811865476,0.7071067811865475,4.329637285359677e-17],"scale":[1.0,1.0,1.0],"name":"node20"},{"translation":[-6.583680000000001,-0.012192,-1.5544800000000008],"rotation":[-4.329637285359677e-17,0.7071067811865476,0.7071067811865475,4.329637285359677e-17],"scale":[1.0,1.0,1.0],"name":"node21"},{"translation":[9.480804422784535e-16,3.0693360000000005,-7.741919999999999],"rotation":[-4.329637285359677e-17,0.7071067811865476,0.7071067811865475,4.329637285359677e-17],"scale":[1.0,1.0,1.0],"name":"node22"},{"translation":[8.323698371184848e-16,3.2004,-6.797039999999997],"rotation":[-4.329637285359677e-17,0.7071067811865476,0.7071067811865475,4.329637285359677e-17],"scale":[1.0,1.0,1.0],"name":"node23"},{"translation":[6.583680000000001,-0.012192,-1.5697199999999976],"rotation":[-4.329637285359677e-17,0.7071067811865476,0.7071067811865475,4.329637285359677e-17],"scale":[1.0,1.0,1.0],"name":"node24"},{"translation":[-6.583680000000001,-0.012192,-1.5697199999999992],"rotation":[-4.329637285359677e-17,0.7071067811865476,0.7071067811865475,4.329637285359677e-17],"scale":[1.0,1.0,1.0],"name":"node25"},{"translation":[-6.1587902746435e-16,-1.0668,5.0292],"rotation":[-4.329637285359677e-17,0.7071067811865476,0.7071067811865475,4.329637285359677e-17],"scale":[1.0,1.0,1.0],"name":"node26"},{"translation":[1.2801600000000002,-1.164336,-0.7620000000000003],"rotation":[-4.329637285359677e-17,0.7071067811865476,0.7071067811865475,4.329637285359677e-17],"scale":[1.0,1.0,1.0],"name":"node27"},{"translation":[-1.2801600000000002,-1.164336,-0.7620000000000007],"rotation":[-4.329637285359677e-17,0.7071067811865476,0.7071067811865475,4.329637285359677e-17],"scale":[1.0,1.0,1.0],"name":"node28"},{"translation":[2.5754941148509168e-16,-0.4572000000000001,-2.1031199999999989],"rotation":[-4.329637285359677e-17,0.7071067811865476,0.7071067811865475,4.329637285359677e-17],"scale":[1.0,1.0,1.0],"name":"node29"},{"translation":[3.048,-0.4572000000000001,-0.5486399999999986],"rotation":[-4.329637285359677e-17,0.7071067811865476,0.7071067811865475,4.329637285359677e-17],"scale":[1.0,1.0,1.0],"name":"node30"},{"translation":[-3.048,-0.4572000000000001,-0.5486399999999992],"rotation":[-4.329637285359677e-17,0.7071067811865476,0.7071067811865475,4.329637285359677e-17],"scale":[1.0,1.0,1.0],"name":"node31"},{"translation":[0.36575999999999939,0.0,5.3340000000000009],"rotation":[-4.329637285359677e-17,0.7071067811865476,0.7071067811865475,4.329637285359677e-17],"scale":[1.0,1.0,1.0],"name":"node32"},{"translation":[-0.3657600000000007,0.0,5.3340000000000009],"rotation":[-4.329637285359677e-17,0.7071067811865476,0.7071067811865475,4.329637285359677e-17],"scale":[1.0,1.0,1.0],"name":"node33"},{"translation":[1.4630400000000004,0.24384000000000004,-2.5298399999999985],"rotation":[-4.329637285359677e-17,0.7071067811865476,0.7071067811865475,4.329637285359677e-17],"scale":[1.0,1.0,1.0],"name":"node34"},{"translation":[-1.46304,0.24384000000000004,-2.5298399999999985],"rotation":[-4.329637285359677e-17,0.7071067811865476,0.7071067811865475,4.329637285359677e-17],"scale":[1.0,1.0,1.0],"name":"node35"},{"translation":[0.0,0.0,0.0],"rotation":[-4.329637285359677e-17,0.7071067811865476,0.7071067811865475,4.329637285359677e-17],"scale":[1.0,1.0,1.0],"name":"node36","children":[22,28]},{"name":"node174","children":[23]},{"name":"node22_anim_beechjet_lights_v2","children":[24]},{"name":"node176","children":[25]},{"name":"node23_anim_beechjet_lights_v2","children":[26,27]},{"translation":[0.0,0.05000000074505806,0.0],"rotation":[0.0,0.0,0.0,1.0],"scale":[1.0,1.0,1.0],"name":"landing_r"},{"translation":[0.0,0.03,0.0],"rotation":[0.0,0.0,0.0,1.0],"scale":[1.0,1.0,1.0],"name":"taxi_r"},{"name":"node184","children":[29]},{"name":"node26_anim_custom_anim_LIGHT_LANDING_00","children":[30]},{"name":"node186","children":[31]},{"name":"node27_anim_custom_anim_LIGHT_LANDING_00","children":[32,33]},{"translation":[0.0,0.03,0.0],"rotation":[0.0,0.0,0.0,1.0],"scale":[1.0,1.0,1.0],"name":"landing_l"},{"translation":[0.0,0.03,0.0],"rotation":[0.0,0.0,0.0,1.0],"scale":[1.0,1.0,1.0],"name":"taxi_l"}],"scene":0,"scenes":[{"nodes":[0]}],"textures":[{"extensions":{"MSFT_texture_dds":{"source":0}}},{"extensions":{"MSFT_texture_dds":{"source":1}}},{"extensions":{"MSFT_texture_dds":{"source":2}}}],"extensionsUsed":["ASOBO_material_day_night_switch","MSFT_texture_dds","ASOBO_asset_optimized"],"buffers":[{"byteLength":3576,"uri":"HTAI Raytheon Hawker 400XP MSFS_LOD2.bin"}],"images":[{"uri":"400XP.PNG.DDS","extras":"ASOBO_image_converted_meta"},{"uri":"400XP_C.PNG.DDS","extras":"ASOBO_image_converted_meta"},{"uri":"CABIN_LIGHTS.PNG.DDS","extras":"ASOBO_image_converted_meta"}]}
