{"accessors":[{"bufferView":0,"componentType":5126,"count":100,"min":[-9.404239654541016,-0.7358099818229675,-9.77322006225586],"max":[9.392049789428711,4.729569911956787,10.796879768371582],"type":"VEC3","name":"part000_vertices#0_POSITION"},{"bufferView":0,"byteOffset":12,"componentType":5120,"count":100,"type":"VEC4","name":"part000_vertices#0_TANGENT"},{"bufferView":0,"byteOffset":16,"componentType":5120,"count":100,"type":"VEC4","name":"part000_vertices#0_NORMAL"},{"bufferView":0,"byteOffset":20,"componentType":5122,"count":100,"type":"VEC2","name":"part000_vertices#0_TEXCOORD_0"},{"bufferView":0,"byteOffset":24,"componentType":5122,"count":100,"type":"VEC2","name":"part000_vertices#0_TEXCOORD_1"},{"bufferView":0,"byteOffset":28,"componentType":5123,"count":100,"type":"VEC4","name":"part000_vertices#0_COLOR_0"},{"bufferView":1,"componentType":5123,"count":132,"type":"SCALAR","name":"part000_indices#0"}],"asset":{"generator":"ModelConverterX","version":"2.0","extensions":{"ASOBO_asset_optimized":{"BoundingBoxMax":[9.392049789428711,4.729569911956787,10.796879768371582],"BoundingBoxMin":[-9.404239654541016,-0.7358099818229675,-9.77322006225586],"MajorVersion":4,"MinorVersion":3,"UseCheckerboardMaterialForMissingTextures":true}}},"bufferViews":[{"buffer":0,"byteLength":3600,"byteStride":36,"target":34962,"name":"BufferViewVertexND"},{"buffer":0,"byteLength":264,"byteOffset":3600,"target":34963,"name":"BufferViewIndex"}],"extensionsRequired":["MSFT_texture_dds"],"materials":[{"name":"material00","occlusionTexture":{"index":1},"emissiveTexture":{"index":2},"emissiveFactor":[1.0,1.0,1.0],"pbrMetallicRoughness":{"baseColorTexture":{"index":0},"metallicRoughnessTexture":{"index":1}},"extensions":{"ASOBO_material_day_night_switch":{}}}],"meshes":[{"primitives":[{"attributes":{"COLOR_0":5,"NORMAL":2,"POSITION":0,"TANGENT":1,"TEXCOORD_0":3,"TEXCOORD_1":4},"indices":6,"material":0,"mode":4,"extras":{"ASOBO_primitive":{"PrimitiveCount":44,"VertexType":"VTX","VertexVersion":2}}}],"name":"part000"}],"nodes":[{"name":"node0","children":[1,2,3,4,5,6,7,8,9,10,11,12,13,14,15,16,17,18,19,20,21,22,23,24,25,26,27,28,29,30,31,32,33,34,35,36,37,38,39,40,41,42,43,44,45,46,47,48,49,50,51]},{"mesh":0,"name":"node1"},{"translation":[1.3500000238418584,1.0900000333786014,-3.0999999046325685],"rotation":[-0.4999999834551986,0.5000001334111016,-0.06162807483410671,0.704415973360857],"scale":[1.0,1.0,1.0],"name":"logo_l"},{"translation":[-1.3500000238418577,1.0900000333786014,-3.0999999046325685],"rotation":[0.4999999834551986,0.5000001334111015,-0.061628074834106708,-0.704415973360857],"scale":[1.0,1.0,1.0],"name":"logo_r"},{"translation":[-1.779999971389771,-0.5600000023841858,3.5999999046325685],"rotation":[-0.06162841671621902,0.7044160264027587,0.7044160264027587,0.061628416716219009],"scale":[1.0,1.0,1.0],"name":"landing_r2"},{"translation":[1.830000042915344,-0.5600000023841858,3.599999904632569],"rotation":[-0.0616284167162191,-0.7044160264027588,-0.7044160264027588,0.06162841671621909],"scale":[1.0,1.0,1.0],"name":"landing_l2"},{"translation":[-0.15000000596046576,-0.3499999940395355,10.4399995803833],"rotation":[-4.329637285359677e-17,0.7071067811865476,0.7071067811865475,4.329637285359677e-17],"scale":[1.0,1.0,1.0],"name":"landing_nose_r"},{"translation":[0.1500000059604632,-0.3499999940395355,10.4399995803833],"rotation":[-4.329637285359677e-17,0.7071067811865476,0.7071067811865475,4.329637285359677e-17],"scale":[1.0,1.0,1.0],"name":"landing_nose_l"},{"translation":[1.7099999999999996,-0.58,3.66],"rotation":[0.0922959556412572,0.7010573846499779,0.7010573846499779,-0.0922959556412572],"scale":[1.0,1.0,1.0],"name":"landing_l1"},{"translation":[-1.6700000000000004,-0.58,3.66],"rotation":[-0.0922959556412573,0.7010573846499779,0.7010573846499779,0.0922959556412573],"scale":[1.0,1.0,1.0],"name":"landing_r1"},{"translation":[2.140000000000001,1.19,-4.05],"rotation":[-6.123031769111886e-17,3.061515884555943e-17,1.0,1.874575902277672e-33],"scale":[1.0,1.0,1.0],"name":"contrail1"},{"translation":[-2.1399999999999999,1.19,-4.05],"rotation":[-6.123031769111886e-17,3.061515884555943e-17,1.0,1.874575902277672e-33],"scale":[1.0,1.0,1.0],"name":"contrail2"},{"translation":[-1.5863550707415085e-16,0.0,1.2954000000000008],"rotation":[-4.329637285359677e-17,0.7071067811865476,0.7071067811865475,4.329637285359677e-17],"scale":[1.0,1.0,1.0],"name":"node17"},{"translation":[9.41832,-0.1524,-0.9753599999999992],"rotation":[-4.329637285359677e-17,0.7071067811865476,0.7071067811865475,4.329637285359677e-17],"scale":[1.0,1.0,1.0],"name":"node18"},{"translation":[-9.41832,-0.1524,-0.9753600000000012],"rotation":[-4.329637285359677e-17,0.7071067811865476,0.7071067811865475,4.329637285359677e-17],"scale":[1.0,1.0,1.0],"name":"node19"},{"translation":[-9.4488,-0.1524,-1.0668],"rotation":[-4.329637285359677e-17,0.7071067811865476,0.7071067811865475,4.329637285359677e-17],"scale":[1.0,1.0,1.0],"name":"node20"},{"translation":[9.4488,-0.1524,-1.0667999999999978],"rotation":[-4.329637285359677e-17,0.7071067811865476,0.7071067811865475,4.329637285359677e-17],"scale":[1.0,1.0,1.0],"name":"node21"},{"translation":[1.1466547711336262e-15,4.383024000000001,-9.363456],"rotation":[-4.329637285359677e-17,0.7071067811865476,0.7071067811865475,4.329637285359677e-17],"scale":[1.0,1.0,1.0],"name":"node22"},{"translation":[1.866300083225304e-17,-0.85344,-0.1524000000000001],"rotation":[-4.329637285359677e-17,0.7071067811865476,0.7071067811865475,4.329637285359677e-17],"scale":[1.0,1.0,1.0],"name":"node23"},{"translation":[9.749551634768978e-16,0.969264,-7.961376],"rotation":[-4.329637285359677e-17,0.7071067811865476,0.7071067811865475,4.329637285359677e-17],"scale":[1.0,1.0,1.0],"name":"node24"},{"translation":[9.779412436100589e-16,4.7304960000000009,-7.985760000000002],"rotation":[-4.329637285359677e-17,0.7071067811865476,0.7071067811865475,4.329637285359677e-17],"scale":[1.0,1.0,1.0],"name":"node25"},{"translation":[-1.7861280000000007,-0.57912,3.5814000000000005],"rotation":[-4.329637285359677e-17,0.7071067811865476,0.7071067811865475,4.329637285359677e-17],"scale":[1.0,1.0,1.0],"name":"node26"},{"translation":[-1.6428720000000004,-0.5913120000000001,3.685032000000001],"rotation":[-4.329637285359677e-17,0.7071067811865476,0.7071067811865475,4.329637285359677e-17],"scale":[1.0,1.0,1.0],"name":"node27"},{"translation":[1.837944,-0.576072,3.5661600000000006],"rotation":[-4.329637285359677e-17,0.7071067811865476,0.7071067811865475,4.329637285359677e-17],"scale":[1.0,1.0,1.0],"name":"node28"},{"translation":[1.6855439999999998,-0.5913120000000001,3.669792],"rotation":[-4.329637285359677e-17,0.7071067811865476,0.7071067811865475,4.329637285359677e-17],"scale":[1.0,1.0,1.0],"name":"node29"},{"translation":[-0.14020800000000128,-0.33528,10.48512],"rotation":[-4.329637285359677e-17,0.7071067811865476,0.7071067811865475,4.329637285359677e-17],"scale":[1.0,1.0,1.0],"name":"node30"},{"translation":[0.14020799999999873,-0.33528,10.482072],"rotation":[-4.329637285359677e-17,0.7071067811865476,0.7071067811865475,4.329637285359677e-17],"scale":[1.0,1.0,1.0],"name":"node31"},{"translation":[-1.0600584472719725e-15,-1.72212,8.656320000000001],"rotation":[-4.329637285359677e-17,0.7071067811865476,0.7071067811865475,4.329637285359677e-17],"scale":[1.0,1.0,1.0],"name":"node32"},{"translation":[1.4478,-1.79832,0.6231636],"rotation":[-4.329637285359677e-17,0.7071067811865476,0.7071067811865475,4.329637285359677e-17],"scale":[1.0,1.0,1.0],"name":"node33"},{"translation":[-1.4478,-1.79832,0.6231635999999996],"rotation":[-4.329637285359677e-17,0.7071067811865476,0.7071067811865475,4.329637285359677e-17],"scale":[1.0,1.0,1.0],"name":"node34"},{"translation":[7.290816000000001,-0.9144,-1.0149839999999975],"rotation":[-4.329637285359677e-17,0.7071067811865476,0.7071067811865475,4.329637285359677e-17],"scale":[1.0,1.0,1.0],"name":"node35"},{"translation":[-7.290816000000001,-0.9144,-1.0149839999999993],"rotation":[-4.329637285359677e-17,0.7071067811865476,0.7071067811865475,4.329637285359677e-17],"scale":[1.0,1.0,1.0],"name":"node36"},{"translation":[8.461804577343524e-16,0.0,-6.909816000000001],"rotation":[-4.329637285359677e-17,0.7071067811865476,0.7071067811865475,4.329637285359677e-17],"scale":[1.0,1.0,1.0],"name":"node37"},{"translation":[-8.596178183335745e-16,-0.4572000000000001,7.019544000000001],"rotation":[-4.329637285359677e-17,0.7071067811865476,0.7071067811865475,4.329637285359677e-17],"scale":[1.0,1.0,1.0],"name":"node38"},{"translation":[2.5754941148509168e-16,-0.4572000000000001,-2.1031199999999989],"rotation":[-4.329637285359677e-17,0.7071067811865476,0.7071067811865475,4.329637285359677e-17],"scale":[1.0,1.0,1.0],"name":"node39"},{"translation":[3.048,-0.4572000000000001,-0.5486399999999986],"rotation":[-4.329637285359677e-17,0.7071067811865476,0.7071067811865475,4.329637285359677e-17],"scale":[1.0,1.0,1.0],"name":"node40"},{"translation":[-3.048,-0.4572000000000001,-0.5486399999999992],"rotation":[-4.329637285359677e-17,0.7071067811865476,0.7071067811865475,4.329637285359677e-17],"scale":[1.0,1.0,1.0],"name":"node41"},{"translation":[-1.2877470574254592e-15,0.0,10.5156],"rotation":[-4.329637285359677e-17,0.7071067811865476,0.7071067811865475,4.329637285359677e-17],"scale":[1.0,1.0,1.0],"name":"node42"},{"translation":[0.36575999999999939,0.0,5.3340000000000009],"rotation":[-4.329637285359677e-17,0.7071067811865476,0.7071067811865475,4.329637285359677e-17],"scale":[1.0,1.0,1.0],"name":"node43"},{"translation":[-0.3657600000000007,0.0,5.3340000000000009],"rotation":[-4.329637285359677e-17,0.7071067811865476,0.7071067811865475,4.329637285359677e-17],"scale":[1.0,1.0,1.0],"name":"node44"},{"translation":[0.3657599999999996,0.0,3.6576],"rotation":[-4.329637285359677e-17,0.7071067811865476,0.7071067811865475,4.329637285359677e-17],"scale":[1.0,1.0,1.0],"name":"node45"},{"translation":[-0.3657600000000005,0.0,3.6576],"rotation":[-4.329637285359677e-17,0.7071067811865476,0.7071067811865475,4.329637285359677e-17],"scale":[1.0,1.0,1.0],"name":"node46"},{"translation":[0.36575999999999977,0.0,2.37744],"rotation":[-4.329637285359677e-17,0.7071067811865476,0.7071067811865475,4.329637285359677e-17],"scale":[1.0,1.0,1.0],"name":"node47"},{"translation":[-0.3657600000000003,0.0,2.37744],"rotation":[-4.329637285359677e-17,0.7071067811865476,0.7071067811865475,4.329637285359677e-17],"scale":[1.0,1.0,1.0],"name":"node48"},{"translation":[0.3657599999999999,0.0,1.0972800000000014],"rotation":[-4.329637285359677e-17,0.7071067811865476,0.7071067811865475,4.329637285359677e-17],"scale":[1.0,1.0,1.0],"name":"node49"},{"translation":[-0.36576000000000016,0.0,1.0972800000000014],"rotation":[-4.329637285359677e-17,0.7071067811865476,0.7071067811865475,4.329637285359677e-17],"scale":[1.0,1.0,1.0],"name":"node50"},{"translation":[0.36576,0.0,-0.18288000000000077],"rotation":[-4.329637285359677e-17,0.7071067811865476,0.7071067811865475,4.329637285359677e-17],"scale":[1.0,1.0,1.0],"name":"node51"},{"translation":[-0.36576,0.0,-0.18288000000000088],"rotation":[-4.329637285359677e-17,0.7071067811865476,0.7071067811865475,4.329637285359677e-17],"scale":[1.0,1.0,1.0],"name":"node52"},{"translation":[2.799450124837953e-16,0.0,-2.2859999999999998],"rotation":[-4.329637285359677e-17,0.7071067811865476,0.7071067811865475,4.329637285359677e-17],"scale":[1.0,1.0,1.0],"name":"node53"},{"translation":[3.9192301747731368e-16,0.0,-3.2004],"rotation":[-4.329637285359677e-17,0.7071067811865476,0.7071067811865475,4.329637285359677e-17],"scale":[1.0,1.0,1.0],"name":"node54"},{"translation":[1.4630400000000004,0.24384000000000004,-2.5298399999999985],"rotation":[-4.329637285359677e-17,0.7071067811865476,0.7071067811865475,4.329637285359677e-17],"scale":[1.0,1.0,1.0],"name":"node55"},{"translation":[-1.46304,0.24384000000000004,-2.5298399999999985],"rotation":[-4.329637285359677e-17,0.7071067811865476,0.7071067811865475,4.329637285359677e-17],"scale":[1.0,1.0,1.0],"name":"node56"}],"scene":0,"scenes":[{"nodes":[0]}],"textures":[{"extensions":{"MSFT_texture_dds":{"source":0}}},{"extensions":{"MSFT_texture_dds":{"source":1}}},{"extensions":{"MSFT_texture_dds":{"source":2}}}],"extensionsUsed":["ASOBO_material_day_night_switch","MSFT_texture_dds","ASOBO_asset_optimized"],"buffers":[{"byteLength":3864,"uri":"JBAI Challenger 601 Standard Tail MSFS_LOD1.bin"}],"images":[{"uri":"JBAI_CL6.PNG.DDS","extras":"ASOBO_image_converted_meta"},{"uri":"JBAI_CL6_C.PNG.DDS","extras":"ASOBO_image_converted_meta"},{"uri":"JBAI_CL6_L.PNG.DDS","extras":"ASOBO_image_converted_meta"}]}
