{"accessors":[{"bufferView":0,"componentType":5126,"count":2,"min":[0.0],"max":[100.0],"type":"SCALAR"},{"bufferView":1,"componentType":5126,"count":2,"type":"VEC3"},{"bufferView":0,"byteOffset":8,"componentType":5126,"count":2,"min":[0.0],"max":[100.0],"type":"SCALAR"},{"bufferView":2,"componentType":5126,"count":2,"type":"VEC4"},{"bufferView":3,"componentType":5126,"count":212,"min":[-9.768810272216797,-1.03780996799469,-12.531270027160645],"max":[9.768810272216797,4.124169826507568,8.443400382995606],"type":"VEC3","name":"part000_vertices#0_POSITION"},{"bufferView":3,"byteOffset":12,"componentType":5120,"count":212,"type":"VEC4","name":"part000_vertices#0_TANGENT"},{"bufferView":3,"byteOffset":16,"componentType":5120,"count":212,"type":"VEC4","name":"part000_vertices#0_NORMAL"},{"bufferView":3,"byteOffset":20,"componentType":5122,"count":212,"type":"VEC2","name":"part000_vertices#0_TEXCOORD_0"},{"bufferView":3,"byteOffset":24,"componentType":5122,"count":212,"type":"VEC2","name":"part000_vertices#0_TEXCOORD_1"},{"bufferView":3,"byteOffset":28,"componentType":5123,"count":212,"type":"VEC4","name":"part000_vertices#0_COLOR_0"},{"bufferView":4,"componentType":5123,"count":492,"type":"SCALAR","name":"part000_indices#0"}],"animations":[{"name":"c_gear","channels":[{"sampler":0,"target":{"node":15,"path":"translation"}},{"sampler":1,"target":{"node":17,"path":"rotation"}}],"samplers":[{"input":0,"output":1,"interpolation":"LINEAR"},{"input":2,"output":3,"interpolation":"LINEAR"}]}],"asset":{"generator":"ModelConverterX","version":"2.0","extensions":{"ASOBO_asset_optimized":{"BoundingBoxMax":[9.768810272216797,4.124169826507568,8.443400382995606],"BoundingBoxMin":[-9.768810272216797,-1.03780996799469,-12.531270027160645],"MajorVersion":4,"MinorVersion":3,"UseCheckerboardMaterialForMissingTextures":true}}},"bufferViews":[{"buffer":0,"byteLength":16,"byteStride":4},{"buffer":0,"byteLength":24,"byteStride":12,"byteOffset":16},{"buffer":0,"byteLength":32,"byteStride":16,"byteOffset":40},{"buffer":0,"byteLength":7632,"byteStride":36,"byteOffset":72,"target":34962,"name":"BufferViewVertexND"},{"buffer":0,"byteLength":984,"byteOffset":7704,"target":34963,"name":"BufferViewIndex"}],"extensionsRequired":["MSFT_texture_dds"],"materials":[{"name":"material00","occlusionTexture":{"index":1},"emissiveTexture":{"index":2},"emissiveFactor":[1.0,1.0,1.0],"pbrMetallicRoughness":{"baseColorTexture":{"index":0},"metallicRoughnessTexture":{"index":1}},"extensions":{"ASOBO_material_day_night_switch":{}}}],"meshes":[{"primitives":[{"attributes":{"COLOR_0":9,"NORMAL":6,"POSITION":4,"TANGENT":5,"TEXCOORD_0":7,"TEXCOORD_1":8},"indices":10,"material":0,"mode":4,"extras":{"ASOBO_primitive":{"PrimitiveCount":164,"VertexType":"VTX","VertexVersion":2}}}],"name":"part000"}],"nodes":[{"name":"node0","children":[1,2,3,4,5,6,7,8,9,10,11,12]},{"mesh":0,"name":"node1"},{"translation":[1.7000000000000009,0.75,-7.8],"rotation":[-6.123031769111886e-17,3.061515884555943e-17,1.0,1.874575902277672e-33],"scale":[1.0,1.0,1.0],"name":"contrail1"},{"translation":[0.8400000000000008,0.83,-7.02],"rotation":[-0.40554409217820916,0.5792587266880633,-0.12278861025284288,0.6963592995338334],"scale":[1.0,1.0,1.0],"name":"logo_l"},{"translation":[0.7001009913940377,-0.724198967218399,1.835357904434204],"rotation":[-4.329637285359677e-17,0.7071067811865475,0.7071067811865475,4.329637285359677e-17],"scale":[1.0,1.0,1.0],"name":"landing_l"},{"translation":[-0.700099971626287,-0.724198967218399,1.835357904434204],"rotation":[-4.329637285359677e-17,0.7071067811865475,0.7071067811865475,4.329637285359677e-17],"scale":[1.0,1.0,1.0],"name":"landing_r"},{"translation":[-0.0026660000592060629,4.146408051252365,-10.61742901802063],"rotation":[-1.874575902277672e-33,1.0,3.061515884555943e-17,6.123031769111886e-17],"scale":[1.0,1.0,1.0],"name":"beacon"},{"translation":[-0.002666000059206063,4.146408051252365,-10.613765954971312],"rotation":[-1.874575902277672e-33,1.0,3.061515884555943e-17,6.123031769111886e-17],"scale":[1.0,1.0,1.0],"name":"strobe2"},{"translation":[-0.011578999940638553,-1.218230038881302,-2.228456974029541],"rotation":[-6.123031769111886e-17,3.061515884555943e-17,1.0,1.874575902277672e-33],"scale":[1.0,1.0,1.0],"name":"beacon_b"},{"translation":[-0.011578999940638553,-1.2102339565753937,-2.228456974029541],"rotation":[-6.123031769111886e-17,3.061515884555943e-17,1.0,1.874575902277672e-33],"scale":[1.0,1.0,1.0],"name":"strobe1"},{"translation":[-0.8399999999999991,0.83,-7.02],"rotation":[0.4055440921782093,0.5792587266880634,-0.12278861025284284,-0.6963592995338334],"scale":[1.0,1.0,1.0],"name":"logo_r"},{"translation":[-1.6999999999999994,0.75,-7.8],"rotation":[-6.123031769111886e-17,3.061515884555943e-17,1.0,1.874575902277672e-33],"scale":[1.0,1.0,1.0],"name":"contrail2"},{"translation":[0.0,0.0,0.0],"rotation":[-4.329637285359677e-17,0.7071067811865475,0.7071067811865475,4.329637285359677e-17],"scale":[1.0,1.0,1.0],"name":"node22","children":[13]},{"translation":[-0.0000019999999949504856,-2.9037539958953859,0.49546000361442568],"rotation":[0.0,0.0,0.0,1.0],"scale":[1.0,1.0,1.0],"name":"node23","children":[14]},{"translation":[9.99999997475243e-7,9.04603576660156,-1.0244909524917605],"rotation":[0.0,0.0,0.0,1.0],"scale":[1.0,1.0,1.0],"name":"node24","children":[15]},{"name":"node14_anim_c_gear","children":[16]},{"translation":[0.0,0.0,0.0],"rotation":[0.816641636558179,0.0,0.0,0.5771450748638327],"scale":[1.0,1.0,1.0],"name":"node25","children":[17]},{"name":"node15_anim_c_gear","children":[18,19,20]},{"translation":[-0.08436699956655503,0.10743195735952282,-0.4831887934724934],"rotation":[0.0,0.0,0.0,1.0],"scale":[1.0,1.0,1.0],"name":"landing_nose_l"},{"translation":[0.08406999707221986,0.10743195735952282,-0.4831887934724934],"rotation":[0.0,0.0,0.0,1.0],"scale":[1.0,1.0,1.0],"name":"landing_nose_r"},{"translation":[0.08406999707221986,0.10744396024006256,-0.48302979814616306],"rotation":[0.0,0.0,0.0,1.0],"scale":[1.0,1.0,1.0],"name":"taxi"}],"scene":0,"scenes":[{"nodes":[0]}],"textures":[{"extensions":{"MSFT_texture_dds":{"source":0}}},{"extensions":{"MSFT_texture_dds":{"source":1}}},{"extensions":{"MSFT_texture_dds":{"source":2}}}],"extensionsUsed":["ASOBO_material_day_night_switch","MSFT_texture_dds","ASOBO_asset_optimized"],"buffers":[{"byteLength":8688,"uri":"KCAI_Challenger_300_MSFS_LOD4.bin"}],"images":[{"uri":"AI_CL30_T.PNG.DDS","extras":"ASOBO_image_converted_meta"},{"uri":"AI_CL30_C.PNG.DDS","extras":"ASOBO_image_converted_meta"},{"uri":"AI_CL30_L.PNG.DDS","extras":"ASOBO_image_converted_meta"}]}
