{"accessors":[{"bufferView":0,"componentType":5126,"count":3,"min":[0.0],"max":[770.0],"type":"SCALAR"},{"bufferView":1,"componentType":5126,"count":3,"type":"VEC4"},{"bufferView":0,"byteOffset":12,"componentType":5126,"count":2,"min":[0.0],"max":[500.0],"type":"SCALAR"},{"bufferView":1,"byteOffset":48,"componentType":5126,"count":2,"type":"VEC4"},{"bufferView":0,"byteOffset":20,"componentType":5126,"count":3,"min":[0.0],"max":[770.0],"type":"SCALAR"},{"bufferView":1,"byteOffset":80,"componentType":5126,"count":3,"type":"VEC4"},{"bufferView":0,"byteOffset":32,"componentType":5126,"count":2,"min":[0.0],"max":[500.0],"type":"SCALAR"},{"bufferView":1,"byteOffset":128,"componentType":5126,"count":2,"type":"VEC4"},{"bufferView":0,"byteOffset":40,"componentType":5126,"count":2,"min":[0.0],"max":[100.0],"type":"SCALAR"},{"bufferView":1,"byteOffset":160,"componentType":5126,"count":2,"type":"VEC4"},{"bufferView":0,"byteOffset":48,"componentType":5126,"count":2,"min":[0.0],"max":[100.0],"type":"SCALAR"},{"bufferView":1,"byteOffset":192,"componentType":5126,"count":2,"type":"VEC4"},{"bufferView":0,"byteOffset":56,"componentType":5126,"count":3,"min":[0.0],"max":[770.0],"type":"SCALAR"},{"bufferView":1,"byteOffset":224,"componentType":5126,"count":3,"type":"VEC4"},{"bufferView":2,"componentType":5126,"count":84,"min":[-36.62799835205078,-34.528011322021487,-4.808000087738037],"max":[36.62799835205078,26.776010513305665,14.956009864807129],"type":"VEC3","name":"part000_vertices#0_POSITION"},{"bufferView":2,"byteOffset":12,"componentType":5120,"count":84,"type":"VEC4","name":"part000_vertices#0_TANGENT"},{"bufferView":2,"byteOffset":16,"componentType":5120,"count":84,"type":"VEC4","name":"part000_vertices#0_NORMAL"},{"bufferView":2,"byteOffset":20,"componentType":5122,"count":84,"type":"VEC2","name":"part000_vertices#0_TEXCOORD_0"},{"bufferView":2,"byteOffset":24,"componentType":5122,"count":84,"type":"VEC2","name":"part000_vertices#0_TEXCOORD_1"},{"bufferView":2,"byteOffset":28,"componentType":5123,"count":84,"type":"VEC4","name":"part000_vertices#0_COLOR_0"},{"bufferView":3,"componentType":5123,"count":138,"type":"SCALAR","name":"part000_indices#0"},{"bufferView":2,"byteOffset":3024,"componentType":5126,"count":10,"min":[-3.5880000591278078,-2.0880000591278078,-6.304999828338623],"max":[3.5880000591278078,7.995999813079834,1.746999979019165],"type":"VEC3","name":"part001_vertices#0_POSITION"},{"bufferView":2,"byteOffset":3036,"componentType":5120,"count":10,"type":"VEC4","name":"part001_vertices#0_TANGENT"},{"bufferView":2,"byteOffset":3040,"componentType":5120,"count":10,"type":"VEC4","name":"part001_vertices#0_NORMAL"},{"bufferView":2,"byteOffset":3044,"componentType":5122,"count":10,"type":"VEC2","name":"part001_vertices#0_TEXCOORD_0"},{"bufferView":2,"byteOffset":3048,"componentType":5122,"count":10,"type":"VEC2","name":"part001_vertices#0_TEXCOORD_1"},{"bufferView":2,"byteOffset":3052,"componentType":5123,"count":10,"type":"VEC4","name":"part001_vertices#0_COLOR_0"},{"bufferView":3,"byteOffset":276,"componentType":5123,"count":18,"type":"SCALAR","name":"part001_indices#0"}],"animations":[{"name":"AN124_nose","channels":[{"sampler":0,"target":{"node":45,"path":"rotation"}},{"sampler":1,"target":{"node":47,"path":"rotation"}},{"sampler":2,"target":{"node":49,"path":"rotation"}},{"sampler":3,"target":{"node":51,"path":"rotation"}},{"sampler":4,"target":{"node":63,"path":"rotation"}}],"samplers":[{"input":0,"output":1,"interpolation":"LINEAR"},{"input":2,"output":3,"interpolation":"LINEAR"},{"input":4,"output":5,"interpolation":"LINEAR"},{"input":6,"output":7,"interpolation":"LINEAR"},{"input":12,"output":13,"interpolation":"LINEAR"}]},{"name":"beechjet_lights_v2","channels":[{"sampler":0,"target":{"node":53,"path":"rotation"}},{"sampler":1,"target":{"node":57,"path":"rotation"}}],"samplers":[{"input":8,"output":9,"interpolation":"LINEAR"},{"input":10,"output":11,"interpolation":"LINEAR"}]}],"asset":{"generator":"ModelConverterX","version":"2.0","extensions":{"ASOBO_asset_optimized":{"BoundingBoxMax":[36.62799835205078,26.776010513305665,14.956009864807129],"BoundingBoxMin":[-36.62799835205078,-34.528011322021487,-6.304999828338623],"MajorVersion":4,"MinorVersion":3,"UseCheckerboardMaterialForMissingTextures":true}}},"bufferViews":[{"buffer":0,"byteLength":68,"byteStride":4},{"buffer":0,"byteLength":272,"byteStride":16,"byteOffset":68},{"buffer":0,"byteLength":3384,"byteStride":36,"byteOffset":340,"target":34962,"name":"BufferViewVertexND"},{"buffer":0,"byteLength":312,"byteOffset":3724,"target":34963,"name":"BufferViewIndex"}],"extensionsRequired":["MSFT_texture_dds"],"materials":[{"name":"material00","occlusionTexture":{"index":1},"emissiveTexture":{"index":2},"emissiveFactor":[1.0,1.0,1.0],"pbrMetallicRoughness":{"baseColorTexture":{"index":0},"metallicRoughnessTexture":{"index":1}},"extensions":{"ASOBO_material_day_night_switch":{}}}],"meshes":[{"primitives":[{"attributes":{"COLOR_0":19,"NORMAL":16,"POSITION":14,"TANGENT":15,"TEXCOORD_0":17,"TEXCOORD_1":18},"indices":20,"material":0,"mode":4,"extras":{"ASOBO_primitive":{"PrimitiveCount":46,"VertexType":"VTX","VertexVersion":2}}}],"name":"part000"},{"primitives":[{"attributes":{"COLOR_0":26,"NORMAL":23,"POSITION":21,"TANGENT":22,"TEXCOORD_0":24,"TEXCOORD_1":25},"indices":27,"material":0,"mode":4,"extras":{"ASOBO_primitive":{"PrimitiveCount":6,"VertexType":"VTX","VertexVersion":2}}}],"name":"part001"}],"nodes":[{"name":"node0","children":[1,2,3,4,5,6,7,8,9,10,11,12,13,14,15,16,17,18,19,20,21,22,23,24,25,26,27,28,29,30,31,32,33,34,35,36,37,38,39,40,41,42,43]},{"translation":[17.43,-1.5,3.7000000000000026],"rotation":[-6.123031769111886e-17,3.061515884555943e-17,1.0,1.874575902277672e-33],"scale":[1.0,1.0,1.0],"name":"contrail1"},{"translation":[13.56999969482422,1.1299999952316285,0.3000000119209306],"rotation":[-4.329637285359677e-17,0.7071067811865476,0.7071067811865475,4.329637285359677e-17],"scale":[1.0,1.0,1.0],"name":"landing_wing_l"},{"translation":[-13.56999969482422,1.1299999952316285,0.3000000119209273],"rotation":[-4.329637285359677e-17,0.7071067811865476,0.7071067811865475,4.329637285359677e-17],"scale":[1.0,1.0,1.0],"name":"landing_wing_r"},{"translation":[-17.43,-1.5,3.699999999999998],"rotation":[-6.123031769111886e-17,3.061515884555943e-17,1.0,1.874575902277672e-33],"scale":[1.0,1.0,1.0],"name":"contrail4"},{"translation":[9.849999999999998,-1.0,8.000000000000002],"rotation":[-6.123031769111886e-17,3.061515884555943e-17,1.0,1.874575902277672e-33],"scale":[1.0,1.0,1.0],"name":"contrail2"},{"translation":[-9.85,-1.0,7.999999999999998],"rotation":[-6.123031769111886e-17,3.061515884555943e-17,1.0,1.874575902277672e-33],"scale":[1.0,1.0,1.0],"name":"contrail3"},{"translation":[0.0,0.0,0.0],"rotation":[-4.329637285359677e-17,0.7071067811865476,0.7071067811865475,4.329637285359677e-17],"scale":[1.0,1.0,1.0],"name":"node8"},{"translation":[35.865816,-0.36576,-5.669279999999996],"rotation":[-4.329637285359677e-17,0.7071067811865476,0.7071067811865475,4.329637285359677e-17],"scale":[1.0,1.0,1.0],"name":"node9"},{"translation":[-35.865816,-0.36576,-5.669280000000005],"rotation":[-4.329637285359677e-17,0.7071067811865476,0.7071067811865475,4.329637285359677e-17],"scale":[1.0,1.0,1.0],"name":"node10"},{"translation":[-5.572772048510755e-16,4.05384,4.550664],"rotation":[-4.329637285359677e-17,0.7071067811865476,0.7071067811865475,4.329637285359677e-17],"scale":[1.0,1.0,1.0],"name":"node11"},{"translation":[-13.438632000000002,1.429512,0.5090159999999984],"rotation":[-4.329637285359677e-17,0.7071067811865476,0.7071067811865475,4.329637285359677e-17],"scale":[1.0,1.0,1.0],"name":"node12"},{"translation":[-3.455267974083326e-15,-3.538728,28.215336],"rotation":[-4.329637285359677e-17,0.7071067811865476,0.7071067811865475,4.329637285359677e-17],"scale":[1.0,1.0,1.0],"name":"node13"},{"translation":[3.988656537869118e-15,1.4051280000000002,-32.570928],"rotation":[-4.329637285359677e-17,0.7071067811865476,0.7071067811865475,4.329637285359677e-17],"scale":[1.0,1.0,1.0],"name":"node14"},{"translation":[13.420344000000002,1.429512,0.42062400000000169],"rotation":[-4.329637285359677e-17,0.7071067811865476,0.7071067811865475,4.329637285359677e-17],"scale":[1.0,1.0,1.0],"name":"node15"},{"translation":[-2.2128480000000039,-2.94132,29.736288],"rotation":[-4.329637285359677e-17,0.7071067811865476,0.7071067811865475,4.329637285359677e-17],"scale":[1.0,1.0,1.0],"name":"node16"},{"translation":[2.2097999999999966,-2.94132,29.736288],"rotation":[-4.329637285359677e-17,0.7071067811865476,0.7071067811865475,4.329637285359677e-17],"scale":[1.0,1.0,1.0],"name":"node17"},{"translation":[3.733799999999999,-3.538728,7.876032000000001],"rotation":[-4.329637285359677e-17,0.7071067811865476,0.7071067811865475,4.329637285359677e-17],"scale":[1.0,1.0,1.0],"name":"node18"},{"translation":[-3.733800000000001,-3.538728,7.876032],"rotation":[-4.329637285359677e-17,0.7071067811865476,0.7071067811865475,4.329637285359677e-17],"scale":[1.0,1.0,1.0],"name":"node19"},{"translation":[-2.9954116335766115e-15,-5.821680000000001,24.4602],"rotation":[-4.329637285359677e-17,0.7071067811865476,0.7071067811865475,4.329637285359677e-17],"scale":[1.0,1.0,1.0],"name":"node20"},{"translation":[5.486400000000001,-6.050280000000001,-1.8287999999999996],"rotation":[-4.329637285359677e-17,0.7071067811865476,0.7071067811865475,4.329637285359677e-17],"scale":[1.0,1.0,1.0],"name":"node21"},{"translation":[-5.486400000000001,-6.050280000000001,-1.8288000000000009],"rotation":[-4.329637285359677e-17,0.7071067811865476,0.7071067811865475,4.329637285359677e-17],"scale":[1.0,1.0,1.0],"name":"node22"},{"translation":[14.426184,0.0,-4.319015999999999],"rotation":[-4.329637285359677e-17,0.7071067811865476,0.7071067811865475,4.329637285359677e-17],"scale":[1.0,1.0,1.0],"name":"node23"},{"translation":[-14.426184,0.0,-4.319016000000002],"rotation":[-4.329637285359677e-17,0.7071067811865476,0.7071067811865475,4.329637285359677e-17],"scale":[1.0,1.0,1.0],"name":"node24"},{"translation":[2.015604089883327e-15,0.862584,-16.4592],"rotation":[-4.329637285359677e-17,0.7071067811865476,0.7071067811865475,4.329637285359677e-17],"scale":[1.0,1.0,1.0],"name":"node25"},{"translation":[-1.5927004910244737e-15,-1.143,13.005816],"rotation":[-4.329637285359677e-17,0.7071067811865476,0.7071067811865475,4.329637285359677e-17],"scale":[1.0,1.0,1.0],"name":"node26"},{"translation":[0.0,0.0,0.0],"rotation":[-4.329637285359677e-17,0.7071067811865476,0.7071067811865475,4.329637285359677e-17],"scale":[1.0,1.0,1.0],"name":"node27"},{"translation":[5.7912,0.0,-0.9143999999999993],"rotation":[-4.329637285359677e-17,0.7071067811865476,0.7071067811865475,4.329637285359677e-17],"scale":[1.0,1.0,1.0],"name":"node28"},{"translation":[-5.7912,0.0,-0.9144000000000008],"rotation":[-4.329637285359677e-17,0.7071067811865476,0.7071067811865475,4.329637285359677e-17],"scale":[1.0,1.0,1.0],"name":"node29"},{"translation":[0.0,0.0,0.0],"rotation":[-4.329637285359677e-17,0.7071067811865476,0.7071067811865475,4.329637285359677e-17],"scale":[1.0,1.0,1.0],"name":"node30"},{"translation":[0.4571999999999985,0.0,12.4968],"rotation":[-4.329637285359677e-17,0.7071067811865476,0.7071067811865475,4.329637285359677e-17],"scale":[1.0,1.0,1.0],"name":"node31"},{"translation":[-0.4572000000000016,0.0,12.4968],"rotation":[-4.329637285359677e-17,0.7071067811865476,0.7071067811865475,4.329637285359677e-17],"scale":[1.0,1.0,1.0],"name":"node32"},{"translation":[0.0,0.0,0.0],"rotation":[-4.329637285359677e-17,0.7071067811865476,0.7071067811865475,4.329637285359677e-17],"scale":[1.0,1.0,1.0],"name":"node33"},{"translation":[-9.518130424449046e-16,0.0,7.7724],"rotation":[-4.329637285359677e-17,0.7071067811865476,0.7071067811865475,4.329637285359677e-17],"scale":[1.0,1.0,1.0],"name":"node34"},{"translation":[-4.105860183095667e-16,0.0,3.3528],"rotation":[-4.329637285359677e-17,0.7071067811865476,0.7071067811865475,4.329637285359677e-17],"scale":[1.0,1.0,1.0],"name":"node35"},{"translation":[3.7326001664506055e-16,0.0,-3.048],"rotation":[-4.329637285359677e-17,0.7071067811865476,0.7071067811865475,4.329637285359677e-17],"scale":[1.0,1.0,1.0],"name":"node36"},{"translation":[1.138443050767435e-15,0.0,-9.2964],"rotation":[-4.329637285359677e-17,0.7071067811865476,0.7071067811865475,4.329637285359677e-17],"scale":[1.0,1.0,1.0],"name":"node37"},{"translation":[-7.651830341223742e-16,0.0,6.2484],"rotation":[-4.329637285359677e-17,0.7071067811865476,0.7071067811865475,4.329637285359677e-17],"scale":[1.0,1.0,1.0],"name":"node38"},{"translation":[1.0264650457739166e-15,0.0,-8.382],"rotation":[-4.329637285359677e-17,0.7071067811865476,0.7071067811865475,4.329637285359677e-17],"scale":[1.0,1.0,1.0],"name":"node39"},{"translation":[20.159472,-0.844296,-6.358127999999997],"rotation":[-4.329637285359677e-17,0.7071067811865476,0.7071067811865475,4.329637285359677e-17],"scale":[1.0,1.0,1.0],"name":"node40"},{"translation":[11.527536,-1.716024,1.7861280000000016],"rotation":[-4.329637285359677e-17,0.7071067811865476,0.7071067811865475,4.329637285359677e-17],"scale":[1.0,1.0,1.0],"name":"node41"},{"translation":[-11.527536,-1.716024,1.7861279999999989],"rotation":[-4.329637285359677e-17,0.7071067811865476,0.7071067811865475,4.329637285359677e-17],"scale":[1.0,1.0,1.0],"name":"node42"},{"translation":[-20.159472,-0.844296,-6.3581280000000028],"rotation":[-4.329637285359677e-17,0.7071067811865476,0.7071067811865475,4.329637285359677e-17],"scale":[1.0,1.0,1.0],"name":"node43"},{"translation":[0.0,0.0,0.0],"rotation":[-4.329637285359677e-17,0.7071067811865476,0.7071067811865475,4.329637285359677e-17],"scale":[1.0,1.0,1.0],"name":"node44","children":[44,48,62]},{"name":"node45","children":[45]},{"mesh":0,"name":"node44_anim_AN124_nose","children":[46]},{"translation":[0.0,26.552000045776368,2.3610000610351564],"rotation":[0.0,0.0,0.0,1.0],"scale":[1.0,1.0,1.0],"name":"node46","children":[47]},{"mesh":1,"name":"node45_anim_AN124_nose"},{"name":"node109","children":[49]},{"name":"node46_anim_AN124_nose","children":[50,60,61]},{"translation":[0.0,26.552000045776368,2.3610000610351564],"rotation":[0.0,0.0,0.0,1.0],"scale":[1.0,1.0,1.0],"name":"node266","children":[51]},{"name":"node47_anim_AN124_nose","children":[52,56]},{"translation":[2.178999900817871,2.8469998836517336,-5.183000087738037],"rotation":[0.0,0.0,0.0,1.0],"scale":[1.0,1.0,1.0],"name":"node268","children":[53]},{"name":"node48_anim_beechjet_lights_v2","children":[54,55]},{"translation":[0.0,0.06,-0.13],"rotation":[0.0,0.0,0.0,1.0],"scale":[1.0,1.0,1.0],"name":"landing_nose_r"},{"translation":[0.0,0.06,-0.13],"rotation":[0.0,0.0,0.0,1.0],"scale":[1.0,1.0,1.0],"name":"taxi_nose_r"},{"translation":[-2.178999900817871,2.8469998836517336,-5.183000087738037],"rotation":[0.0,0.0,0.0,1.0],"scale":[1.0,1.0,1.0],"name":"node271","children":[57]},{"name":"node51_anim_beechjet_lights_v2","children":[58,59]},{"translation":[0.0,0.06,-0.13],"rotation":[0.0,0.0,0.0,1.0],"scale":[1.0,1.0,1.0],"name":"taxi_nose_l"},{"translation":[0.0,0.06,-0.13],"rotation":[0.0,0.0,0.0,1.0],"scale":[1.0,1.0,1.0],"name":"landing_nose_l"},{"translation":[12.5,-32.29999923706055,2.299999952316284],"rotation":[-0.46854303730493249,0.5295920006902697,-0.259155683363934,-0.6579042991029307],"scale":[1.0,1.0,1.0],"name":"logo_r"},{"translation":[-12.5,-32.29999923706055,2.299999952316284],"rotation":[0.46854303730493249,0.5295920006902697,-0.259155683363934,0.6579042991029307],"scale":[1.0,1.0,1.0],"name":"logo_l"},{"name":"node285","children":[63]},{"name":"node56_anim_AN124_nose","children":[64,65,66,67,68,69,70,71,72,73]},{"translation":[-1.9,20.0,2.0],"rotation":[0.7071067811865476,0.0,0.0,-0.7071067811865475],"scale":[1.0,1.0,1.0],"name":"interior5l"},{"translation":[1.9,20.0,2.0],"rotation":[0.7071067811865476,0.0,0.0,-0.7071067811865475],"scale":[1.0,1.0,1.0],"name":"interior5r"},{"translation":[-1.9,15.0,2.0],"rotation":[0.7071067811865476,0.0,0.0,-0.7071067811865475],"scale":[1.0,1.0,1.0],"name":"interior4l"},{"translation":[1.9,15.0,2.0],"rotation":[0.7071067811865476,0.0,0.0,-0.7071067811865475],"scale":[1.0,1.0,1.0],"name":"interior4r"},{"translation":[1.9,10.0,2.0],"rotation":[0.7071067811865476,0.0,0.0,-0.7071067811865475],"scale":[1.0,1.0,1.0],"name":"interior3r"},{"translation":[-1.9,10.0,2.0],"rotation":[0.7071067811865476,0.0,0.0,-0.7071067811865475],"scale":[1.0,1.0,1.0],"name":"interior3l"},{"translation":[-1.9,5.0,2.0],"rotation":[0.7071067811865476,0.0,0.0,-0.7071067811865475],"scale":[1.0,1.0,1.0],"name":"interior2l"},{"translation":[1.9,5.0,2.0],"rotation":[0.7071067811865476,0.0,0.0,-0.7071067811865475],"scale":[1.0,1.0,1.0],"name":"interior2r"},{"translation":[1.9,0.0,2.0],"rotation":[0.7071067811865476,0.0,0.0,-0.7071067811865475],"scale":[1.0,1.0,1.0],"name":"interior1r"},{"translation":[-1.9,0.0,2.0],"rotation":[0.7071067811865476,0.0,0.0,-0.7071067811865475],"scale":[1.0,1.0,1.0],"name":"interior1l"}],"scene":0,"scenes":[{"nodes":[0]}],"textures":[{"extensions":{"MSFT_texture_dds":{"source":0}}},{"extensions":{"MSFT_texture_dds":{"source":1}}},{"extensions":{"MSFT_texture_dds":{"source":2}}}],"extensionsUsed":["ASOBO_material_day_night_switch","MSFT_texture_dds","ASOBO_asset_optimized"],"buffers":[{"byteLength":4036,"uri":"AIG_An-124-100_TL_ON_MSFS_LOD1.bin"}],"images":[{"uri":"AIG_AN124.PNG.DDS","extras":"ASOBO_image_converted_meta"},{"uri":"AIG_AN124_C.PNG.DDS","extras":"ASOBO_image_converted_meta"},{"uri":"AIG_AN124_L.PNG.DDS","extras":"ASOBO_image_converted_meta"}]}
