{"accessors":[{"bufferView":0,"componentType":5126,"count":32,"min":[0.0],"max":[80.0],"type":"SCALAR"},{"bufferView":1,"componentType":5126,"count":32,"type":"VEC4"},{"bufferView":2,"componentType":5126,"count":137,"min":[-30.673730850219728,-4.498010158538818,-36.24422836303711],"max":[30.673730850219728,11.509160041809082,31.23798942565918],"type":"VEC3","name":"part000_vertices#0_POSITION"},{"bufferView":2,"byteOffset":12,"componentType":5120,"count":137,"type":"VEC4","name":"part000_vertices#0_TANGENT"},{"bufferView":2,"byteOffset":16,"componentType":5120,"count":137,"type":"VEC4","name":"part000_vertices#0_NORMAL"},{"bufferView":2,"byteOffset":20,"componentType":5122,"count":137,"type":"VEC2","name":"part000_vertices#0_TEXCOORD_0"},{"bufferView":2,"byteOffset":24,"componentType":5122,"count":137,"type":"VEC2","name":"part000_vertices#0_TEXCOORD_1"},{"bufferView":2,"byteOffset":28,"componentType":5123,"count":137,"type":"VEC4","name":"part000_vertices#0_COLOR_0"},{"bufferView":3,"componentType":5123,"count":267,"type":"SCALAR","name":"part000_indices#0"}],"animations":[{"name":"c_gear","channels":[{"sampler":0,"target":{"node":44,"path":"rotation"}}],"samplers":[{"input":0,"output":1,"interpolation":"LINEAR"}]}],"asset":{"generator":"ModelConverterX","version":"2.0","extensions":{"ASOBO_asset_optimized":{"BoundingBoxMax":[30.673730850219728,11.509160041809082,31.23798942565918],"BoundingBoxMin":[-30.673730850219728,-4.498010158538818,-36.24422836303711],"MajorVersion":4,"MinorVersion":4,"UseCheckerboardMaterialForMissingTextures":true,"UseOnlyFilenameForImageURI":true}}},"bufferViews":[{"buffer":0,"byteLength":128,"byteStride":4},{"buffer":0,"byteLength":512,"byteStride":16,"byteOffset":128},{"buffer":0,"byteLength":4932,"byteStride":36,"byteOffset":640,"target":34962,"name":"BufferViewVertexND"},{"buffer":0,"byteLength":534,"byteOffset":5572,"target":34963,"name":"BufferViewIndex"}],"extensionsRequired":["MSFT_texture_dds"],"materials":[{"name":"material00","occlusionTexture":{"index":1},"emissiveTexture":{"index":2},"emissiveFactor":[1.0,1.0,1.0],"pbrMetallicRoughness":{"baseColorTexture":{"index":0},"metallicRoughnessTexture":{"index":1}},"extensions":{"ASOBO_material_day_night_switch":{}}}],"meshes":[{"primitives":[{"attributes":{"COLOR_0":7,"NORMAL":4,"POSITION":2,"TANGENT":3,"TEXCOORD_0":5,"TEXCOORD_1":6},"indices":8,"material":0,"mode":4,"extras":{"ASOBO_primitive":{"PrimitiveCount":89,"VertexType":"VTX","VertexVersion":2}}}],"name":"part000"}],"nodes":[{"name":"node0","children":[1,2,3,4,5,6,7,8,9,10,11,12,13,14,15,16,17,18,19,20,21,22,23,24]},{"mesh":0,"name":"node1"},{"translation":[19.18000030517578,-1.7899999618530272,-5.999999999999997],"rotation":[-6.123031769111886e-17,0.0,1.0,0.0],"scale":[1.0,1.0,1.0],"name":"contrail1"},{"translation":[3.608999967575072,-1.1100000143051148,7.796999931335449],"rotation":[0.18301277579014572,0.6830126820913253,0.6830126820913253,-0.18301277579014572],"scale":[1.0,1.0,1.0],"name":"landing_l2"},{"translation":[-2.72106554073857e-16,3.0,2.221992015838623],"rotation":[0.0,1.0,0.0,6.123031769111886e-17],"scale":[1.0,1.0,1.0],"name":"beacon"},{"translation":[-9.439745996377843e-16,-3.169919967651367,7.708392143249512],"rotation":[-6.123031769111886e-17,0.0,1.0,0.0],"scale":[1.0,1.0,1.0],"name":"beacon_b"},{"translation":[2.9500000476837138,0.029999999329447744,18.97726058959961],"rotation":[0.7151641644446196,0.23035442799048193,0.2745254900425654,-0.6000939209854558],"scale":[1.0,1.0,1.0],"name":"wing_l"},{"translation":[-2.950000047683718,0.029999999329447744,18.97699928283691],"rotation":[0.715164326075595,-0.23035429605736733,-0.27452612438257187,-0.6000936608374822],"scale":[1.0,1.0,1.0],"name":"wing_r"},{"translation":[3.5490000247955315,-1.1100000143051148,7.896999835968018],"rotation":[0.030843293167498507,0.7064337840637179,0.7064337840637179,-0.030843293167498507],"scale":[1.0,1.0,1.0],"name":"landing_l1"},{"translation":[-3.549352884292603,-1.1100000143051148,7.896909236907959],"rotation":[-0.030843293167498593,0.7064337840637179,0.7064337840637179,0.030843293167498593],"scale":[1.0,1.0,1.0],"name":"landing_r1"},{"translation":[4.1976822871709909e-15,1.8227039575576785,-34.277809143066409],"rotation":[-0.7071067811865475,-4.329637285359677e-17,-4.329637285359677e-17,0.7071067811865475],"scale":[1.0,1.0,1.0],"name":"navwhi_tail"},{"translation":[-3.609353065490723,-1.1100000143051148,7.796909809112549],"rotation":[-0.1830127757901458,0.6830126820913253,0.6830126820913253,0.1830127757901458],"scale":[1.0,1.0,1.0],"name":"landing_r2"},{"translation":[4.1976822871709909e-15,1.8227039575576785,-34.277809143066409],"rotation":[-0.7071067811865475,-4.329637285359677e-17,-4.329637285359677e-17,0.7071067811865475],"scale":[1.0,1.0,1.0],"name":"strobe_tail"},{"translation":[-2.950000047683718,0.029999999329447744,17.93600082397461],"rotation":[0.750664768084984,-0.16288068235585438,-0.20114011526311285,-0.6078773052034378],"scale":[1.0,1.0,1.0],"name":"engine_r"},{"translation":[2.9500000476837138,0.029999999329447744,17.936260223388673],"rotation":[0.750664768084984,0.16288068235585446,0.20114011526311294,-0.6078773052034378],"scale":[1.0,1.0,1.0],"name":"engine_l"},{"translation":[4.839997768402103,2.454000949859619,-32.012001037597659],"rotation":[-0.3534532609865325,0.9207767364887326,0.1540856644065764,-0.05914843639043069],"scale":[1.0,1.0,1.0],"name":"logo_l"},{"translation":[-4.84000205993652,2.454000949859619,-32.012001037597659],"rotation":[0.3534532609865325,0.9207767364887326,0.15408566440657643,0.0591484363904308],"scale":[1.0,1.0,1.0],"name":"logo_r"},{"translation":[30.414880752563478,0.6396510004997253,-10.567009925842282],"rotation":[-0.6871587116946037,0.023454382821282209,-0.02211721663750993,0.725791727100065],"scale":[1.0,1.0,1.0],"name":"nav_l"},{"translation":[30.265560150146486,0.6453750133514404,-10.382040023803708],"rotation":[0.7024880365034412,-0.0845317120802346,-0.04059499562476145,-0.7054906419152432],"scale":[1.0,1.0,1.0],"name":"strobe_l"},{"translation":[-30.265459060668947,0.6463819742202759,-10.382010459899906],"rotation":[-0.17733558075994697,0.7079685624445524,0.6820211086183274,-0.046688817562308169],"scale":[1.0,1.0,1.0],"name":"strobe_r"},{"translation":[-30.414770126342775,0.640736997127533,-10.56791973114014],"rotation":[-0.11855604121449336,0.7142594383987876,0.6808040282852521,-0.11083293087855768],"scale":[1.0,1.0,1.0],"name":"nav_r"},{"translation":[9.479999542236329,-3.069999933242798,0.5000000000000011],"rotation":[-6.123031769111886e-17,0.0,1.0,0.0],"scale":[1.0,1.0,1.0],"name":"contrail2"},{"translation":[-9.479999542236329,-3.069999933242798,0.4999999999999988],"rotation":[-6.123031769111886e-17,0.0,1.0,0.0],"scale":[1.0,1.0,1.0],"name":"contrail3"},{"translation":[-19.18000030517578,-1.7899999618530272,-6.000000000000003],"rotation":[-6.123031769111886e-17,0.0,1.0,0.0],"scale":[1.0,1.0,1.0],"name":"contrail4"},{"translation":[0.0,0.0,0.0],"rotation":[-4.329637285359677e-17,0.7071067811865475,0.7071067811865475,4.329637285359677e-17],"scale":[1.0,1.0,1.0],"name":"node30","children":[25,42]},{"translation":[0.0,3.0,0.0],"rotation":[0.0,0.0,0.0,1.0],"scale":[1.0,1.0,1.0],"name":"node31","children":[26,34]},{"translation":[0.0,0.0,0.0],"rotation":[-0.1330508487483327,0.0782879591666367,0.987000567611948,0.04470287428820389],"scale":[1.0,1.0,1.0],"name":"node32","children":[27]},{"translation":[3.0855763175981876,0.0,0.0],"rotation":[0.0,0.0,0.0,1.0],"scale":[1.0,1.0,1.0],"name":"node33","children":[28]},{"translation":[0.0,0.0,0.0],"rotation":[-0.10408083505540264,-0.12685290902900393,0.2998479727834567,0.9397695017336],"scale":[1.0,1.0,1.0],"name":"node34","children":[29,31]},{"translation":[6.978504270668728,9.999997995955476e-7,0.0],"rotation":[0.0,0.0,0.0,1.0],"scale":[1.0,1.0,1.0],"name":"node35","children":[30]},{"translation":[0.0,0.0,0.0],"rotation":[-0.0020057216087928416,-0.011128642294843212,-0.028991793363736579,0.9995156858384088],"scale":[1.0,1.0,1.0],"name":"node36"},{"translation":[18.117125560840465,-0.6462955984104845,0.24957462613038984],"rotation":[-0.0020057216087928416,-0.011128642294843212,-0.028991793363736579,0.9995156858384088],"scale":[1.0,1.0,1.0],"name":"node45","children":[32]},{"translation":[0.0,0.0,0.0],"rotation":[0.0,0.009309900429198312,0.00001000043126580052,0.9999566618879032],"scale":[1.0,1.0,1.0],"name":"node46","children":[33]},{"translation":[12.24338867407976,0.0,-0.000008000001641679075],"rotation":[0.0,0.0,0.0,1.0],"scale":[1.0,1.0,1.0],"name":"node47"},{"translation":[0.0,0.0,0.0],"rotation":[-0.0782879591666367,0.1330508487483327,0.04470287428820389,0.987000567611948],"scale":[1.0,1.0,1.0],"name":"node75","children":[35]},{"translation":[3.085573218157356,0.0,0.0],"rotation":[0.0,0.0,0.0,1.0],"scale":[1.0,1.0,1.0],"name":"node76","children":[36]},{"translation":[0.0,0.0,0.0],"rotation":[0.10408083505540264,-0.12685290902900393,-0.2998479727834567,0.9397695017336],"scale":[1.0,1.0,1.0],"name":"node77","children":[37,39]},{"translation":[6.978502363320593,-9.999997995955476e-7,-0.0000010000000955627548],"rotation":[0.0,0.0,0.0,1.0],"scale":[1.0,1.0,1.0],"name":"node78","children":[38]},{"translation":[0.0,0.0,0.0],"rotation":[0.002005721608873064,-0.011128142361831194,0.02899154350971428,0.9995156986413986],"scale":[1.0,1.0,1.0],"name":"node79"},{"translation":[18.1167250177319,0.6460677895032317,0.24958651725818888],"rotation":[0.002005721608873064,-0.011128142361831194,0.02899154350971428,0.9995156986413986],"scale":[1.0,1.0,1.0],"name":"node88","children":[40]},{"translation":[0.0,0.0,0.0],"rotation":[0.0,0.00926789984862092,-0.000010000430398970893,0.9999570520439344],"scale":[1.0,1.0,1.0],"name":"node89","children":[41]},{"translation":[12.243739793059014,0.00019999996895585787,-0.00004399998180261152],"rotation":[0.0,0.0,0.0,1.0],"scale":[1.0,1.0,1.0],"name":"node90"},{"translation":[0.0,23.65999984741211,-3.200000047683716],"rotation":[0.0,0.0,0.0,1.0],"scale":[1.0,1.0,1.0],"name":"node220","children":[43]},{"translation":[-9.99999997475243e-7,0.9327620267868042,0.9132019877433778],"rotation":[0.0,0.0,0.0,1.0],"scale":[1.0,1.0,1.0],"name":"node221","children":[44]},{"name":"node43_anim_c_gear","children":[45,46,47,48,49,50,51,52]},{"translation":[1.033202052116394,0.1899929940700531,0.2072419971227646],"rotation":[-0.3799256669909906,0.5963715751124352,0.37992776301068989,-0.5963661254673971],"scale":[1.0,1.0,1.0],"name":"landing_nose_l2"},{"translation":[0.3932029902935028,0.31999701261520388,0.20723800361156465],"rotation":[0.46854235588202539,-0.4867444762621669,-0.5129160250748177,0.5295899351766683],"scale":[1.0,1.0,1.0],"name":"taxi_nose_l"},{"translation":[1.0331989526748656,-0.19000700116157533,0.20724399387836457],"rotation":[-0.5896458882274954,0.31551319975213856,0.6328133549824053,-0.3902769130821103],"scale":[1.0,1.0,1.0],"name":"taxi_nose_r2"},{"translation":[0.39319899678230288,-0.3200030028820038,0.2072409987449646],"rotation":[-0.48673848297846419,0.4685478507414283,0.529591346668333,-0.5129147926525667],"scale":[1.0,1.0,1.0],"name":"taxi_nose_r"},{"translation":[1.033202052116394,0.1899929940700531,0.2072419971227646],"rotation":[0.31550651574905155,-0.5896503159729526,-0.3902784896753092,0.6328120191753495],"scale":[1.0,1.0,1.0],"name":"taxi_nose_l2"},{"translation":[1.0331989526748656,-0.19000700116157533,0.20724399387836457],"rotation":[0.5963675335155934,-0.3799321577904594,-0.5963662640531662,0.3799258924485617],"scale":[1.0,1.0,1.0],"name":"landing_nose_r2"},{"translation":[0.3932029902935028,0.31999701261520388,0.20723800361156465],"rotation":[-0.4911958566060622,0.5086543492644637,0.49119683959880536,-0.5086484513326387],"scale":[1.0,1.0,1.0],"name":"landing_nose_l"},{"translation":[0.39319899678230288,-0.3200030028820038,0.2072409987449646],"rotation":[0.5086484537197655,-0.4912017213350731,-0.508649436698551,0.49119582335793746],"scale":[1.0,1.0,1.0],"name":"landing_nose_r"}],"scene":0,"scenes":[{"nodes":[0]}],"textures":[{"extensions":{"MSFT_texture_dds":{"source":0}}},{"extensions":{"MSFT_texture_dds":{"source":1}}},{"extensions":{"MSFT_texture_dds":{"source":2}}}],"extensionsUsed":["ASOBO_material_day_night_switch","MSFT_texture_dds","ASOBO_asset_optimized"],"buffers":[{"byteLength":6106,"uri":"TFS_Airbus_A340-500_MSFS_LOD1.bin"}],"images":[{"uri":"TFS_A345_T.PNG.DDS","extras":"ASOBO_image_converted_meta"},{"uri":"TFS_A345_C.PNG.DDS","extras":"ASOBO_image_converted_meta"},{"uri":"TFS_A345_L.PNG.DDS","extras":"ASOBO_image_converted_meta"}]}
