{"accessors":[{"bufferView":0,"componentType":5126,"count":76,"min":[-11.60906982421875,-1.1978600025177003,-13.327380180358887],"max":[11.608920097351075,4.371349811553955,14.316459655761719],"type":"VEC3","name":"part000_vertices#0_POSITION"},{"bufferView":0,"byteOffset":12,"componentType":5120,"count":76,"type":"VEC4","name":"part000_vertices#0_TANGENT"},{"bufferView":0,"byteOffset":16,"componentType":5120,"count":76,"type":"VEC4","name":"part000_vertices#0_NORMAL"},{"bufferView":0,"byteOffset":20,"componentType":5122,"count":76,"type":"VEC2","name":"part000_vertices#0_TEXCOORD_0"},{"bufferView":0,"byteOffset":24,"componentType":5122,"count":76,"type":"VEC2","name":"part000_vertices#0_TEXCOORD_1"},{"bufferView":0,"byteOffset":28,"componentType":5123,"count":76,"type":"VEC4","name":"part000_vertices#0_COLOR_0"},{"bufferView":1,"componentType":5123,"count":150,"type":"SCALAR","name":"part000_indices#0"}],"asset":{"generator":"ModelConverterX","version":"2.0","extensions":{"ASOBO_asset_optimized":{"BoundingBoxMax":[11.608920097351075,4.371349811553955,14.316459655761719],"BoundingBoxMin":[-11.60906982421875,-1.1978600025177003,-13.327380180358887],"MajorVersion":4,"MinorVersion":3,"UseCheckerboardMaterialForMissingTextures":true}}},"bufferViews":[{"buffer":0,"byteLength":2736,"byteStride":36,"target":34962,"name":"BufferViewVertexND"},{"buffer":0,"byteLength":300,"byteOffset":2736,"target":34963,"name":"BufferViewIndex"}],"extensionsRequired":["MSFT_texture_dds"],"materials":[{"name":"material00","occlusionTexture":{"index":1},"emissiveTexture":{"index":2},"emissiveFactor":[1.0,1.0,1.0],"pbrMetallicRoughness":{"baseColorTexture":{"index":0},"metallicRoughnessTexture":{"index":1}},"extensions":{"ASOBO_material_day_night_switch":{}}}],"meshes":[{"primitives":[{"attributes":{"COLOR_0":5,"NORMAL":2,"POSITION":0,"TANGENT":1,"TEXCOORD_0":3,"TEXCOORD_1":4},"indices":6,"material":0,"mode":4,"extras":{"ASOBO_primitive":{"PrimitiveCount":50,"VertexType":"VTX","VertexVersion":2}}}],"name":"part000"}],"nodes":[{"name":"node0","children":[1,2,3,4,5,6,7,8,9,10,11,12,13,14,15,16,17,18,19,20,21,22,23,24,25,26,27,28,29,30,31,32,33,34,35,36,37,38,39,40,41,42,43]},{"mesh":0,"name":"node1"},{"translation":[2.5000000000000015,3.9200000762939459,-11.699999809265137],"rotation":[-0.1514528550039037,0.3945480201877854,0.8461112269983926,0.324791754858925],"scale":[1.0,1.0,1.0],"name":"logo_l"},{"translation":[-2.4999999999999988,3.9200000762939459,-11.699999809265137],"rotation":[0.1514528550039036,0.3945480201877854,0.8461112269983926,-0.32479175485892489],"scale":[1.0,1.0,1.0],"name":"logo_r"},{"translation":[1.2599999904632565,-1.1100000143051148,4.239999771118164],"rotation":[-0.03084364446938532,-0.7064337687255942,-0.7064337687255942,0.030843644469385316],"scale":[1.0,1.0,1.0],"name":"landing_l"},{"translation":[-1.2599999904632573,-1.1100000143051148,4.239999771118164],"rotation":[-0.030843644469385237,0.7064337687255942,0.7064337687255942,0.03084364446938523],"scale":[1.0,1.0,1.0],"name":"landing_r"},{"translation":[2.160000000000001,0.4,-6.0],"rotation":[-6.123031769111886e-17,3.061515884555943e-17,1.0,1.874575902277672e-33],"scale":[1.0,1.0,1.0],"name":"contrail1"},{"translation":[-2.1599999999999994,0.4,-6.0],"rotation":[-6.123031769111886e-17,3.061515884555943e-17,1.0,1.874575902277672e-33],"scale":[1.0,1.0,1.0],"name":"contrail2"},{"translation":[-1.1197800499351869e-17,0.0,0.0914400000000004],"rotation":[-4.329637285359677e-17,0.7071067811865476,0.7071067811865475,4.329637285359677e-17],"scale":[1.0,1.0,1.0],"name":"node15"},{"translation":[11.2776,-0.8229600000000001,-1.981199999999998],"rotation":[-4.329637285359677e-17,0.7071067811865476,0.7071067811865475,4.329637285359677e-17],"scale":[1.0,1.0,1.0],"name":"node16"},{"translation":[-11.2776,-0.8229600000000001,-1.9812000000000008],"rotation":[-4.329637285359677e-17,0.7071067811865476,0.7071067811865475,4.329637285359677e-17],"scale":[1.0,1.0,1.0],"name":"node17"},{"translation":[1.282148157175783e-15,0.24384000000000004,-10.469879999999998],"rotation":[-4.329637285359677e-17,0.7071067811865476,0.7071067811865475,4.329637285359677e-17],"scale":[1.0,1.0,1.0],"name":"node18"},{"translation":[11.39952,-0.8229600000000001,-2.0939759999999985],"rotation":[-4.329637285359677e-17,0.7071067811865476,0.7071067811865475,4.329637285359677e-17],"scale":[1.0,1.0,1.0],"name":"node19"},{"translation":[-11.39952,-0.8229600000000001,-2.093976000000001],"rotation":[-4.329637285359677e-17,0.7071067811865476,0.7071067811865475,4.329637285359677e-17],"scale":[1.0,1.0,1.0],"name":"node20"},{"translation":[-6.382746284630537e-16,1.2649200000000005,5.212080000000001],"rotation":[-4.329637285359677e-17,0.7071067811865476,0.7071067811865475,4.329637285359677e-17],"scale":[1.0,1.0,1.0],"name":"node21"},{"translation":[-6.371548484131186e-16,1.271016,5.202936000000001],"rotation":[-4.329637285359677e-17,0.7071067811865476,0.7071067811865475,4.329637285359677e-17],"scale":[1.0,1.0,1.0],"name":"node22"},{"translation":[1.3437360599222175e-16,-1.47828,-1.0972799999999996],"rotation":[-4.329637285359677e-17,0.7071067811865476,0.7071067811865475,4.329637285359677e-17],"scale":[1.0,1.0,1.0],"name":"node23"},{"translation":[1.2496799999999997,-1.15824,4.23672],"rotation":[-4.329637285359677e-17,0.7071067811865476,0.7071067811865475,4.329637285359677e-17],"scale":[1.0,1.0,1.0],"name":"node24"},{"translation":[-1.2496800000000004,-1.15824,4.23672],"rotation":[-4.329637285359677e-17,0.7071067811865476,0.7071067811865475,4.329637285359677e-17],"scale":[1.0,1.0,1.0],"name":"node25"},{"translation":[-1.3810620615867246e-15,-2.673096,11.2776],"rotation":[-4.329637285359677e-17,0.7071067811865476,0.7071067811865475,4.329637285359677e-17],"scale":[1.0,1.0,1.0],"name":"node26"},{"translation":[2.0574,-2.950464,-1.2191999999999988],"rotation":[-4.329637285359677e-17,0.7071067811865476,0.7071067811865475,4.329637285359677e-17],"scale":[1.0,1.0,1.0],"name":"node27"},{"translation":[-2.0574,-2.950464,-1.2191999999999992],"rotation":[-4.329637285359677e-17,0.7071067811865476,0.7071067811865475,4.329637285359677e-17],"scale":[1.0,1.0,1.0],"name":"node28"},{"translation":[11.558016,-0.9144,-3.1485839999999984],"rotation":[-4.329637285359677e-17,0.7071067811865476,0.7071067811865475,4.329637285359677e-17],"scale":[1.0,1.0,1.0],"name":"node29"},{"translation":[-11.558016,-0.9144,-3.148584000000001],"rotation":[-4.329637285359677e-17,0.7071067811865476,0.7071067811865475,4.329637285359677e-17],"scale":[1.0,1.0,1.0],"name":"node30"},{"translation":[1.256766476043919e-15,0.0,-10.262616],"rotation":[-4.329637285359677e-17,0.7071067811865476,0.7071067811865475,4.329637285359677e-17],"scale":[1.0,1.0,1.0],"name":"node31"},{"translation":[-1.6785502948528378e-15,-0.4572000000000001,13.706856000000002],"rotation":[-4.329637285359677e-17,0.7071067811865476,0.7071067811865475,4.329637285359677e-17],"scale":[1.0,1.0,1.0],"name":"node32"},{"translation":[2.5754941148509168e-16,-0.4572000000000001,-2.1031199999999989],"rotation":[-4.329637285359677e-17,0.7071067811865476,0.7071067811865475,4.329637285359677e-17],"scale":[1.0,1.0,1.0],"name":"node33"},{"translation":[3.048,-0.4572000000000001,-0.5486399999999986],"rotation":[-4.329637285359677e-17,0.7071067811865476,0.7071067811865475,4.329637285359677e-17],"scale":[1.0,1.0,1.0],"name":"node34"},{"translation":[-3.048,-0.4572000000000001,-0.5486399999999992],"rotation":[-4.329637285359677e-17,0.7071067811865476,0.7071067811865475,4.329637285359677e-17],"scale":[1.0,1.0,1.0],"name":"node35"},{"translation":[-1.2877470574254592e-15,0.0,10.5156],"rotation":[-4.329637285359677e-17,0.7071067811865476,0.7071067811865475,4.329637285359677e-17],"scale":[1.0,1.0,1.0],"name":"node36"},{"translation":[0.36575999999999939,0.0,5.3340000000000009],"rotation":[-4.329637285359677e-17,0.7071067811865476,0.7071067811865475,4.329637285359677e-17],"scale":[1.0,1.0,1.0],"name":"node37"},{"translation":[-0.3657600000000007,0.0,5.3340000000000009],"rotation":[-4.329637285359677e-17,0.7071067811865476,0.7071067811865475,4.329637285359677e-17],"scale":[1.0,1.0,1.0],"name":"node38"},{"translation":[0.3657599999999996,0.0,3.6576],"rotation":[-4.329637285359677e-17,0.7071067811865476,0.7071067811865475,4.329637285359677e-17],"scale":[1.0,1.0,1.0],"name":"node39"},{"translation":[-0.3657600000000005,0.0,3.6576],"rotation":[-4.329637285359677e-17,0.7071067811865476,0.7071067811865475,4.329637285359677e-17],"scale":[1.0,1.0,1.0],"name":"node40"},{"translation":[0.36575999999999977,0.0,2.37744],"rotation":[-4.329637285359677e-17,0.7071067811865476,0.7071067811865475,4.329637285359677e-17],"scale":[1.0,1.0,1.0],"name":"node41"},{"translation":[-0.3657600000000003,0.0,2.37744],"rotation":[-4.329637285359677e-17,0.7071067811865476,0.7071067811865475,4.329637285359677e-17],"scale":[1.0,1.0,1.0],"name":"node42"},{"translation":[0.3657599999999999,0.0,1.0972800000000014],"rotation":[-4.329637285359677e-17,0.7071067811865476,0.7071067811865475,4.329637285359677e-17],"scale":[1.0,1.0,1.0],"name":"node43"},{"translation":[-0.36576000000000016,0.0,1.0972800000000014],"rotation":[-4.329637285359677e-17,0.7071067811865476,0.7071067811865475,4.329637285359677e-17],"scale":[1.0,1.0,1.0],"name":"node44"},{"translation":[0.36576,0.0,-0.18288000000000077],"rotation":[-4.329637285359677e-17,0.7071067811865476,0.7071067811865475,4.329637285359677e-17],"scale":[1.0,1.0,1.0],"name":"node45"},{"translation":[-0.36576,0.0,-0.18288000000000088],"rotation":[-4.329637285359677e-17,0.7071067811865476,0.7071067811865475,4.329637285359677e-17],"scale":[1.0,1.0,1.0],"name":"node46"},{"translation":[2.799450124837953e-16,0.0,-2.2859999999999998],"rotation":[-4.329637285359677e-17,0.7071067811865476,0.7071067811865475,4.329637285359677e-17],"scale":[1.0,1.0,1.0],"name":"node47"},{"translation":[3.9192301747731368e-16,0.0,-3.2004],"rotation":[-4.329637285359677e-17,0.7071067811865476,0.7071067811865475,4.329637285359677e-17],"scale":[1.0,1.0,1.0],"name":"node48"},{"translation":[1.4630400000000004,0.24384000000000004,-2.5298399999999985],"rotation":[-4.329637285359677e-17,0.7071067811865476,0.7071067811865475,4.329637285359677e-17],"scale":[1.0,1.0,1.0],"name":"node49"},{"translation":[-1.46304,0.24384000000000004,-2.5298399999999985],"rotation":[-4.329637285359677e-17,0.7071067811865476,0.7071067811865475,4.329637285359677e-17],"scale":[1.0,1.0,1.0],"name":"node50"}],"scene":0,"scenes":[{"nodes":[0]}],"textures":[{"extensions":{"MSFT_texture_dds":{"source":0}}},{"extensions":{"MSFT_texture_dds":{"source":1}}},{"extensions":{"MSFT_texture_dds":{"source":2}}}],"extensionsUsed":["ASOBO_material_day_night_switch","MSFT_texture_dds","ASOBO_asset_optimized"],"buffers":[{"byteLength":3036,"uri":"HTAI Gulfstream G-IV MSFS_LOD1.bin"}],"images":[{"uri":"AIGIV.PNG.DDS","extras":"ASOBO_image_converted_meta"},{"uri":"AIGIV_C.PNG.DDS","extras":"ASOBO_image_converted_meta"},{"uri":"CABIN_LIGHTS.PNG.DDS","extras":"ASOBO_image_converted_meta"}]}
