{"accessors":[{"bufferView":0,"componentType":5126,"count":39,"min":[0.0],"max":[100.0],"type":"SCALAR"},{"bufferView":1,"componentType":5126,"count":39,"type":"VEC4"},{"bufferView":2,"componentType":5126,"count":62,"min":[-11.916000366210938,-1.2640000581741334,-12.199999809265137],"max":[11.916000366210938,5.627999782562256,10.383999824523926],"type":"VEC3","name":"part000_vertices#0_POSITION"},{"bufferView":2,"byteOffset":12,"componentType":5120,"count":62,"type":"VEC4","name":"part000_vertices#0_TANGENT"},{"bufferView":2,"byteOffset":16,"componentType":5120,"count":62,"type":"VEC4","name":"part000_vertices#0_NORMAL"},{"bufferView":2,"byteOffset":20,"componentType":5122,"count":62,"type":"VEC2","name":"part000_vertices#0_TEXCOORD_0"},{"bufferView":2,"byteOffset":24,"componentType":5122,"count":62,"type":"VEC2","name":"part000_vertices#0_TEXCOORD_1"},{"bufferView":2,"byteOffset":28,"componentType":5123,"count":62,"type":"VEC4","name":"part000_vertices#0_COLOR_0"},{"bufferView":3,"componentType":5123,"count":90,"type":"SCALAR","name":"part000_indices#0"}],"animations":[{"name":"c_gear","channels":[{"sampler":0,"target":{"node":36,"path":"rotation"}}],"samplers":[{"input":0,"output":1,"interpolation":"LINEAR"}]}],"asset":{"generator":"ModelConverterX","version":"2.0","extensions":{"ASOBO_asset_optimized":{"BoundingBoxMax":[11.916000366210938,5.627999782562256,10.383999824523926],"BoundingBoxMin":[-11.916000366210938,-1.2640000581741334,-12.199999809265137],"MajorVersion":4,"MinorVersion":3,"UseCheckerboardMaterialForMissingTextures":true}}},"bufferViews":[{"buffer":0,"byteLength":156,"byteStride":4},{"buffer":0,"byteLength":624,"byteStride":16,"byteOffset":156},{"buffer":0,"byteLength":2232,"byteStride":36,"byteOffset":780,"target":34962,"name":"BufferViewVertexND"},{"buffer":0,"byteLength":180,"byteOffset":3012,"target":34963,"name":"BufferViewIndex"}],"extensionsRequired":["MSFT_texture_dds"],"materials":[{"name":"material00","occlusionTexture":{"index":1},"emissiveTexture":{"index":2},"emissiveFactor":[1.0,1.0,1.0],"pbrMetallicRoughness":{"baseColorTexture":{"index":0},"metallicRoughnessTexture":{"index":1}},"extensions":{"ASOBO_material_day_night_switch":{}}}],"meshes":[{"primitives":[{"attributes":{"COLOR_0":7,"NORMAL":4,"POSITION":2,"TANGENT":3,"TEXCOORD_0":5,"TEXCOORD_1":6},"indices":8,"material":0,"mode":4,"extras":{"ASOBO_primitive":{"PrimitiveCount":30,"VertexType":"VTX","VertexVersion":2}}}],"name":"part000"}],"nodes":[{"name":"node0","children":[1,2,3,4,5,6,7,8,9,10,11,12,13,14,15,16,17,18,19,20,21,22,23,24,25,26,27,28,29,30,31,32,33]},{"mesh":0,"name":"node1"},{"translation":[4.0,1.0,-0.4999999999999995],"rotation":[-6.123031769111886e-17,3.061515884555943e-17,1.0,1.874575902277672e-33],"scale":[1.0,1.0,1.0],"name":"contrail1"},{"translation":[1.4299999475479118,0.12999999523162843,6.550000190734863],"rotation":[0.5609854601205276,0.43045943880780188,0.03084378483062152,-0.7064338104358501],"scale":[1.0,1.0,1.0],"name":"wing_l"},{"translation":[-1.4299999475479138,0.12999999523162843,6.769999980926514],"rotation":[-0.5609854713978782,0.430459287639394,0.030843727406116806,0.7064337962345881],"scale":[1.0,1.0,1.0],"name":"wing_r"},{"translation":[1.419999957084657,4.71999979019165,-10.229999542236329],"rotation":[0.6408563057883975,-0.2988361502041592,-0.6963643913854996,-0.12278769146725988],"scale":[1.0,1.0,1.0],"name":"logo_l"},{"translation":[-1.4199999570846545,4.71999979019165,-10.229999542236329],"rotation":[0.6408563567427558,0.2988361074125761,0.6963643360177086,-0.12278781594242946],"scale":[1.0,1.0,1.0],"name":"logo_r"},{"translation":[1.070000052452087,-0.9900000095367432,3.0299999713897707],"rotation":[-4.329637285359677e-17,0.7071067811865475,0.7071067811865475,4.329637285359677e-17],"scale":[1.0,1.0,1.0],"name":"landing_l"},{"translation":[-1.0700000524520879,-0.9900000095367432,3.0299999713897707],"rotation":[-0.030843644469385604,0.7064337687255942,0.7064337687255942,0.030843644469385604],"scale":[1.0,1.0,1.0],"name":"landing_r"},{"translation":[-4.0,1.0,-0.5000000000000004],"rotation":[-6.123031769111886e-17,3.061515884555943e-17,1.0,1.874575902277672e-33],"scale":[1.0,1.0,1.0],"name":"contrail2"},{"translation":[-1.119780049935182e-16,0.0,0.9144],"rotation":[-4.329637285359677e-17,0.7071067811865475,0.7071067811865475,4.329637285359677e-17],"scale":[1.0,1.0,1.0],"name":"node12"},{"translation":[12.100560000000002,1.8288,0.6248400000000014],"rotation":[-4.329637285359677e-17,0.7071067811865475,0.7071067811865475,4.329637285359677e-17],"scale":[1.0,1.0,1.0],"name":"node13"},{"translation":[-12.100560000000002,1.8288,0.6248399999999985],"rotation":[-4.329637285359677e-17,0.7071067811865475,0.7071067811865475,4.329637285359677e-17],"scale":[1.0,1.0,1.0],"name":"node14"},{"translation":[12.1158,1.8288,0.5029200000000015],"rotation":[-4.329637285359677e-17,0.7071067811865475,0.7071067811865475,4.329637285359677e-17],"scale":[1.0,1.0,1.0],"name":"node15"},{"translation":[-12.1158,1.8288,0.5029199999999986],"rotation":[-4.329637285359677e-17,0.7071067811865475,0.7071067811865475,4.329637285359677e-17],"scale":[1.0,1.0,1.0],"name":"node16"},{"translation":[1.3344045595060918e-15,5.562600000000001,-10.8966],"rotation":[-4.329637285359677e-17,0.7071067811865475,0.7071067811865475,4.329637285359677e-17],"scale":[1.0,1.0,1.0],"name":"node17"},{"translation":[1.4743770657479893e-15,0.8382,-12.0396],"rotation":[-4.329637285359677e-17,0.7071067811865475,0.7071067811865475,4.329637285359677e-17],"scale":[1.0,1.0,1.0],"name":"node18"},{"translation":[1.476243365831215e-15,0.6858000000000001,-12.05484],"rotation":[-4.329637285359677e-17,0.7071067811865475,0.7071067811865475,4.329637285359677e-17],"scale":[1.0,1.0,1.0],"name":"node19"},{"translation":[-1.4930400665802423e-16,-1.38684,1.2192],"rotation":[-4.329637285359677e-17,0.7071067811865475,0.7071067811865475,4.329637285359677e-17],"scale":[1.0,1.0,1.0],"name":"node20"},{"translation":[-1.3437360599222185e-15,-1.93548,10.9728],"rotation":[-4.329637285359677e-17,0.7071067811865475,0.7071067811865475,4.329637285359677e-17],"scale":[1.0,1.0,1.0],"name":"node21"},{"translation":[4.572,-2.14884,-1.9811999999999992],"rotation":[-4.329637285359677e-17,0.7071067811865475,0.7071067811865475,4.329637285359677e-17],"scale":[1.0,1.0,1.0],"name":"node22"},{"translation":[-4.572,-2.14884,-1.9812000000000008],"rotation":[-4.329637285359677e-17,0.7071067811865475,0.7071067811865475,4.329637285359677e-17],"scale":[1.0,1.0,1.0],"name":"node23"},{"translation":[7.290816000000001,-0.9144,-1.0149839999999993],"rotation":[-4.329637285359677e-17,0.7071067811865475,0.7071067811865475,4.329637285359677e-17],"scale":[1.0,1.0,1.0],"name":"node24"},{"translation":[-7.290816000000001,-0.9144,-1.014984000000001],"rotation":[-4.329637285359677e-17,0.7071067811865475,0.7071067811865475,4.329637285359677e-17],"scale":[1.0,1.0,1.0],"name":"node25"},{"translation":[8.461804577343524e-16,0.0,-6.909816000000001],"rotation":[-4.329637285359677e-17,0.7071067811865475,0.7071067811865475,4.329637285359677e-17],"scale":[1.0,1.0,1.0],"name":"node26"},{"translation":[-8.614841184167998e-16,-0.4572000000000001,7.034784],"rotation":[-4.329637285359677e-17,0.7071067811865475,0.7071067811865475,4.329637285359677e-17],"scale":[1.0,1.0,1.0],"name":"node27"},{"translation":[4.4196,0.0,5.412270241353378e-16],"rotation":[-4.329637285359677e-17,0.7071067811865475,0.7071067811865475,4.329637285359677e-17],"scale":[1.0,1.0,1.0],"name":"node28"},{"translation":[1.8288,0.0,2.239560099870364e-16],"rotation":[-4.329637285359677e-17,0.7071067811865475,0.7071067811865475,4.329637285359677e-17],"scale":[1.0,1.0,1.0],"name":"node29"},{"translation":[-4.4196,0.0,-5.412270241353378e-16],"rotation":[-4.329637285359677e-17,0.7071067811865475,0.7071067811865475,4.329637285359677e-17],"scale":[1.0,1.0,1.0],"name":"node30"},{"translation":[-1.8288,0.0,-2.239560099870364e-16],"rotation":[-4.329637285359677e-17,0.7071067811865475,0.7071067811865475,4.329637285359677e-17],"scale":[1.0,1.0,1.0],"name":"node31"},{"translation":[0.0,0.0,0.0],"rotation":[-4.329637285359677e-17,0.7071067811865475,0.7071067811865475,4.329637285359677e-17],"scale":[1.0,1.0,1.0],"name":"node32"},{"translation":[1.4630400000000004,0.1524,-2.5298400000000007],"rotation":[-4.329637285359677e-17,0.7071067811865475,0.7071067811865475,4.329637285359677e-17],"scale":[1.0,1.0,1.0],"name":"node33"},{"translation":[-1.46304,0.1524,-2.5298400000000007],"rotation":[-4.329637285359677e-17,0.7071067811865475,0.7071067811865475,4.329637285359677e-17],"scale":[1.0,1.0,1.0],"name":"node34"},{"translation":[0.0,0.0,0.0],"rotation":[-4.329637285359677e-17,0.7071067811865475,0.7071067811865475,4.329637285359677e-17],"scale":[1.0,1.0,1.0],"name":"node35","children":[34]},{"translation":[0.0,-1.0485019683837893,2.0653369426727297],"rotation":[0.0,0.0,0.0,1.0],"scale":[1.0,1.0,1.0],"name":"node40","children":[35]},{"translation":[-0.0000019999999949504856,9.824545860290528,-2.8824479579925539],"rotation":[0.0,0.0,0.0,1.0],"scale":[1.0,1.0,1.0],"name":"node73","children":[36]},{"name":"node35_anim_c_gear","children":[37,38,39,40]},{"translation":[0.09322524646403174,-0.1500016704347448,-0.24193487527708713],"rotation":[-0.03084299055616945,0.03084398893363594,-0.706433775480835,0.706433775480835],"scale":[1.0,1.0,1.0],"name":"landing_nose_r"},{"translation":[0.0932252649401004,0.14999834148588513,-0.2419344521045328],"rotation":[-0.03084299055616945,0.03084398893363594,-0.706433775480835,0.706433775480835],"scale":[1.0,1.0,1.0],"name":"landing_nose_l"},{"translation":[0.0932252649401004,0.14999834148588513,-0.2419344521045328],"rotation":[-0.03084299055616945,0.03084398893363594,-0.706433775480835,0.706433775480835],"scale":[1.0,1.0,1.0],"name":"taxi_l"},{"translation":[0.09322524646403174,-0.1500016704347448,-0.24193487527708713],"rotation":[-0.03084299055616945,0.03084398893363594,-0.706433775480835,0.706433775480835],"scale":[1.0,1.0,1.0],"name":"taxi_r"}],"scene":0,"scenes":[{"nodes":[0]}],"textures":[{"extensions":{"MSFT_texture_dds":{"source":0}}},{"extensions":{"MSFT_texture_dds":{"source":1}}},{"extensions":{"MSFT_texture_dds":{"source":2}}}],"extensionsUsed":["ASOBO_material_day_night_switch","MSFT_texture_dds","ASOBO_asset_optimized"],"buffers":[{"byteLength":3192,"uri":"OSP_ATR_42-500_MSFS_LOD1.bin"}],"images":[{"uri":"OSP_ATR_42_500_T.PNG.DDS","extras":"ASOBO_image_converted_meta"},{"uri":"OSP_ATR_42_500_C.PNG.DDS","extras":"ASOBO_image_converted_meta"},{"uri":"OSP_ATR_42_500_L.PNG.DDS","extras":"ASOBO_image_converted_meta"}]}
