{"accessors":[{"bufferView":0,"componentType":5126,"count":260,"min":[-31.7102108001709,-2.8452699184417726,-39.6097412109375],"max":[31.706199645996095,16.23526954650879,31.350040435791017],"type":"VEC3","name":"part000_vertices#0_POSITION"},{"bufferView":0,"byteOffset":12,"componentType":5120,"count":260,"type":"VEC4","name":"part000_vertices#0_TANGENT"},{"bufferView":0,"byteOffset":16,"componentType":5120,"count":260,"type":"VEC4","name":"part000_vertices#0_NORMAL"},{"bufferView":0,"byteOffset":20,"componentType":5122,"count":260,"type":"VEC2","name":"part000_vertices#0_TEXCOORD_0"},{"bufferView":0,"byteOffset":24,"componentType":5122,"count":260,"type":"VEC2","name":"part000_vertices#0_TEXCOORD_1"},{"bufferView":0,"byteOffset":28,"componentType":5123,"count":260,"type":"VEC4","name":"part000_vertices#0_COLOR_0"},{"bufferView":1,"componentType":5123,"count":474,"type":"SCALAR","name":"part000_indices#0"}],"asset":{"generator":"ModelConverterX","version":"2.0","extensions":{"ASOBO_asset_optimized":{"BoundingBoxMax":[31.706199645996095,16.23526954650879,31.350040435791017],"BoundingBoxMin":[-31.7102108001709,-2.8452699184417726,-39.6097412109375],"MajorVersion":4,"MinorVersion":3,"UseCheckerboardMaterialForMissingTextures":true}}},"bufferViews":[{"buffer":0,"byteLength":9360,"byteStride":36,"target":34962,"name":"BufferViewVertexND"},{"buffer":0,"byteLength":948,"byteOffset":9360,"target":34963,"name":"BufferViewIndex"}],"extensionsRequired":["MSFT_texture_dds"],"materials":[{"name":"material00","occlusionTexture":{"index":1},"emissiveTexture":{"index":2},"emissiveFactor":[1.0,1.0,1.0],"pbrMetallicRoughness":{"baseColorTexture":{"index":0},"metallicRoughnessTexture":{"index":1}},"extensions":{"ASOBO_material_day_night_switch":{}}}],"meshes":[{"primitives":[{"attributes":{"COLOR_0":5,"NORMAL":2,"POSITION":0,"TANGENT":1,"TEXCOORD_0":3,"TEXCOORD_1":4},"indices":6,"material":0,"mode":4,"extras":{"ASOBO_primitive":{"PrimitiveCount":158,"VertexType":"VTX","VertexVersion":2}}}],"name":"part000"}],"nodes":[{"name":"node0","children":[1,2,3,4,5,6,7,8,9,10,11,12,13,14,15,16,17,18,19,20,21,22,23,24,25,26,27,28,29,30,31,32,33,34,35,36,37,38,39,40,41,42,43,44]},{"mesh":0,"name":"node1"},{"translation":[9.10999965667725,5.059999942779541,-36.150001525878909],"rotation":[-0.32101978008180867,0.63003696262266,0.4545194105793129,0.541675024283079],"scale":[1.0,1.0,1.0],"name":"logo_l"},{"translation":[-9.10999965667724,5.059999942779541,-36.150001525878909],"rotation":[0.3210197800818086,0.63003696262266,0.454519410579313,-0.541675024283079],"scale":[1.0,1.0,1.0],"name":"logo_r"},{"translation":[-5.170000076293946,0.33000001311302187,8.970000267028809],"rotation":[-0.030843644469385237,0.7064337687255942,0.7064337687255942,0.03084364446938523],"scale":[1.0,1.0,1.0],"name":"landing_r1"},{"translation":[-5.829999923706056,0.33000001311302187,8.369999885559082],"rotation":[-0.09229593006251129,0.7010573880174832,0.7010573880174833,0.09229593006251129],"scale":[1.0,1.0,1.0],"name":"landing_r2"},{"translation":[5.170000076293944,0.33000001311302187,8.970000267028809],"rotation":[-0.03084364446938532,-0.7064337687255942,-0.7064337687255942,0.030843644469385316],"scale":[1.0,1.0,1.0],"name":"landing_l1"},{"translation":[5.829999923706054,0.33000001311302187,8.369999885559082],"rotation":[0.0922959300625112,0.7010573880174832,0.7010573880174833,-0.0922959300625112],"scale":[1.0,1.0,1.0],"name":"landing_l2"},{"translation":[20.66,-0.66,-6.859999999999998],"rotation":[-6.123031769111886e-17,3.061515884555943e-17,1.0,1.874575902277672e-33],"scale":[1.0,1.0,1.0],"name":"contrail1"},{"translation":[-20.66,-0.66,-6.860000000000003],"rotation":[-6.123031769111886e-17,3.061515884555943e-17,1.0,1.874575902277672e-33],"scale":[1.0,1.0,1.0],"name":"contrail4"},{"translation":[11.66,-1.62,1.9000000000000013],"rotation":[-6.123031769111886e-17,3.061515884555943e-17,1.0,1.874575902277672e-33],"scale":[1.0,1.0,1.0],"name":"contrail2"},{"translation":[-11.66,-1.62,1.8999999999999984],"rotation":[-6.123031769111886e-17,3.061515884555943e-17,1.0,1.874575902277672e-33],"scale":[1.0,1.0,1.0],"name":"contrail3"},{"translation":[0.0,0.0,0.0],"rotation":[-4.329637285359677e-17,0.7071067811865476,0.7071067811865475,4.329637285359677e-17],"scale":[1.0,1.0,1.0],"name":"node14"},{"translation":[31.549848000000006,2.520696,-14.078711999999996],"rotation":[-4.329637285359677e-17,0.7071067811865476,0.7071067811865475,4.329637285359677e-17],"scale":[1.0,1.0,1.0],"name":"node15"},{"translation":[-31.552896,2.520696,-14.075664000000004],"rotation":[-4.329637285359677e-17,0.7071067811865476,0.7071067811865475,4.329637285359677e-17],"scale":[1.0,1.0,1.0],"name":"node16"},{"translation":[31.565088000000004,2.523744,-14.118335999999998],"rotation":[-4.329637285359677e-17,0.7071067811865476,0.7071067811865475,4.329637285359677e-17],"scale":[1.0,1.0,1.0],"name":"node17"},{"translation":[-31.565088000000004,2.520696,-14.133576000000004],"rotation":[-4.329637285359677e-17,0.7071067811865476,0.7071067811865475,4.329637285359677e-17],"scale":[1.0,1.0,1.0],"name":"node18"},{"translation":[-3.419061752468755e-16,-1.792224,2.791968],"rotation":[-4.329637285359677e-17,0.7071067811865476,0.7071067811865475,4.329637285359677e-17],"scale":[1.0,1.0,1.0],"name":"node19"},{"translation":[-1.5975528712408596e-16,7.74192,1.304544],"rotation":[-4.329637285359677e-17,0.7071067811865476,0.7071067811865475,4.329637285359677e-17],"scale":[1.0,1.0,1.0],"name":"node20"},{"translation":[0.045720000000004517,3.61188,-36.813744],"rotation":[-4.329637285359677e-17,0.7071067811865476,0.7071067811865475,4.329637285359677e-17],"scale":[1.0,1.0,1.0],"name":"node21"},{"translation":[-0.04571999999999549,3.61188,-36.813744],"rotation":[-4.329637285359677e-17,0.7071067811865476,0.7071067811865475,4.329637285359677e-17],"scale":[1.0,1.0,1.0],"name":"node22"},{"translation":[-2.8182661622770324e-15,-3.86215128,23.01364968],"rotation":[-4.329637285359677e-17,0.7071067811865476,0.7071067811865475,4.329637285359677e-17],"scale":[1.0,1.0,1.0],"name":"node23"},{"translation":[5.4864000000000019,-4.365924720000001,-4.59940152],"rotation":[-4.329637285359677e-17,0.7071067811865476,0.7071067811865475,4.329637285359677e-17],"scale":[1.0,1.0,1.0],"name":"node24"},{"translation":[-5.4864,-4.365924720000001,-4.599401520000002],"rotation":[-4.329637285359677e-17,0.7071067811865476,0.7071067811865475,4.329637285359677e-17],"scale":[1.0,1.0,1.0],"name":"node25"},{"translation":[14.426184,0.0,-4.319015999999999],"rotation":[-4.329637285359677e-17,0.7071067811865476,0.7071067811865475,4.329637285359677e-17],"scale":[1.0,1.0,1.0],"name":"node26"},{"translation":[-14.426184,0.0,-4.319016000000002],"rotation":[-4.329637285359677e-17,0.7071067811865476,0.7071067811865475,4.329637285359677e-17],"scale":[1.0,1.0,1.0],"name":"node27"},{"translation":[2.015604089883327e-15,0.862584,-16.4592],"rotation":[-4.329637285359677e-17,0.7071067811865476,0.7071067811865475,4.329637285359677e-17],"scale":[1.0,1.0,1.0],"name":"node28"},{"translation":[-1.5927004910244737e-15,-1.143,13.005816],"rotation":[-4.329637285359677e-17,0.7071067811865476,0.7071067811865475,4.329637285359677e-17],"scale":[1.0,1.0,1.0],"name":"node29"},{"translation":[0.0,0.0,0.0],"rotation":[-4.329637285359677e-17,0.7071067811865476,0.7071067811865475,4.329637285359677e-17],"scale":[1.0,1.0,1.0],"name":"node30"},{"translation":[5.7912,0.0,-0.9143999999999993],"rotation":[-4.329637285359677e-17,0.7071067811865476,0.7071067811865475,4.329637285359677e-17],"scale":[1.0,1.0,1.0],"name":"node31"},{"translation":[-5.7912,0.0,-0.9144000000000008],"rotation":[-4.329637285359677e-17,0.7071067811865476,0.7071067811865475,4.329637285359677e-17],"scale":[1.0,1.0,1.0],"name":"node32"},{"translation":[0.0,0.0,0.0],"rotation":[-4.329637285359677e-17,0.7071067811865476,0.7071067811865475,4.329637285359677e-17],"scale":[1.0,1.0,1.0],"name":"node33"},{"translation":[0.4571999999999985,0.0,12.4968],"rotation":[-4.329637285359677e-17,0.7071067811865476,0.7071067811865475,4.329637285359677e-17],"scale":[1.0,1.0,1.0],"name":"node34"},{"translation":[-0.4572000000000016,0.0,12.4968],"rotation":[-4.329637285359677e-17,0.7071067811865476,0.7071067811865475,4.329637285359677e-17],"scale":[1.0,1.0,1.0],"name":"node35"},{"translation":[0.0,0.0,0.0],"rotation":[-4.329637285359677e-17,0.7071067811865476,0.7071067811865475,4.329637285359677e-17],"scale":[1.0,1.0,1.0],"name":"node36"},{"translation":[-9.518130424449046e-16,0.0,7.7724],"rotation":[-4.329637285359677e-17,0.7071067811865476,0.7071067811865475,4.329637285359677e-17],"scale":[1.0,1.0,1.0],"name":"node37"},{"translation":[-4.105860183095667e-16,0.0,3.3528],"rotation":[-4.329637285359677e-17,0.7071067811865476,0.7071067811865475,4.329637285359677e-17],"scale":[1.0,1.0,1.0],"name":"node38"},{"translation":[3.7326001664506055e-16,0.0,-3.048],"rotation":[-4.329637285359677e-17,0.7071067811865476,0.7071067811865475,4.329637285359677e-17],"scale":[1.0,1.0,1.0],"name":"node39"},{"translation":[1.138443050767435e-15,0.0,-9.2964],"rotation":[-4.329637285359677e-17,0.7071067811865476,0.7071067811865475,4.329637285359677e-17],"scale":[1.0,1.0,1.0],"name":"node40"},{"translation":[-7.651830341223742e-16,0.0,6.2484],"rotation":[-4.329637285359677e-17,0.7071067811865476,0.7071067811865475,4.329637285359677e-17],"scale":[1.0,1.0,1.0],"name":"node41"},{"translation":[1.0264650457739166e-15,0.0,-8.382],"rotation":[-4.329637285359677e-17,0.7071067811865476,0.7071067811865475,4.329637285359677e-17],"scale":[1.0,1.0,1.0],"name":"node42"},{"translation":[20.159472,-0.844296,-6.358127999999997],"rotation":[-4.329637285359677e-17,0.7071067811865476,0.7071067811865475,4.329637285359677e-17],"scale":[1.0,1.0,1.0],"name":"node43"},{"translation":[11.527536,-1.716024,1.7861280000000016],"rotation":[-4.329637285359677e-17,0.7071067811865476,0.7071067811865475,4.329637285359677e-17],"scale":[1.0,1.0,1.0],"name":"node44"},{"translation":[-11.527536,-1.716024,1.7861279999999989],"rotation":[-4.329637285359677e-17,0.7071067811865476,0.7071067811865475,4.329637285359677e-17],"scale":[1.0,1.0,1.0],"name":"node45"},{"translation":[-20.159472,-0.844296,-6.3581280000000028],"rotation":[-4.329637285359677e-17,0.7071067811865476,0.7071067811865475,4.329637285359677e-17],"scale":[1.0,1.0,1.0],"name":"node46"}],"scene":0,"scenes":[{"nodes":[0]}],"textures":[{"extensions":{"MSFT_texture_dds":{"source":0}}},{"extensions":{"MSFT_texture_dds":{"source":1}}},{"extensions":{"MSFT_texture_dds":{"source":2}}}],"extensionsUsed":["ASOBO_material_day_night_switch","MSFT_texture_dds","ASOBO_asset_optimized"],"buffers":[{"byteLength":10308,"uri":"AIA_747_400_LCF_MSFS_LOD1.bin"}],"images":[{"uri":"AIA_747_LCF_T.PNG.DDS","extras":"ASOBO_image_converted_meta"},{"uri":"AIA_747_LCF_C.PNG.DDS","extras":"ASOBO_image_converted_meta"},{"uri":"AIA_747_LCF_L.PNG.DDS","extras":"ASOBO_image_converted_meta"}]}
