{"accessors":[{"bufferView":0,"componentType":5126,"count":86,"min":[-6.60306978225708,-8.04325008392334,-0.5181300044059753],"max":[6.603050231933594,6.521080017089844,3.1142499446868898],"type":"VEC3","name":"part000_vertices#0_POSITION"},{"bufferView":0,"byteOffset":12,"componentType":5120,"count":86,"type":"VEC4","name":"part000_vertices#0_TANGENT"},{"bufferView":0,"byteOffset":16,"componentType":5120,"count":86,"type":"VEC4","name":"part000_vertices#0_NORMAL"},{"bufferView":0,"byteOffset":20,"componentType":5122,"count":86,"type":"VEC2","name":"part000_vertices#0_TEXCOORD_0"},{"bufferView":0,"byteOffset":24,"componentType":5122,"count":86,"type":"VEC2","name":"part000_vertices#0_TEXCOORD_1"},{"bufferView":0,"byteOffset":28,"componentType":5123,"count":86,"type":"VEC4","name":"part000_vertices#0_COLOR_0"},{"bufferView":1,"componentType":5123,"count":168,"type":"SCALAR","name":"part000_indices#0"}],"asset":{"generator":"ModelConverterX","version":"2.0","extensions":{"ASOBO_asset_optimized":{"BoundingBoxMax":[6.603050231933594,6.521080017089844,3.1142499446868898],"BoundingBoxMin":[-6.60306978225708,-8.04325008392334,-0.5181300044059753],"MajorVersion":4,"MinorVersion":3,"UseCheckerboardMaterialForMissingTextures":true}}},"bufferViews":[{"buffer":0,"byteLength":3096,"byteStride":36,"target":34962,"name":"BufferViewVertexND"},{"buffer":0,"byteLength":336,"byteOffset":3096,"target":34963,"name":"BufferViewIndex"}],"extensionsRequired":["MSFT_texture_dds"],"materials":[{"name":"material00","occlusionTexture":{"index":1},"emissiveTexture":{"index":2},"emissiveFactor":[1.0,1.0,1.0],"pbrMetallicRoughness":{"baseColorTexture":{"index":0},"metallicRoughnessTexture":{"index":1}},"extensions":{"ASOBO_material_day_night_switch":{}}}],"meshes":[{"primitives":[{"attributes":{"COLOR_0":5,"NORMAL":2,"POSITION":0,"TANGENT":1,"TEXCOORD_0":3,"TEXCOORD_1":4},"indices":6,"material":0,"mode":4,"extras":{"ASOBO_primitive":{"PrimitiveCount":56,"VertexType":"VTX","VertexVersion":2}}}],"name":"part000"}],"nodes":[{"name":"node0","children":[1,2,3,4,5,6,7,8,9,10,11,12,13,14,15,16,17,18,19,20]},{"translation":[1.2700000000000005,0.67,-4.0],"rotation":[-6.123031769111886e-17,3.061515884555943e-17,1.0,1.874575902277672e-33],"scale":[1.0,1.0,1.0],"name":"contrail1"},{"translation":[-1.2699999999999996,0.67,-4.0],"rotation":[-6.123031769111886e-17,3.061515884555943e-17,1.0,1.874575902277672e-33],"scale":[1.0,1.0,1.0],"name":"contrail2"},{"translation":[-6.718680299611078e-17,0.0,0.5486399999999989],"rotation":[-4.329637285359677e-17,0.7071067811865476,0.7071067811865475,4.329637285359677e-17],"scale":[1.0,1.0,1.0],"name":"node12"},{"translation":[6.583680000000001,-0.012192,-1.554479999999999],"rotation":[-4.329637285359677e-17,0.7071067811865476,0.7071067811865475,4.329637285359677e-17],"scale":[1.0,1.0,1.0],"name":"node13"},{"translation":[-6.583680000000001,-0.012192,-1.5544800000000008],"rotation":[-4.329637285359677e-17,0.7071067811865476,0.7071067811865475,4.329637285359677e-17],"scale":[1.0,1.0,1.0],"name":"node14"},{"translation":[9.480804422784535e-16,3.0693360000000005,-7.741919999999999],"rotation":[-4.329637285359677e-17,0.7071067811865476,0.7071067811865475,4.329637285359677e-17],"scale":[1.0,1.0,1.0],"name":"node15"},{"translation":[8.323698371184848e-16,3.2004,-6.797039999999997],"rotation":[-4.329637285359677e-17,0.7071067811865476,0.7071067811865475,4.329637285359677e-17],"scale":[1.0,1.0,1.0],"name":"node16"},{"translation":[6.583680000000001,-0.012192,-1.5697199999999976],"rotation":[-4.329637285359677e-17,0.7071067811865476,0.7071067811865475,4.329637285359677e-17],"scale":[1.0,1.0,1.0],"name":"node17"},{"translation":[-6.583680000000001,-0.012192,-1.5697199999999992],"rotation":[-4.329637285359677e-17,0.7071067811865476,0.7071067811865475,4.329637285359677e-17],"scale":[1.0,1.0,1.0],"name":"node18"},{"translation":[-5.785530257998441e-16,-1.12776,4.724400000000001],"rotation":[-4.329637285359677e-17,0.7071067811865476,0.7071067811865475,4.329637285359677e-17],"scale":[1.0,1.0,1.0],"name":"node19"},{"translation":[1.2801600000000002,-1.2954,-0.7620000000000003],"rotation":[-4.329637285359677e-17,0.7071067811865476,0.7071067811865475,4.329637285359677e-17],"scale":[1.0,1.0,1.0],"name":"node20"},{"translation":[-1.2801600000000002,-1.2954,-0.7620000000000007],"rotation":[-4.329637285359677e-17,0.7071067811865476,0.7071067811865475,4.329637285359677e-17],"scale":[1.0,1.0,1.0],"name":"node21"},{"translation":[2.5754941148509168e-16,-0.4572000000000001,-2.1031199999999989],"rotation":[-4.329637285359677e-17,0.7071067811865476,0.7071067811865475,4.329637285359677e-17],"scale":[1.0,1.0,1.0],"name":"node22"},{"translation":[3.048,-0.4572000000000001,-0.5486399999999986],"rotation":[-4.329637285359677e-17,0.7071067811865476,0.7071067811865475,4.329637285359677e-17],"scale":[1.0,1.0,1.0],"name":"node23"},{"translation":[-3.048,-0.4572000000000001,-0.5486399999999992],"rotation":[-4.329637285359677e-17,0.7071067811865476,0.7071067811865475,4.329637285359677e-17],"scale":[1.0,1.0,1.0],"name":"node24"},{"translation":[0.36575999999999939,0.0,5.3340000000000009],"rotation":[-4.329637285359677e-17,0.7071067811865476,0.7071067811865475,4.329637285359677e-17],"scale":[1.0,1.0,1.0],"name":"node25"},{"translation":[-0.3657600000000007,0.0,5.3340000000000009],"rotation":[-4.329637285359677e-17,0.7071067811865476,0.7071067811865475,4.329637285359677e-17],"scale":[1.0,1.0,1.0],"name":"node26"},{"translation":[1.4630400000000004,0.24384000000000004,-2.5298399999999985],"rotation":[-4.329637285359677e-17,0.7071067811865476,0.7071067811865475,4.329637285359677e-17],"scale":[1.0,1.0,1.0],"name":"node27"},{"translation":[-1.46304,0.24384000000000004,-2.5298399999999985],"rotation":[-4.329637285359677e-17,0.7071067811865476,0.7071067811865475,4.329637285359677e-17],"scale":[1.0,1.0,1.0],"name":"node28"},{"translation":[0.0,0.0,0.0],"rotation":[-4.329637285359677e-17,0.7071067811865476,0.7071067811865475,4.329637285359677e-17],"scale":[1.0,1.0,1.0],"name":"node29","children":[21]},{"mesh":0,"name":"node30"}],"scene":0,"scenes":[{"nodes":[0]}],"textures":[{"extensions":{"MSFT_texture_dds":{"source":0}}},{"extensions":{"MSFT_texture_dds":{"source":1}}},{"extensions":{"MSFT_texture_dds":{"source":2}}}],"extensionsUsed":["ASOBO_material_day_night_switch","MSFT_texture_dds","ASOBO_asset_optimized"],"buffers":[{"byteLength":3432,"uri":"HTAI Beechjet 400A MSFS_LOD1.bin"}],"images":[{"uri":"400A.PNG.DDS","extras":"ASOBO_image_converted_meta"},{"uri":"400A_C.PNG.DDS","extras":"ASOBO_image_converted_meta"},{"uri":"CABIN_LIGHTS.PNG.DDS","extras":"ASOBO_image_converted_meta"}]}
