{"accessors":[{"bufferView":0,"componentType":5126,"count":152,"min":[-8.669730186462403,-0.4425700008869171,-10.792200088500977],"max":[8.669730186462403,3.2945899963378908,6.993030071258545],"type":"VEC3","name":"part000_vertices#0_POSITION"},{"bufferView":0,"byteOffset":12,"componentType":5120,"count":152,"type":"VEC4","name":"part000_vertices#0_TANGENT"},{"bufferView":0,"byteOffset":16,"componentType":5120,"count":152,"type":"VEC4","name":"part000_vertices#0_NORMAL"},{"bufferView":0,"byteOffset":20,"componentType":5122,"count":152,"type":"VEC2","name":"part000_vertices#0_TEXCOORD_0"},{"bufferView":0,"byteOffset":24,"componentType":5122,"count":152,"type":"VEC2","name":"part000_vertices#0_TEXCOORD_1"},{"bufferView":0,"byteOffset":28,"componentType":5123,"count":152,"type":"VEC4","name":"part000_vertices#0_COLOR_0"},{"bufferView":1,"componentType":5123,"count":240,"type":"SCALAR","name":"part000_indices#0"},{"bufferView":0,"byteOffset":5472,"componentType":5126,"count":6,"min":[-2.611530065536499,0.010850000195205212,2.0625500679016115],"max":[2.611530065536499,0.5140100121498108,2.595410108566284],"type":"VEC3","name":"part001_vertices#0_POSITION"},{"bufferView":0,"byteOffset":5484,"componentType":5120,"count":6,"type":"VEC4","name":"part001_vertices#0_TANGENT"},{"bufferView":0,"byteOffset":5488,"componentType":5120,"count":6,"type":"VEC4","name":"part001_vertices#0_NORMAL"},{"bufferView":0,"byteOffset":5492,"componentType":5122,"count":6,"type":"VEC2","name":"part001_vertices#0_TEXCOORD_0"},{"bufferView":0,"byteOffset":5496,"componentType":5122,"count":6,"type":"VEC2","name":"part001_vertices#0_TEXCOORD_1"},{"bufferView":0,"byteOffset":5500,"componentType":5123,"count":6,"type":"VEC4","name":"part001_vertices#0_COLOR_0"},{"bufferView":1,"byteOffset":480,"componentType":5123,"count":6,"type":"SCALAR","name":"part001_indices#0"}],"asset":{"generator":"ModelConverterX","version":"2.0","extensions":{"ASOBO_asset_optimized":{"BoundingBoxMax":[8.669730186462403,3.2945899963378908,6.993030071258545],"BoundingBoxMin":[-8.669730186462403,-0.4425700008869171,-10.792200088500977],"MajorVersion":4,"MinorVersion":3,"UseCheckerboardMaterialForMissingTextures":true}}},"bufferViews":[{"buffer":0,"byteLength":5688,"byteStride":36,"target":34962,"name":"BufferViewVertexND"},{"buffer":0,"byteLength":492,"byteOffset":5688,"target":34963,"name":"BufferViewIndex"}],"extensionsRequired":["MSFT_texture_dds"],"materials":[{"name":"material00","occlusionTexture":{"index":1},"emissiveTexture":{"index":2},"emissiveFactor":[1.0,1.0,1.0],"pbrMetallicRoughness":{"baseColorTexture":{"index":0},"metallicRoughnessTexture":{"index":1}},"extensions":{"ASOBO_material_day_night_switch":{}}},{"name":"material01","pbrMetallicRoughness":{"baseColorFactor":[0.4392159879207611,0.4392159879207611,0.4392159879207611,1.0],"metallicFactor":0.0}}],"meshes":[{"primitives":[{"attributes":{"COLOR_0":5,"NORMAL":2,"POSITION":0,"TANGENT":1,"TEXCOORD_0":3,"TEXCOORD_1":4},"indices":6,"material":0,"mode":4,"extras":{"ASOBO_primitive":{"PrimitiveCount":80,"VertexType":"VTX","VertexVersion":2}}}],"name":"part000"},{"primitives":[{"attributes":{"COLOR_0":12,"NORMAL":9,"POSITION":7,"TANGENT":8,"TEXCOORD_0":10,"TEXCOORD_1":11},"indices":13,"material":1,"mode":4,"extras":{"ASOBO_primitive":{"PrimitiveCount":2,"VertexType":"VTX","VertexVersion":2}}}],"name":"part001"}],"nodes":[{"name":"node0","children":[1,2,3,4,5,6,7,8,9,10,11,12,13,14,15,16,17,18,19,20,21,22,23,24,25,26,27,28,29,30]},{"mesh":0,"name":"node1"},{"mesh":1,"name":"node2"},{"translation":[1.7300000190734875,3.0999999046325685,-9.729999542236329],"rotation":[-0.14454395769732276,0.30997569206635036,0.8516507490488197,0.39713110714947316],"scale":[1.0,1.0,1.0],"name":"logo_l"},{"translation":[-1.7300000190734853,3.0999999046325685,-9.729999542236329],"rotation":[0.14454395769732265,0.30997569206635047,0.8516507490488197,-0.397131107149473],"scale":[1.0,1.0,1.0],"name":"logo_r"},{"translation":[3.1500000953674318,-0.10000000149011612,0.7300000190734868],"rotation":[-0.03084364446938532,-0.7064337687255942,-0.7064337687255942,0.030843644469385316],"scale":[1.0,1.0,1.0],"name":"landing_l"},{"translation":[-3.1500000953674318,-0.10000000149011612,0.730000019073486],"rotation":[-0.030843644469385237,0.7064337687255942,0.7064337687255942,0.03084364446938523],"scale":[1.0,1.0,1.0],"name":"landing_r"},{"translation":[2.55,0.1,-1.4299999999999996],"rotation":[-6.123031769111886e-17,3.061515884555943e-17,1.0,1.874575902277672e-33],"scale":[1.0,1.0,1.0],"name":"contrail1"},{"translation":[-2.55,0.1,-1.4300000000000002],"rotation":[-6.123031769111886e-17,3.061515884555943e-17,1.0,1.874575902277672e-33],"scale":[1.0,1.0,1.0],"name":"contrail2"},{"translation":[-7.465200332901214e-17,0.0,0.6096],"rotation":[-4.329637285359677e-17,0.7071067811865476,0.7071067811865475,4.329637285359677e-17],"scale":[1.0,1.0,1.0],"name":"node15"},{"translation":[8.44296,0.4572000000000001,-0.06095999999999897],"rotation":[-4.329637285359677e-17,0.7071067811865476,0.7071067811865475,4.329637285359677e-17],"scale":[1.0,1.0,1.0],"name":"node16"},{"translation":[-8.44296,0.4572000000000001,-0.06096000000000104],"rotation":[-4.329637285359677e-17,0.7071067811865476,0.7071067811865475,4.329637285359677e-17],"scale":[1.0,1.0,1.0],"name":"node17"},{"translation":[8.82396,0.6858000000000001,-0.7619999999999989],"rotation":[-4.329637285359677e-17,0.7071067811865476,0.7071067811865475,4.329637285359677e-17],"scale":[1.0,1.0,1.0],"name":"node18"},{"translation":[-8.82396,0.6858000000000001,-0.7620000000000011],"rotation":[-4.329637285359677e-17,0.7071067811865476,0.7071067811865475,4.329637285359677e-17],"scale":[1.0,1.0,1.0],"name":"node19"},{"translation":[1.3250730590899653e-15,3.2004,-10.8204],"rotation":[-4.329637285359677e-17,0.7071067811865476,0.7071067811865475,4.329637285359677e-17],"scale":[1.0,1.0,1.0],"name":"node20"},{"translation":[1.1533734514332373e-15,3.3528,-9.41832],"rotation":[-4.329637285359677e-17,0.7071067811865476,0.7071067811865475,4.329637285359677e-17],"scale":[1.0,1.0,1.0],"name":"node21"},{"translation":[2.239560099870364e-16,-0.5334,-1.8288],"rotation":[-4.329637285359677e-17,0.7071067811865476,0.7071067811865475,4.329637285359677e-17],"scale":[1.0,1.0,1.0],"name":"node22"},{"translation":[-1.119780049935182e-15,-1.85928,9.144],"rotation":[-4.329637285359677e-17,0.7071067811865476,0.7071067811865475,4.329637285359677e-17],"scale":[1.0,1.0,1.0],"name":"node23"},{"translation":[3.6576,-1.8288,-0.9143999999999997],"rotation":[-4.329637285359677e-17,0.7071067811865476,0.7071067811865475,4.329637285359677e-17],"scale":[1.0,1.0,1.0],"name":"node24"},{"translation":[-3.6576,-1.8288,-0.9144000000000003],"rotation":[-4.329637285359677e-17,0.7071067811865476,0.7071067811865475,4.329637285359677e-17],"scale":[1.0,1.0,1.0],"name":"node25"},{"translation":[7.290816000000001,-0.9144,-1.0149839999999993],"rotation":[-4.329637285359677e-17,0.7071067811865476,0.7071067811865475,4.329637285359677e-17],"scale":[1.0,1.0,1.0],"name":"node26"},{"translation":[-7.290816000000001,-0.9144,-1.014984000000001],"rotation":[-4.329637285359677e-17,0.7071067811865476,0.7071067811865475,4.329637285359677e-17],"scale":[1.0,1.0,1.0],"name":"node27"},{"translation":[8.461804577343524e-16,0.0,-6.909816000000001],"rotation":[-4.329637285359677e-17,0.7071067811865476,0.7071067811865475,4.329637285359677e-17],"scale":[1.0,1.0,1.0],"name":"node28"},{"translation":[-8.614841184167998e-16,-0.4572000000000001,7.034784],"rotation":[-4.329637285359677e-17,0.7071067811865476,0.7071067811865475,4.329637285359677e-17],"scale":[1.0,1.0,1.0],"name":"node29"},{"translation":[4.4196,0.0,5.412270241353378e-16],"rotation":[-4.329637285359677e-17,0.7071067811865476,0.7071067811865475,4.329637285359677e-17],"scale":[1.0,1.0,1.0],"name":"node30"},{"translation":[1.8288,0.0,2.239560099870364e-16],"rotation":[-4.329637285359677e-17,0.7071067811865476,0.7071067811865475,4.329637285359677e-17],"scale":[1.0,1.0,1.0],"name":"node31"},{"translation":[-4.4196,0.0,-5.412270241353378e-16],"rotation":[-4.329637285359677e-17,0.7071067811865476,0.7071067811865475,4.329637285359677e-17],"scale":[1.0,1.0,1.0],"name":"node32"},{"translation":[-1.8288,0.0,-2.239560099870364e-16],"rotation":[-4.329637285359677e-17,0.7071067811865476,0.7071067811865475,4.329637285359677e-17],"scale":[1.0,1.0,1.0],"name":"node33"},{"translation":[0.0,0.0,0.0],"rotation":[-4.329637285359677e-17,0.7071067811865476,0.7071067811865475,4.329637285359677e-17],"scale":[1.0,1.0,1.0],"name":"node34"},{"translation":[1.4630400000000004,0.1524,-2.5298400000000007],"rotation":[-4.329637285359677e-17,0.7071067811865476,0.7071067811865475,4.329637285359677e-17],"scale":[1.0,1.0,1.0],"name":"node35"},{"translation":[-1.46304,0.1524,-2.5298400000000007],"rotation":[-4.329637285359677e-17,0.7071067811865476,0.7071067811865475,4.329637285359677e-17],"scale":[1.0,1.0,1.0],"name":"node36"}],"scene":0,"scenes":[{"nodes":[0]}],"textures":[{"extensions":{"MSFT_texture_dds":{"source":0}}},{"extensions":{"MSFT_texture_dds":{"source":1}}},{"extensions":{"MSFT_texture_dds":{"source":2}}}],"extensionsUsed":["ASOBO_material_day_night_switch","MSFT_texture_dds","ASOBO_asset_optimized"],"buffers":[{"byteLength":6180,"uri":"HTAI Beechcraft 1900D MSFS_LOD1.bin"}],"images":[{"uri":"1900D.PNG.DDS","extras":"ASOBO_image_converted_meta"},{"uri":"1900D_C.PNG.DDS","extras":"ASOBO_image_converted_meta"},{"uri":"CABIN_LIGHTS.PNG.DDS","extras":"ASOBO_image_converted_meta"}]}
