{"accessors":[{"bufferView":0,"componentType":5126,"count":3,"min":[0.0],"max":[90.0],"type":"SCALAR"},{"bufferView":1,"componentType":5126,"count":3,"type":"VEC4"},{"bufferView":2,"componentType":5126,"count":90,"min":[-22.391590118408204,-1.2436399459838868,-29.966819763183595],"max":[22.391590118408204,14.796330451965332,25.70224952697754],"type":"VEC3","name":"part000_vertices#0_POSITION"},{"bufferView":2,"byteOffset":12,"componentType":5120,"count":90,"type":"VEC4","name":"part000_vertices#0_TANGENT"},{"bufferView":2,"byteOffset":16,"componentType":5120,"count":90,"type":"VEC4","name":"part000_vertices#0_NORMAL"},{"bufferView":2,"byteOffset":20,"componentType":5122,"count":90,"type":"VEC2","name":"part000_vertices#0_TEXCOORD_0"},{"bufferView":2,"byteOffset":24,"componentType":5122,"count":90,"type":"VEC2","name":"part000_vertices#0_TEXCOORD_1"},{"bufferView":2,"byteOffset":28,"componentType":5123,"count":90,"type":"VEC4","name":"part000_vertices#0_COLOR_0"},{"bufferView":3,"componentType":5123,"count":252,"type":"SCALAR","name":"part000_indices#0"}],"animations":[{"name":"c_gear","channels":[{"sampler":0,"target":{"node":9,"path":"rotation"}}],"samplers":[{"input":0,"output":1,"interpolation":"LINEAR"}]}],"asset":{"generator":"ModelConverterX","version":"2.0","extensions":{"ASOBO_asset_optimized":{"BoundingBoxMax":[22.391590118408204,14.796330451965332,25.70224952697754],"BoundingBoxMin":[-22.391590118408204,-1.2436399459838868,-29.966819763183595],"MajorVersion":4,"MinorVersion":4,"UseCheckerboardMaterialForMissingTextures":true,"UseOnlyFilenameForImageURI":true}}},"bufferViews":[{"buffer":0,"byteLength":12,"byteStride":4},{"buffer":0,"byteLength":48,"byteStride":16,"byteOffset":12},{"buffer":0,"byteLength":3240,"byteStride":36,"byteOffset":60,"target":34962,"name":"BufferViewVertexND"},{"buffer":0,"byteLength":504,"byteOffset":3300,"target":34963,"name":"BufferViewIndex"}],"extensionsRequired":["MSFT_texture_dds"],"materials":[{"name":"material00","occlusionTexture":{"index":1},"pbrMetallicRoughness":{"baseColorTexture":{"index":0},"metallicRoughnessTexture":{"index":1}}}],"meshes":[{"primitives":[{"attributes":{"COLOR_0":7,"NORMAL":4,"POSITION":2,"TANGENT":3,"TEXCOORD_0":5,"TEXCOORD_1":6},"indices":8,"material":0,"mode":4,"extras":{"ASOBO_primitive":{"PrimitiveCount":84,"VertexType":"VTX","VertexVersion":2}}}],"name":"part000"}],"nodes":[{"name":"node0","children":[1,2,3,4,5,6]},{"mesh":0,"name":"node1"},{"translation":[7.800000190734864,-0.20000000298023225,1.2999999523162854],"rotation":[-6.123031769111886e-17,0.0,1.0,0.0],"scale":[1.0,1.0,1.0],"name":"contrail1"},{"translation":[-4.070000171661377,0.949999988079071,-4.984148070274687e-16],"rotation":[-4.329637285359677e-17,0.7071067811865475,0.7071067811865475,4.329637285359677e-17],"scale":[1.0,1.0,1.0],"name":"landing_r"},{"translation":[4.070000171661377,0.949999988079071,4.984148070274687e-16],"rotation":[-4.329637285359677e-17,0.7071067811865475,0.7071067811865475,4.329637285359677e-17],"scale":[1.0,1.0,1.0],"name":"landing_l"},{"translation":[-7.800000190734864,-0.20000000298023225,1.2999999523162834],"rotation":[-6.123031769111886e-17,0.0,1.0,0.0],"scale":[1.0,1.0,1.0],"name":"contrail2"},{"translation":[0.0,0.0,0.0],"rotation":[-4.329637285359677e-17,0.7071067811865475,0.7071067811865475,4.329637285359677e-17],"scale":[1.0,1.0,1.0],"name":"node18","children":[7]},{"translation":[0.0,17.95393943786621,-0.45293301343917849],"rotation":[0.0,0.0,0.0,1.0],"scale":[1.0,1.0,1.0],"name":"node19","children":[8]},{"name":"node20","children":[9]},{"name":"node8_anim_c_gear","children":[10,11,12,13]},{"translation":[-0.25999999046325686,0.1460610032081604,-1.0270669460296634],"rotation":[0.0,0.0,0.0,1.0],"scale":[1.0,1.0,1.0],"name":"taxi_l"},{"translation":[0.25999999046325686,0.1460610032081604,-1.0270669460296634],"rotation":[0.0,0.0,0.0,1.0],"scale":[1.0,1.0,1.0],"name":"taxi_r"},{"translation":[-0.25999999046325686,0.1460610032081604,-1.0270669460296634],"rotation":[0.0,0.0,0.0,1.0],"scale":[1.0,1.0,1.0],"name":"landing_nose_l"},{"translation":[0.25999999046325686,0.1460610032081604,-1.0270669460296634],"rotation":[0.0,0.0,0.0,1.0],"scale":[1.0,1.0,1.0],"name":"landing_nose_r"}],"scene":0,"scenes":[{"nodes":[0]}],"textures":[{"extensions":{"MSFT_texture_dds":{"source":0}}},{"extensions":{"MSFT_texture_dds":{"source":1}}}],"extensionsUsed":["MSFT_texture_dds","ASOBO_asset_optimized"],"buffers":[{"byteLength":3804,"uri":"MRAI_A300-600-Beluga_MSFS_LOD2.bin"}],"images":[{"uri":"AI_BELUGA.PNG.DDS","extras":"ASOBO_image_converted_meta"},{"uri":"AI_BELUGA_C.PNG.DDS","extras":"ASOBO_image_converted_meta"}]}
