{"accessors":[{"bufferView":0,"componentType":5126,"count":3165,"min":[-10.594710350036621,-0.8834599852561951,-15.470919609069825],"max":[10.594710350036621,4.582640171051025,11.256939888000489],"type":"VEC3","name":"part000_vertices#0_POSITION"},{"bufferView":0,"byteOffset":12,"componentType":5120,"count":3165,"type":"VEC4","name":"part000_vertices#0_TANGENT"},{"bufferView":0,"byteOffset":16,"componentType":5120,"count":3165,"type":"VEC4","name":"part000_vertices#0_NORMAL"},{"bufferView":0,"byteOffset":20,"componentType":5122,"count":3165,"type":"VEC2","name":"part000_vertices#0_TEXCOORD_0"},{"bufferView":0,"byteOffset":24,"componentType":5122,"count":3165,"type":"VEC2","name":"part000_vertices#0_TEXCOORD_1"},{"bufferView":0,"byteOffset":28,"componentType":5123,"count":3165,"type":"VEC4","name":"part000_vertices#0_COLOR_0"},{"bufferView":1,"componentType":5123,"count":11754,"type":"SCALAR","name":"part000_indices#0"}],"asset":{"generator":"ModelConverterX","version":"2.0","extensions":{"ASOBO_asset_optimized":{"BoundingBoxMax":[10.594710350036621,4.582640171051025,11.256939888000489],"BoundingBoxMin":[-10.594710350036621,-0.8834599852561951,-15.470919609069825],"MajorVersion":4,"MinorVersion":3,"UseCheckerboardMaterialForMissingTextures":true}}},"bufferViews":[{"buffer":0,"byteLength":113940,"byteStride":36,"target":34962,"name":"BufferViewVertexND"},{"buffer":0,"byteLength":23508,"byteOffset":113940,"target":34963,"name":"BufferViewIndex"}],"extensionsRequired":["MSFT_texture_dds"],"materials":[{"name":"material00","normalTexture":{"index":3},"occlusionTexture":{"index":1},"emissiveTexture":{"index":2},"emissiveFactor":[1.0,1.0,1.0],"pbrMetallicRoughness":{"baseColorTexture":{"index":0},"metallicRoughnessTexture":{"index":1}},"extensions":{"ASOBO_material_day_night_switch":{}}}],"meshes":[{"primitives":[{"attributes":{"COLOR_0":5,"NORMAL":2,"POSITION":0,"TANGENT":1,"TEXCOORD_0":3,"TEXCOORD_1":4},"indices":6,"material":0,"mode":4,"extras":{"ASOBO_primitive":{"PrimitiveCount":3918,"VertexType":"VTX","VertexVersion":2}}}],"name":"part000"}],"nodes":[{"name":"node0","children":[1,2,3,4,5,6,7,8,9,10,11,12,13,14,15]},{"mesh":0,"name":"node1"},{"translation":[1.5115029811859129,-0.4785360097885132,1.295094966888428],"rotation":[0.7071067811865476,-4.329637285359677e-17,4.329637285359677e-17,0.7071067811865475],"scale":[1.0,1.0,1.0],"name":"landing_l1"},{"translation":[-1.5115029811859134,-0.4785360097885132,1.2950949668884276],"rotation":[0.7071067811865476,-4.329637285359677e-17,4.329637285359677e-17,0.7071067811865475],"scale":[1.0,1.0,1.0],"name":"landing_r1"},{"translation":[-0.12161599844694268,-0.34696099162101748,10.79238986968994],"rotation":[0.7071067811865476,-4.329637285359677e-17,4.329637285359677e-17,0.7071067811865475],"scale":[1.0,1.0,1.0],"name":"landing_nose_r"},{"translation":[0.12161500006914009,-0.34696099162101748,10.792360305786133],"rotation":[0.7071067811865476,-4.329637285359677e-17,4.329637285359677e-17,0.7071067811865475],"scale":[1.0,1.0,1.0],"name":"taxi_l"},{"translation":[-1.3441679477691653,0.598567008972168,1.4203679561614989],"rotation":[0.4055796325424186,-0.5792280279548874,0.6579046258304426,0.259155468028661],"scale":[1.0,1.0,1.0],"name":"wing_r"},{"translation":[1.3441679477691649,0.5065600275993347,1.4203679561614993],"rotation":[-0.4055817494912806,-0.5792267574789719,0.6579041619895651,-0.25915617209859395],"scale":[1.0,1.0,1.0],"name":"wing_l"},{"translation":[1.2926939725875866,1.2405359745025638,-9.161678314208985],"rotation":[-0.1359444709282475,0.834730297881277,-0.5266755504887596,-0.08577467656852712],"scale":[1.0,1.0,1.0],"name":"logo_l"},{"translation":[-1.2926570177078237,1.2405359745025638,-9.161678314208985],"rotation":[0.1359399233958978,0.8347327422981904,-0.5266729312639791,0.08577417814393934],"scale":[1.0,1.0,1.0],"name":"logo_r"},{"translation":[0.11999999999999868,-0.35,10.79],"rotation":[0.7071067811865476,-4.329637285359677e-17,4.329637285359677e-17,0.7071067811865475],"scale":[1.0,1.0,1.0],"name":"landing_nose_l"},{"translation":[-0.12000000000000132,-0.35,10.79],"rotation":[0.7071067811865476,-4.329637285359677e-17,4.329637285359677e-17,0.7071067811865475],"scale":[1.0,1.0,1.0],"name":"taxi_r"},{"translation":[1.6499999999999997,-0.48,1.1800000000000002],"rotation":[0.7071067811865476,-4.329637285359677e-17,4.329637285359677e-17,0.7071067811865475],"scale":[1.0,1.0,1.0],"name":"landing_l2"},{"translation":[-1.65,-0.48,1.1799999999999996],"rotation":[0.7071067811865476,-4.329637285359677e-17,4.329637285359677e-17,0.7071067811865475],"scale":[1.0,1.0,1.0],"name":"landing_r2"},{"translation":[2.070000000000001,1.22,-9.5],"rotation":[-6.123031769111886e-17,3.061515884555943e-17,1.0,1.874575902277672e-33],"scale":[1.0,1.0,1.0],"name":"contrail1"},{"translation":[-2.0699999999999987,1.22,-9.5],"rotation":[-6.123031769111886e-17,3.061515884555943e-17,1.0,1.874575902277672e-33],"scale":[1.0,1.0,1.0],"name":"contrail2"}],"scene":0,"scenes":[{"nodes":[0]}],"textures":[{"extensions":{"MSFT_texture_dds":{"source":0}}},{"extensions":{"MSFT_texture_dds":{"source":1}}},{"extensions":{"MSFT_texture_dds":{"source":2}}},{"extensions":{"MSFT_texture_dds":{"source":3}}}],"extensionsUsed":["ASOBO_material_day_night_switch","MSFT_texture_dds","ASOBO_asset_optimized"],"buffers":[{"byteLength":137448,"uri":"RFSL_Bombardier_CRJ-200F_MSFS_LOD1.bin"}],"images":[{"uri":"RFSL_CRJ200FV3_T.PNG.DDS","extras":"ASOBO_image_converted_meta"},{"uri":"RFSL_CRJ200FV3_C.PNG.DDS","extras":"ASOBO_image_converted_meta"},{"uri":"RFSL_CRJ200FV3_L.PNG.DDS","extras":"ASOBO_image_converted_meta"},{"uri":"RFSL_CRJ200FV3_B.PNG.DDS","extras":"ASOBO_image_converted_meta"}]}
