{"accessors":[{"bufferView":0,"componentType":5126,"count":4,"min":[0.0],"max":[200.0],"type":"SCALAR"},{"bufferView":1,"componentType":5126,"count":4,"type":"VEC4"},{"bufferView":2,"componentType":5126,"count":88,"min":[-13.772540092468262,-1.77646005153656,-16.349590301513673],"max":[13.772540092468262,7.84483003616333,12.852800369262696],"type":"VEC3","name":"part000_vertices#0_POSITION"},{"bufferView":2,"byteOffset":12,"componentType":5120,"count":88,"type":"VEC4","name":"part000_vertices#0_TANGENT"},{"bufferView":2,"byteOffset":16,"componentType":5120,"count":88,"type":"VEC4","name":"part000_vertices#0_NORMAL"},{"bufferView":2,"byteOffset":20,"componentType":5122,"count":88,"type":"VEC2","name":"part000_vertices#0_TEXCOORD_0"},{"bufferView":2,"byteOffset":24,"componentType":5122,"count":88,"type":"VEC2","name":"part000_vertices#0_TEXCOORD_1"},{"bufferView":2,"byteOffset":28,"componentType":5123,"count":88,"type":"VEC4","name":"part000_vertices#0_COLOR_0"},{"bufferView":3,"componentType":5123,"count":120,"type":"SCALAR","name":"part000_indices#0"}],"animations":[{"name":"c_gear","channels":[{"sampler":0,"target":{"node":11,"path":"rotation"}}],"samplers":[{"input":0,"output":1,"interpolation":"LINEAR"}]}],"asset":{"generator":"ModelConverterX","version":"2.0","extensions":{"ASOBO_asset_optimized":{"BoundingBoxMax":[13.772540092468262,7.84483003616333,12.852800369262696],"BoundingBoxMin":[-13.772540092468262,-1.77646005153656,-16.349590301513673],"MajorVersion":4,"MinorVersion":3,"UseCheckerboardMaterialForMissingTextures":true}}},"bufferViews":[{"buffer":0,"byteLength":16,"byteStride":4},{"buffer":0,"byteLength":64,"byteStride":16,"byteOffset":16},{"buffer":0,"byteLength":3168,"byteStride":36,"byteOffset":80,"target":34962,"name":"BufferViewVertexND"},{"buffer":0,"byteLength":240,"byteOffset":3248,"target":34963,"name":"BufferViewIndex"}],"extensionsRequired":["MSFT_texture_dds"],"materials":[{"name":"material00","occlusionTexture":{"index":1},"emissiveTexture":{"index":2},"emissiveFactor":[1.0,1.0,1.0],"pbrMetallicRoughness":{"baseColorTexture":{"index":0},"metallicRoughnessTexture":{"index":1}}}],"meshes":[{"primitives":[{"attributes":{"COLOR_0":7,"NORMAL":4,"POSITION":2,"TANGENT":3,"TEXCOORD_0":5,"TEXCOORD_1":6},"indices":8,"material":0,"mode":4,"extras":{"ASOBO_primitive":{"PrimitiveCount":40,"VertexType":"VTX","VertexVersion":2}}}],"name":"part000"}],"nodes":[{"name":"node0","children":[1,2,3,4,5,6,7,8]},{"mesh":0,"name":"node1"},{"translation":[4.45,-1.01,-0.7999999999999995],"rotation":[-6.123031769111886e-17,3.061515884555943e-17,1.0,1.874575902277672e-33],"scale":[1.0,1.0,1.0],"name":"contrail1"},{"translation":[1.8300000000000017,1.9,-14.83],"rotation":[-0.018508135624996693,0.7068486438569557,0.39029253603699379,0.5896559843731609],"scale":[1.0,1.0,1.0000000000000003],"name":"logo_l"},{"translation":[1.81,-0.03,2.41],"rotation":[-4.329637285359677e-17,0.7071067811865476,0.7071067811865475,4.329637285359677e-17],"scale":[1.0,1.0,1.0],"name":"landing_l"},{"translation":[-1.8100000000000006,-0.03,2.41],"rotation":[-4.329637285359677e-17,0.7071067811865476,0.7071067811865475,4.329637285359677e-17],"scale":[1.0,1.0,1.0],"name":"landing_r"},{"translation":[-1.8299999999999984,1.9,-14.83],"rotation":[0.018508135624996634,0.7068486438569557,0.3902925360369938,-0.5896559843731609],"scale":[1.0,1.0,1.0000000000000003],"name":"logo_r"},{"translation":[-4.45,-1.01,-0.8000000000000006],"rotation":[-6.123031769111886e-17,3.061515884555943e-17,1.0,1.874575902277672e-33],"scale":[1.0,1.0,1.0],"name":"contrail2"},{"translation":[0.0,0.0,0.0],"rotation":[-4.329637285359677e-17,0.7071067811865476,0.7071067811865475,4.329637285359677e-17],"scale":[1.0,1.0,1.0],"name":"node16","children":[9]},{"translation":[0.0,9.54017734527588,-0.5014140009880066],"rotation":[0.5213338584858462,-0.4777143581642273,-0.5213338584858462,0.4777143581642273],"scale":[1.0,1.0,1.0],"name":"node17","children":[10]},{"translation":[-0.00004500001603648603,0.0004120001345346506,0.0],"rotation":[0.007002113999942377,0.7070721111736283,-0.007002113999942377,0.7070721111736283],"scale":[1.0,1.0,1.0],"name":"node28","children":[11]},{"name":"node10_anim_c_gear","children":[12,13,14,15,16,17]},{"translation":[-0.07000002418247756,0.14000006773493979,-1.1500001352686722],"rotation":[0.0,0.0,0.0,1.0],"scale":[1.0,1.0,1.0],"name":"landing_nose_l2"},{"translation":[0.07000002418247756,0.14000006773493979,-1.1500001352686722],"rotation":[0.0,0.0,0.0,1.0],"scale":[1.0,1.0,1.0],"name":"taxi_r2"},{"translation":[-0.1400000483649551,0.12000005486541236,-1.0200001220506366],"rotation":[0.0,0.0,0.0,1.0],"scale":[1.0,1.0,1.0],"name":"landing_nose_l1"},{"translation":[0.1400000483649551,0.12000005486541236,-1.0200001220506366],"rotation":[0.0,0.0,0.0,1.0],"scale":[1.0,1.0,1.0],"name":"landing_nose_r1"},{"translation":[0.1400000483649551,0.12000005486541236,-1.0200001220506366],"rotation":[0.0,0.0,0.0,1.0],"scale":[1.0,1.0,1.0],"name":"taxi_r1"},{"translation":[0.07000002418247756,0.14000006773493979,-1.1500001352686722],"rotation":[0.0,0.0,0.0,1.0],"scale":[1.0,1.0,1.0],"name":"landing_nose_r2"}],"scene":0,"scenes":[{"nodes":[0]}],"textures":[{"extensions":{"MSFT_texture_dds":{"source":0}}},{"extensions":{"MSFT_texture_dds":{"source":1}}},{"extensions":{"MSFT_texture_dds":{"source":2}}}],"extensionsUsed":["MSFT_texture_dds","ASOBO_asset_optimized"],"buffers":[{"byteLength":3488,"uri":"UTT_Sukhoi_Superjet100_MSFS_LOD5.bin"}],"images":[{"uri":"AI_SSJ10095_T.PNG.DDS","extras":"ASOBO_image_converted_meta"},{"uri":"AI_SSJ10095_C.PNG.DDS","extras":"ASOBO_image_converted_meta"},{"uri":"AI_SSJ10095_L.PNG.DDS","extras":"ASOBO_image_converted_meta"}]}
