{"accessors":[{"bufferView":0,"componentType":5126,"count":32,"min":[0.0],"max":[80.0],"type":"SCALAR"},{"bufferView":1,"componentType":5126,"count":32,"type":"VEC4"},{"bufferView":2,"componentType":5126,"count":185,"min":[-21.937820434570314,-3.8337199687957765,-23.310440063476564],"max":[21.937820434570314,11.177009582519532,23.394479751586915],"type":"VEC3","name":"part000_vertices#0_POSITION"},{"bufferView":2,"byteOffset":12,"componentType":5120,"count":185,"type":"VEC4","name":"part000_vertices#0_TANGENT"},{"bufferView":2,"byteOffset":16,"componentType":5120,"count":185,"type":"VEC4","name":"part000_vertices#0_NORMAL"},{"bufferView":2,"byteOffset":20,"componentType":5122,"count":185,"type":"VEC2","name":"part000_vertices#0_TEXCOORD_0"},{"bufferView":2,"byteOffset":24,"componentType":5122,"count":185,"type":"VEC2","name":"part000_vertices#0_TEXCOORD_1"},{"bufferView":2,"byteOffset":28,"componentType":5123,"count":185,"type":"VEC4","name":"part000_vertices#0_COLOR_0"},{"bufferView":3,"componentType":5123,"count":309,"type":"SCALAR","name":"part000_indices#0"}],"animations":[{"name":"c_gear","channels":[{"sampler":0,"target":{"node":42,"path":"rotation"}}],"samplers":[{"input":0,"output":1,"interpolation":"LINEAR"}]}],"asset":{"generator":"ModelConverterX","version":"2.0","extensions":{"ASOBO_asset_optimized":{"BoundingBoxMax":[21.937820434570314,11.177009582519532,23.394479751586915],"BoundingBoxMin":[-21.937820434570314,-3.8337199687957765,-23.310440063476564],"MajorVersion":4,"MinorVersion":3,"UseCheckerboardMaterialForMissingTextures":true}}},"bufferViews":[{"buffer":0,"byteLength":128,"byteStride":4},{"buffer":0,"byteLength":512,"byteStride":16,"byteOffset":128},{"buffer":0,"byteLength":6660,"byteStride":36,"byteOffset":640,"target":34962,"name":"BufferViewVertexND"},{"buffer":0,"byteLength":618,"byteOffset":7300,"target":34963,"name":"BufferViewIndex"}],"extensionsRequired":["MSFT_texture_dds"],"materials":[{"name":"material00","occlusionTexture":{"index":1},"emissiveTexture":{"index":2},"emissiveFactor":[1.0,1.0,1.0],"pbrMetallicRoughness":{"baseColorTexture":{"index":0},"metallicRoughnessTexture":{"index":1}},"extensions":{"ASOBO_material_day_night_switch":{}}}],"meshes":[{"primitives":[{"attributes":{"COLOR_0":7,"NORMAL":4,"POSITION":2,"TANGENT":3,"TEXCOORD_0":5,"TEXCOORD_1":6},"indices":8,"material":0,"mode":4,"extras":{"ASOBO_primitive":{"PrimitiveCount":103,"VertexType":"VTX","VertexVersion":2}}}],"name":"part000"}],"nodes":[{"name":"node0","children":[1,2,3,4,5,6,7,8,9,10,11,12,13,14,15,16,17,18,19,20,21,22,23,24,25,26,27,28,29,30,31,32,33,34,35,36,37,38,39]},{"mesh":0,"name":"node1"},{"translation":[7.9,-2.47,3.000000000000001],"rotation":[-6.123031769111886e-17,3.061515884555943e-17,1.0,1.874575902277672e-33],"scale":[1.0,1.0,1.0],"name":"contrail1"},{"translation":[3.5299999713897729,2.0299999713897707,-19.670000076293947],"rotation":[-0.13811966677194716,0.7797126736414464,0.3391284913366331,0.507900551857795],"scale":[1.0,1.0,1.0000000000000003],"name":"logo_l"},{"translation":[-3.5299999713897685,2.0299999713897707,-19.670000076293947],"rotation":[0.13811966677194713,0.7797126736414467,0.339128491336633,-0.5079005518577947],"scale":[1.0,1.0,1.0],"name":"logo_r"},{"translation":[2.460000038146971,-1.1699999570846558,16.200000762939454],"rotation":[0.5963678105290182,0.37992819659091528,0.5963678105290183,-0.3799281965909152],"scale":[1.0,1.0,1.0],"name":"wing_taxi_l"},{"translation":[2.460000038146971,-1.1699999570846558,16.200000762939454],"rotation":[0.5963678105290182,0.37992819659091528,0.5963678105290183,-0.3799281965909152],"scale":[1.0,1.0,1.0],"name":"wing_landing_l"},{"translation":[-2.4600000381469746,-1.1699999570846558,16.200000762939454],"rotation":[0.5963678105290181,-0.37992819659091528,-0.5963678105290182,-0.37992819659091528],"scale":[1.0,1.0,1.0],"name":"wing_taxi_r"},{"translation":[-2.4600000381469746,-1.1699999570846558,16.200000762939454],"rotation":[0.5963678105290181,-0.37992819659091528,-0.5963678105290182,-0.37992819659091528],"scale":[1.0,1.0,1.0],"name":"wing_landing_r"},{"translation":[-3.8199999332427985,-1.5199999809265137,2.4500000476837155],"rotation":[-4.329637285359677e-17,0.7071067811865476,0.7071067811865475,4.329637285359677e-17],"scale":[1.0,1.0,1.0],"name":"landing_r"},{"translation":[3.8199999332427976,-1.5199999809265137,2.4500000476837164],"rotation":[-4.329637285359677e-17,0.7071067811865476,0.7071067811865475,4.329637285359677e-17],"scale":[1.0,1.0,1.0],"name":"landing_l"},{"translation":[-7.9,-2.47,2.999999999999999],"rotation":[-6.123031769111886e-17,3.061515884555943e-17,1.0,1.874575902277672e-33],"scale":[1.0,1.0,1.0],"name":"contrail2"},{"translation":[-2.7994501248379549e-16,0.0,2.286],"rotation":[-4.329637285359677e-17,0.7071067811865476,0.7071067811865475,4.329637285359677e-17],"scale":[1.0,1.0,1.0],"name":"node14"},{"translation":[2.285999999999998,0.9144,17.526],"rotation":[-4.329637285359677e-17,0.7071067811865476,0.7071067811865475,4.329637285359677e-17],"scale":[1.0,1.0,1.0],"name":"node15"},{"translation":[-2.286000000000002,-2.1336,11.7348],"rotation":[-4.329637285359677e-17,0.7071067811865476,0.7071067811865475,4.329637285359677e-17],"scale":[1.0,1.0,1.0],"name":"node16"},{"translation":[-2.285999999999999,-2.1336,-5.486400000000001],"rotation":[-4.329637285359677e-17,0.7071067811865476,0.7071067811865475,4.329637285359677e-17],"scale":[1.0,1.0,1.0],"name":"node17"},{"translation":[21.99132,0.89916,-3.307079999999998],"rotation":[-4.329637285359677e-17,0.7071067811865476,0.7071067811865475,4.329637285359677e-17],"scale":[1.0,1.0,1.0],"name":"node18"},{"translation":[-21.96084,0.89916,-3.3070800000000029],"rotation":[-4.329637285359677e-17,0.7071067811865476,0.7071067811865475,4.329637285359677e-17],"scale":[1.0,1.0,1.0],"name":"node19"},{"translation":[21.73224,0.88392,-5.5778399999999979],"rotation":[-4.329637285359677e-17,0.7071067811865476,0.7071067811865475,4.329637285359677e-17],"scale":[1.0,1.0,1.0],"name":"node20"},{"translation":[-21.701760000000005,0.88392,-5.577840000000003],"rotation":[-4.329637285359677e-17,0.7071067811865476,0.7071067811865475,4.329637285359677e-17],"scale":[1.0,1.0,1.0],"name":"node21"},{"translation":[21.73224,0.88392,-5.5778399999999979],"rotation":[-4.329637285359677e-17,0.7071067811865476,0.7071067811865475,4.329637285359677e-17],"scale":[1.0,1.0,1.0],"name":"node22"},{"translation":[-21.701760000000005,0.88392,-5.577840000000003],"rotation":[-4.329637285359677e-17,0.7071067811865476,0.7071067811865475,4.329637285359677e-17],"scale":[1.0,1.0,1.0],"name":"node23"},{"translation":[-7.278570324578681e-16,2.8956,5.9436],"rotation":[-4.329637285359677e-17,0.7071067811865476,0.7071067811865475,4.329637285359677e-17],"scale":[1.0,1.0,1.0],"name":"node24"},{"translation":[5.225640233030848e-16,-2.80416,-4.2672],"rotation":[-4.329637285359677e-17,0.7071067811865476,0.7071067811865475,4.329637285359677e-17],"scale":[1.0,1.0,1.0],"name":"node25"},{"translation":[-2.4993600000000018,-1.2954,15.72768],"rotation":[-4.329637285359677e-17,0.7071067811865476,0.7071067811865475,4.329637285359677e-17],"scale":[1.0,1.0,1.0],"name":"node26"},{"translation":[2.499359999999998,-1.2954,15.72768],"rotation":[-4.329637285359677e-17,0.7071067811865476,0.7071067811865475,4.329637285359677e-17],"scale":[1.0,1.0,1.0],"name":"node27"},{"translation":[-1.6796700749027729e-15,-4.93776,13.716],"rotation":[-4.329637285359677e-17,0.7071067811865476,0.7071067811865475,4.329637285359677e-17],"scale":[1.0,1.0,1.0],"name":"node28"},{"translation":[7.620000000000001,-5.0292,-4.876799999999999],"rotation":[-4.329637285359677e-17,0.7071067811865476,0.7071067811865475,4.329637285359677e-17],"scale":[1.0,1.0,1.0],"name":"node29"},{"translation":[-7.62,-5.0292,-4.876800000000001],"rotation":[-4.329637285359677e-17,0.7071067811865476,0.7071067811865475,4.329637285359677e-17],"scale":[1.0,1.0,1.0],"name":"node30"},{"translation":[14.426184,0.0,-4.319015999999999],"rotation":[-4.329637285359677e-17,0.7071067811865476,0.7071067811865475,4.329637285359677e-17],"scale":[1.0,1.0,1.0],"name":"node31"},{"translation":[-14.426184,0.0,-4.319016000000002],"rotation":[-4.329637285359677e-17,0.7071067811865476,0.7071067811865475,4.329637285359677e-17],"scale":[1.0,1.0,1.0],"name":"node32"},{"translation":[3.1103757187032906e-15,0.762,-25.398984],"rotation":[-4.329637285359677e-17,0.7071067811865476,0.7071067811865475,4.329637285359677e-17],"scale":[1.0,1.0,1.0],"name":"node33"},{"translation":[-1.5927004910244737e-15,-1.143,13.005816],"rotation":[-4.329637285359677e-17,0.7071067811865476,0.7071067811865475,4.329637285359677e-17],"scale":[1.0,1.0,1.0],"name":"node34"},{"translation":[0.0,0.0,0.0],"rotation":[-4.329637285359677e-17,0.7071067811865476,0.7071067811865475,4.329637285359677e-17],"scale":[1.0,1.0,1.0],"name":"node35"},{"translation":[5.7912,0.0,-0.9143999999999993],"rotation":[-4.329637285359677e-17,0.7071067811865476,0.7071067811865475,4.329637285359677e-17],"scale":[1.0,1.0,1.0],"name":"node36"},{"translation":[-5.7912,0.0,-0.9144000000000008],"rotation":[-4.329637285359677e-17,0.7071067811865476,0.7071067811865475,4.329637285359677e-17],"scale":[1.0,1.0,1.0],"name":"node37"},{"translation":[0.0,0.0,0.0],"rotation":[-4.329637285359677e-17,0.7071067811865476,0.7071067811865475,4.329637285359677e-17],"scale":[1.0,1.0,1.0],"name":"node38"},{"translation":[7.62,-1.95072,3.200400000000001],"rotation":[-4.329637285359677e-17,0.7071067811865476,0.7071067811865475,4.329637285359677e-17],"scale":[1.0,1.0,1.0],"name":"node39"},{"translation":[-7.62,-1.95072,3.2003999999999994],"rotation":[-4.329637285359677e-17,0.7071067811865476,0.7071067811865475,4.329637285359677e-17],"scale":[1.0,1.0,1.0],"name":"node40"},{"translation":[0.0,0.0,0.0],"rotation":[-4.329637285359677e-17,0.7071067811865476,0.7071067811865475,4.329637285359677e-17],"scale":[1.0,1.0,1.0],"name":"node41","children":[40]},{"translation":[9.99999997475243e-7,20.425710678100584,-2.769139051437378],"rotation":[0.0,0.0,0.0,1.0],"scale":[1.0,1.0,1.0],"name":"node97","children":[41]},{"translation":[-0.000002000895971968487,-3.65783715208255,0.5315225440747895],"rotation":[0.0,0.0,0.0,1.0],"scale":[1.0,1.0,1.0],"name":"node119","children":[42]},{"name":"node41_anim_c_gear","children":[43,44,45,46]},{"translation":[0.41238039087106728,-0.22000221265329085,0.33213002166526098],"rotation":[-0.499998256557084,0.5000042468269188,0.49999924003422116,-0.499998256557084],"scale":[1.0,1.0,1.0],"name":"taxi_nose_r"},{"translation":[0.4123834593252331,0.21999778494630913,0.3321278186841674],"rotation":[-0.499998256557084,0.5000042468269188,0.49999924003422116,-0.499998256557084],"scale":[1.0,1.0,1.0],"name":"landing_nose_l"},{"translation":[0.4123834593252331,0.21999778494630913,0.3321278186841674],"rotation":[-0.499998256557084,0.5000042468269188,0.49999924003422116,-0.499998256557084],"scale":[1.0,1.0,1.0],"name":"taxi_nose_l"},{"translation":[0.41238039087106728,-0.22000221265329085,0.33213002166526098],"rotation":[-0.499998256557084,0.5000042468269188,0.49999924003422116,-0.499998256557084],"scale":[1.0,1.0,1.0],"name":"landing_nose_r"}],"scene":0,"scenes":[{"nodes":[0]}],"textures":[{"extensions":{"MSFT_texture_dds":{"source":0}}},{"extensions":{"MSFT_texture_dds":{"source":1}}},{"extensions":{"MSFT_texture_dds":{"source":2}}}],"extensionsUsed":["ASOBO_material_day_night_switch","MSFT_texture_dds","ASOBO_asset_optimized"],"buffers":[{"byteLength":7918,"uri":"TFS_Airbus_A310-300_GE_MSFS_LOD1.bin"}],"images":[{"uri":"TFS_A310_GE_T.PNG.DDS","extras":"ASOBO_image_converted_meta"},{"uri":"TFS_A310_GE_C.PNG.DDS","extras":"ASOBO_image_converted_meta"},{"uri":"TFS_A310_GE_L.PNG.DDS","extras":"ASOBO_image_converted_meta"}]}
