{"accessors":[{"bufferView":0,"componentType":5126,"count":3,"min":[0.0],"max":[200.0],"type":"SCALAR"},{"bufferView":1,"componentType":5126,"count":3,"type":"VEC4"},{"bufferView":2,"componentType":5126,"count":4101,"min":[-14.343119621276856,-1.9503599405288697,-17.34575080871582],"max":[14.343119621276856,7.0713701248168949,14.320110321044922],"type":"VEC3","name":"part000_vertices#0_POSITION"},{"bufferView":2,"byteOffset":12,"componentType":5120,"count":4101,"type":"VEC4","name":"part000_vertices#0_TANGENT"},{"bufferView":2,"byteOffset":16,"componentType":5120,"count":4101,"type":"VEC4","name":"part000_vertices#0_NORMAL"},{"bufferView":2,"byteOffset":20,"componentType":5122,"count":4101,"type":"VEC2","name":"part000_vertices#0_TEXCOORD_0"},{"bufferView":2,"byteOffset":24,"componentType":5122,"count":4101,"type":"VEC2","name":"part000_vertices#0_TEXCOORD_1"},{"bufferView":2,"byteOffset":28,"componentType":5123,"count":4101,"type":"VEC4","name":"part000_vertices#0_COLOR_0"},{"bufferView":3,"componentType":5123,"count":13842,"type":"SCALAR","name":"part000_indices#0"}],"animations":[{"name":"c_gear","channels":[{"sampler":0,"target":{"node":13,"path":"rotation"}}],"samplers":[{"input":0,"output":1,"interpolation":"LINEAR"}]}],"asset":{"generator":"ModelConverterX","version":"2.0","extensions":{"ASOBO_asset_optimized":{"BoundingBoxMax":[14.343119621276856,7.0713701248168949,14.320110321044922],"BoundingBoxMin":[-14.343119621276856,-1.9503599405288697,-17.34575080871582],"MajorVersion":4,"MinorVersion":3,"UseCheckerboardMaterialForMissingTextures":true}}},"bufferViews":[{"buffer":0,"byteLength":12,"byteStride":4},{"buffer":0,"byteLength":48,"byteStride":16,"byteOffset":12},{"buffer":0,"byteLength":147636,"byteStride":36,"byteOffset":60,"target":34962,"name":"BufferViewVertexND"},{"buffer":0,"byteLength":27684,"byteOffset":147696,"target":34963,"name":"BufferViewIndex"}],"extensionsRequired":["MSFT_texture_dds"],"materials":[{"name":"material01","normalTexture":{"index":3},"occlusionTexture":{"index":1},"emissiveTexture":{"index":2},"emissiveFactor":[1.0,1.0,1.0],"pbrMetallicRoughness":{"baseColorTexture":{"index":0},"metallicRoughnessTexture":{"index":1}},"extensions":{"ASOBO_material_day_night_switch":{}}}],"meshes":[{"primitives":[{"attributes":{"COLOR_0":7,"NORMAL":4,"POSITION":2,"TANGENT":3,"TEXCOORD_0":5,"TEXCOORD_1":6},"indices":8,"material":0,"mode":4,"extras":{"ASOBO_primitive":{"PrimitiveCount":4614,"VertexType":"VTX","VertexVersion":2}}}],"name":"part000"}],"nodes":[{"name":"node0","children":[1,2,3,4,5,6,7,8,9,10]},{"mesh":0,"name":"node3"},{"translation":[1.6499999999999997,-0.34,2.49],"rotation":[-4.329637285359677e-17,0.7071067811865476,0.7071067811865475,4.329637285359677e-17],"scale":[1.0,1.0,1.0],"name":"landing_l"},{"translation":[-1.65,-0.34,2.49],"rotation":[-4.329637285359677e-17,0.7071067811865476,0.7071067811865475,4.329637285359677e-17],"scale":[1.0,1.0,1.0],"name":"landing_r"},{"translation":[1.489999999999999,0.26,5.35],"rotation":[-0.2591641984828588,-0.6578831643012815,0.662329704880704,-0.2476752357146554],"scale":[1.0,1.0,1.0],"name":"wing_l"},{"translation":[-1.4900000000000009,0.26,5.35],"rotation":[0.25064662947214047,-0.6546071940720822,0.6655997197091347,0.2562083170516761],"scale":[1.0,1.0,1.0],"name":"wing_r"},{"translation":[2.770000000000002,1.62,-14.28],"rotation":[-0.03447456478590722,-0.01482423813160168,0.3944425278274142,0.918154038594701],"scale":[1.0,1.0000000000000003,1.0],"name":"logo_l"},{"translation":[4.0,-1.22,-0.1799999999999995],"rotation":[-6.123031769111886e-17,3.061515884555943e-17,1.0,1.874575902277672e-33],"scale":[1.0,1.0,1.0],"name":"contrail1"},{"translation":[-4.0,-1.22,-0.1800000000000005],"rotation":[-6.123031769111886e-17,3.061515884555943e-17,1.0,1.874575902277672e-33],"scale":[1.0,1.0,1.0],"name":"contrail2"},{"translation":[-2.7699999999999984,1.62,-14.28],"rotation":[-0.39444252782741448,-0.9181540385947009,0.03447456478590546,0.014824238131601789],"scale":[1.0,1.0000000000000003,1.0],"name":"logo_r"},{"translation":[0.0,0.0,0.0],"rotation":[-4.329637285359677e-17,0.7071067811865476,0.7071067811865475,4.329637285359677e-17],"scale":[1.0,1.0,1.0],"name":"node13","children":[11]},{"translation":[0.0,10.117839813232422,-0.945930004119873],"rotation":[0.576024765448437,0.5753080689286523,-0.41112106313101356,0.41011652839855586],"scale":[1.0,1.0,1.0],"name":"node25","children":[12]},{"name":"node24_anim_c_gear","children":[13]},{"name":"node12_anim_c_gear","children":[14,15]},{"translation":[-0.1,0.1,-0.57],"rotation":[-0.7066760308408345,0.7066760308408345,-0.024677670778335413,0.024677670778335417],"scale":[1.0,1.0,1.0],"name":"taxi"},{"translation":[-0.13,0.13,-0.78],"rotation":[-0.7067769801043797,0.7067769801043797,-0.02159398977801994,0.021593989778019946],"scale":[1.0,1.0,1.0],"name":"landing_nose"}],"scene":0,"scenes":[{"nodes":[0]}],"textures":[{"extensions":{"MSFT_texture_dds":{"source":0}}},{"extensions":{"MSFT_texture_dds":{"source":1}}},{"extensions":{"MSFT_texture_dds":{"source":2}}},{"extensions":{"MSFT_texture_dds":{"source":3}}}],"extensionsUsed":["ASOBO_material_day_night_switch","MSFT_texture_dds","ASOBO_asset_optimized"],"buffers":[{"byteLength":175380,"uri":"RFSL_Embraer_E175NW_MSFS_LOD1.bin"}],"images":[{"uri":"RFSL_E175_REV3_T.PNG.DDS","extras":"ASOBO_image_converted_meta"},{"uri":"RFSL_E175_REV3_C.PNG.DDS","extras":"ASOBO_image_converted_meta"},{"uri":"RFSL_E175_REV3_L.PNG.DDS","extras":"ASOBO_image_converted_meta"},{"uri":"RFSL_E175_REV3_B.PNG.DDS","extras":"ASOBO_image_converted_meta"}]}
