{"accessors":[{"bufferView":0,"componentType":5126,"count":2,"min":[0.0],"max":[100.0],"type":"SCALAR"},{"bufferView":1,"componentType":5126,"count":2,"type":"VEC3"},{"bufferView":0,"byteOffset":8,"componentType":5126,"count":3,"min":[0.0],"max":[200.0],"type":"SCALAR"},{"bufferView":2,"componentType":5126,"count":3,"type":"VEC4"},{"bufferView":3,"componentType":5126,"count":16,"min":[-3.0121099948883058,0.013949999585747719,-8.314860343933106],"max":[3.0121099948883058,1.4297499656677247,-3.1332600116729738],"type":"VEC3","name":"part000_vertices#0_POSITION"},{"bufferView":3,"byteOffset":12,"componentType":5120,"count":16,"type":"VEC4","name":"part000_vertices#0_TANGENT"},{"bufferView":3,"byteOffset":16,"componentType":5120,"count":16,"type":"VEC4","name":"part000_vertices#0_NORMAL"},{"bufferView":3,"byteOffset":20,"componentType":5122,"count":16,"type":"VEC2","name":"part000_vertices#0_TEXCOORD_0"},{"bufferView":3,"byteOffset":24,"componentType":5122,"count":16,"type":"VEC2","name":"part000_vertices#0_TEXCOORD_1"},{"bufferView":3,"byteOffset":28,"componentType":5123,"count":16,"type":"VEC4","name":"part000_vertices#0_COLOR_0"},{"bufferView":4,"componentType":5123,"count":24,"type":"SCALAR","name":"part000_indices#0"},{"bufferView":3,"byteOffset":576,"componentType":5126,"count":116,"min":[-14.359129905700684,-1.6081700325012208,-14.56818962097168],"max":[14.359129905700684,4.659170150756836,15.137590408325196],"type":"VEC3","name":"part001_vertices#0_POSITION"},{"bufferView":3,"byteOffset":588,"componentType":5120,"count":116,"type":"VEC4","name":"part001_vertices#0_TANGENT"},{"bufferView":3,"byteOffset":592,"componentType":5120,"count":116,"type":"VEC4","name":"part001_vertices#0_NORMAL"},{"bufferView":3,"byteOffset":596,"componentType":5122,"count":116,"type":"VEC2","name":"part001_vertices#0_TEXCOORD_0"},{"bufferView":3,"byteOffset":600,"componentType":5122,"count":116,"type":"VEC2","name":"part001_vertices#0_TEXCOORD_1"},{"bufferView":3,"byteOffset":604,"componentType":5123,"count":116,"type":"VEC4","name":"part001_vertices#0_COLOR_0"},{"bufferView":4,"byteOffset":48,"componentType":5123,"count":240,"type":"SCALAR","name":"part001_indices#0"},{"bufferView":3,"byteOffset":4752,"componentType":5126,"count":6,"min":[-0.0428600013256073,0.03317999839782715,-0.7708899974822998],"max":[0.0428600013256073,0.0663599967956543,-0.508840024471283],"type":"VEC3","name":"part002_vertices#0_POSITION"},{"bufferView":3,"byteOffset":4764,"componentType":5120,"count":6,"type":"VEC4","name":"part002_vertices#0_TANGENT"},{"bufferView":3,"byteOffset":4768,"componentType":5120,"count":6,"type":"VEC4","name":"part002_vertices#0_NORMAL"},{"bufferView":3,"byteOffset":4772,"componentType":5122,"count":6,"type":"VEC2","name":"part002_vertices#0_TEXCOORD_0"},{"bufferView":3,"byteOffset":4776,"componentType":5122,"count":6,"type":"VEC2","name":"part002_vertices#0_TEXCOORD_1"},{"bufferView":3,"byteOffset":4780,"componentType":5123,"count":6,"type":"VEC4","name":"part002_vertices#0_COLOR_0"},{"bufferView":4,"byteOffset":528,"componentType":5123,"count":12,"type":"SCALAR","name":"part002_indices#0"}],"animations":[{"name":"c_gear","channels":[{"sampler":0,"target":{"node":39,"path":"translation"}},{"sampler":1,"target":{"node":41,"path":"rotation"}}],"samplers":[{"input":0,"output":1,"interpolation":"LINEAR"},{"input":2,"output":3,"interpolation":"LINEAR"}]}],"asset":{"generator":"ModelConverterX","version":"2.0","extensions":{"ASOBO_asset_optimized":{"BoundingBoxMax":[14.359129905700684,4.659170150756836,15.137590408325196],"BoundingBoxMin":[-14.359129905700684,-1.6081700325012208,-14.56818962097168],"MajorVersion":4,"MinorVersion":3,"UseCheckerboardMaterialForMissingTextures":true}}},"bufferViews":[{"buffer":0,"byteLength":20,"byteStride":4},{"buffer":0,"byteLength":24,"byteStride":12,"byteOffset":20},{"buffer":0,"byteLength":48,"byteStride":16,"byteOffset":44},{"buffer":0,"byteLength":4968,"byteStride":36,"byteOffset":92,"target":34962,"name":"BufferViewVertexND"},{"buffer":0,"byteLength":552,"byteOffset":5060,"target":34963,"name":"BufferViewIndex"}],"extensionsRequired":["MSFT_texture_dds"],"materials":[{"name":"material00","occlusionTexture":{"index":1},"emissiveTexture":{"index":2},"emissiveFactor":[1.0,1.0,1.0],"pbrMetallicRoughness":{"baseColorTexture":{"index":0},"metallicRoughnessTexture":{"index":1}},"extensions":{"ASOBO_material_day_night_switch":{}}},{"name":"material01","pbrMetallicRoughness":{"baseColorFactor":[0.03921600058674812,0.03921600058674812,0.03921600058674812,1.0],"metallicFactor":0.0}}],"meshes":[{"primitives":[{"attributes":{"COLOR_0":9,"NORMAL":6,"POSITION":4,"TANGENT":5,"TEXCOORD_0":7,"TEXCOORD_1":8},"indices":10,"material":1,"mode":4,"extras":{"ASOBO_primitive":{"PrimitiveCount":8,"VertexType":"VTX","VertexVersion":2}}}],"name":"part000"},{"primitives":[{"attributes":{"COLOR_0":16,"NORMAL":13,"POSITION":11,"TANGENT":12,"TEXCOORD_0":14,"TEXCOORD_1":15},"indices":17,"material":0,"mode":4,"extras":{"ASOBO_primitive":{"PrimitiveCount":80,"VertexType":"VTX","VertexVersion":2}}}],"name":"part001"},{"primitives":[{"attributes":{"COLOR_0":23,"NORMAL":20,"POSITION":18,"TANGENT":19,"TEXCOORD_0":21,"TEXCOORD_1":22},"indices":24,"material":0,"mode":4,"extras":{"ASOBO_primitive":{"PrimitiveCount":4,"VertexType":"VTX","VertexVersion":2}}}],"name":"part002"}],"nodes":[{"name":"node0","children":[1,2,3,4,5,6,7,8,9,10,11,12,13,14,15,16,17,18,19,20,21,22,23,24,25,26,27,28,29,30,31,32,33,34,35,36,37]},{"mesh":0,"name":"node1"},{"mesh":1,"name":"node3"},{"translation":[2.5000000000000015,4.079999923706055,-12.199999809265137],"rotation":[-0.1514528550039037,0.3945480201877854,0.8461112269983926,0.324791754858925],"scale":[1.0,1.0,1.0],"name":"logo_l"},{"translation":[-2.4999999999999988,4.079999923706055,-12.199999809265137],"rotation":[0.1514528550039036,0.3945480201877854,0.8461112269983926,-0.32479175485892489],"scale":[1.0,1.0,1.0],"name":"logo_r"},{"translation":[1.3600000143051144,-1.2400000095367432,4.099999904632568],"rotation":[-0.03084364446938532,-0.7064337687255942,-0.7064337687255942,0.030843644469385316],"scale":[1.0,1.0,1.0],"name":"landing_l"},{"translation":[-1.3600000143051153,-1.2400000095367432,4.099999904632568],"rotation":[-0.030843644469385237,0.7064337687255942,0.7064337687255942,0.03084364446938523],"scale":[1.0,1.0,1.0],"name":"landing_r"},{"translation":[2.210000000000001,0.7,-8.4],"rotation":[-6.123031769111886e-17,3.061515884555943e-17,1.0,1.874575902277672e-33],"scale":[1.0,1.0,1.0],"name":"contrail1"},{"translation":[-2.209999999999999,0.7,-8.4],"rotation":[-6.123031769111886e-17,3.061515884555943e-17,1.0,1.874575902277672e-33],"scale":[1.0,1.0,1.0],"name":"contrail2"},{"translation":[-1.493040066580235e-17,0.0,0.12191999999999936],"rotation":[-4.329637285359677e-17,0.7071067811865476,0.7071067811865475,4.329637285359677e-17],"scale":[1.0,1.0,1.0],"name":"node16"},{"translation":[13.630656,-0.8229600000000001,-3.6515039999999976],"rotation":[-4.329637285359677e-17,0.7071067811865476,0.7071067811865475,4.329637285359677e-17],"scale":[1.0,1.0,1.0],"name":"node17"},{"translation":[-13.6398,-0.8229600000000001,-3.505200000000002],"rotation":[-4.329637285359677e-17,0.7071067811865476,0.7071067811865475,4.329637285359677e-17],"scale":[1.0,1.0,1.0],"name":"node18"},{"translation":[1.4071902627518785e-15,0.381,-11.49096],"rotation":[-4.329637285359677e-17,0.7071067811865476,0.7071067811865475,4.329637285359677e-17],"scale":[1.0,1.0,1.0],"name":"node19"},{"translation":[13.716,-0.8229600000000001,-3.6271199999999976],"rotation":[-4.329637285359677e-17,0.7071067811865476,0.7071067811865475,4.329637285359677e-17],"scale":[1.0,1.0,1.0],"name":"node20"},{"translation":[-13.716,-0.8229600000000001,-3.6271200000000016],"rotation":[-4.329637285359677e-17,0.7071067811865476,0.7071067811865475,4.329637285359677e-17],"scale":[1.0,1.0,1.0],"name":"node21"},{"translation":[9.33150041612652e-17,-1.70688,-0.7620000000000005],"rotation":[-4.329637285359677e-17,0.7071067811865476,0.7071067811865475,4.329637285359677e-17],"scale":[1.0,1.0,1.0],"name":"node22"},{"translation":[-1.5564942694099029e-15,-2.65176,12.710160000000002],"rotation":[-4.329637285359677e-17,0.7071067811865476,0.7071067811865475,4.329637285359677e-17],"scale":[1.0,1.0,1.0],"name":"node23"},{"translation":[2.0574,-3.048,-1.158239999999999],"rotation":[-4.329637285359677e-17,0.7071067811865476,0.7071067811865475,4.329637285359677e-17],"scale":[1.0,1.0,1.0],"name":"node24"},{"translation":[-2.0574,-3.048,-1.1582399999999996],"rotation":[-4.329637285359677e-17,0.7071067811865476,0.7071067811865475,4.329637285359677e-17],"scale":[1.0,1.0,1.0],"name":"node25"},{"translation":[2.5754941148509168e-16,-0.4572000000000001,-2.1031199999999989],"rotation":[-4.329637285359677e-17,0.7071067811865476,0.7071067811865475,4.329637285359677e-17],"scale":[1.0,1.0,1.0],"name":"node26"},{"translation":[3.048,-0.4572000000000001,-0.5486399999999986],"rotation":[-4.329637285359677e-17,0.7071067811865476,0.7071067811865475,4.329637285359677e-17],"scale":[1.0,1.0,1.0],"name":"node27"},{"translation":[-3.048,-0.4572000000000001,-0.5486399999999992],"rotation":[-4.329637285359677e-17,0.7071067811865476,0.7071067811865475,4.329637285359677e-17],"scale":[1.0,1.0,1.0],"name":"node28"},{"translation":[-1.2877470574254592e-15,0.0,10.5156],"rotation":[-4.329637285359677e-17,0.7071067811865476,0.7071067811865475,4.329637285359677e-17],"scale":[1.0,1.0,1.0],"name":"node29"},{"translation":[0.36575999999999939,0.0,5.3340000000000009],"rotation":[-4.329637285359677e-17,0.7071067811865476,0.7071067811865475,4.329637285359677e-17],"scale":[1.0,1.0,1.0],"name":"node30"},{"translation":[-0.3657600000000007,0.0,5.3340000000000009],"rotation":[-4.329637285359677e-17,0.7071067811865476,0.7071067811865475,4.329637285359677e-17],"scale":[1.0,1.0,1.0],"name":"node31"},{"translation":[0.3657599999999996,0.0,3.6576],"rotation":[-4.329637285359677e-17,0.7071067811865476,0.7071067811865475,4.329637285359677e-17],"scale":[1.0,1.0,1.0],"name":"node32"},{"translation":[-0.3657600000000005,0.0,3.6576],"rotation":[-4.329637285359677e-17,0.7071067811865476,0.7071067811865475,4.329637285359677e-17],"scale":[1.0,1.0,1.0],"name":"node33"},{"translation":[0.36575999999999977,0.0,2.37744],"rotation":[-4.329637285359677e-17,0.7071067811865476,0.7071067811865475,4.329637285359677e-17],"scale":[1.0,1.0,1.0],"name":"node34"},{"translation":[-0.3657600000000003,0.0,2.37744],"rotation":[-4.329637285359677e-17,0.7071067811865476,0.7071067811865475,4.329637285359677e-17],"scale":[1.0,1.0,1.0],"name":"node35"},{"translation":[0.3657599999999999,0.0,1.0972800000000014],"rotation":[-4.329637285359677e-17,0.7071067811865476,0.7071067811865475,4.329637285359677e-17],"scale":[1.0,1.0,1.0],"name":"node36"},{"translation":[-0.36576000000000016,0.0,1.0972800000000014],"rotation":[-4.329637285359677e-17,0.7071067811865476,0.7071067811865475,4.329637285359677e-17],"scale":[1.0,1.0,1.0],"name":"node37"},{"translation":[0.36576,0.0,-0.18288000000000077],"rotation":[-4.329637285359677e-17,0.7071067811865476,0.7071067811865475,4.329637285359677e-17],"scale":[1.0,1.0,1.0],"name":"node38"},{"translation":[-0.36576,0.0,-0.18288000000000088],"rotation":[-4.329637285359677e-17,0.7071067811865476,0.7071067811865475,4.329637285359677e-17],"scale":[1.0,1.0,1.0],"name":"node39"},{"translation":[2.799450124837953e-16,0.0,-2.2859999999999998],"rotation":[-4.329637285359677e-17,0.7071067811865476,0.7071067811865475,4.329637285359677e-17],"scale":[1.0,1.0,1.0],"name":"node40"},{"translation":[3.9192301747731368e-16,0.0,-3.2004],"rotation":[-4.329637285359677e-17,0.7071067811865476,0.7071067811865475,4.329637285359677e-17],"scale":[1.0,1.0,1.0],"name":"node41"},{"translation":[1.4630400000000004,0.24384000000000004,-2.5298399999999985],"rotation":[-4.329637285359677e-17,0.7071067811865476,0.7071067811865475,4.329637285359677e-17],"scale":[1.0,1.0,1.0],"name":"node42"},{"translation":[-1.46304,0.24384000000000004,-2.5298399999999985],"rotation":[-4.329637285359677e-17,0.7071067811865476,0.7071067811865475,4.329637285359677e-17],"scale":[1.0,1.0,1.0],"name":"node43"},{"translation":[0.0,0.0,0.0],"rotation":[-4.329637285359677e-17,0.7071067811865476,0.7071067811865475,4.329637285359677e-17],"scale":[1.0,1.0,1.0],"name":"node44","children":[38]},{"name":"node49","children":[39]},{"name":"node38_anim_c_gear","children":[40]},{"name":"node50","children":[41]},{"mesh":2,"name":"node39_anim_c_gear"}],"scene":0,"scenes":[{"nodes":[0]}],"textures":[{"extensions":{"MSFT_texture_dds":{"source":0}}},{"extensions":{"MSFT_texture_dds":{"source":1}}},{"extensions":{"MSFT_texture_dds":{"source":2}}}],"extensionsUsed":["ASOBO_material_day_night_switch","MSFT_texture_dds","ASOBO_asset_optimized"],"buffers":[{"byteLength":5612,"uri":"HTAI Gulfstream G-V MSFS_LOD1.bin"}],"images":[{"uri":"AIGV.PNG.DDS","extras":"ASOBO_image_converted_meta"},{"uri":"AIGV_C.PNG.DDS","extras":"ASOBO_image_converted_meta"},{"uri":"CABIN_LIGHTS.PNG.DDS","extras":"ASOBO_image_converted_meta"}]}
