{"accessors":[{"bufferView":0,"componentType":5126,"count":5,"min":[0.0],"max":[100.0],"type":"SCALAR"},{"bufferView":2,"componentType":5126,"count":5,"type":"VEC4"},{"bufferView":0,"byteOffset":20,"componentType":5126,"count":5,"min":[0.0],"max":[100.0],"type":"SCALAR"},{"bufferView":2,"byteOffset":80,"componentType":5126,"count":5,"type":"VEC4"},{"bufferView":0,"byteOffset":40,"componentType":5126,"count":41,"min":[0.0],"max":[70.0],"type":"SCALAR"},{"bufferView":1,"componentType":5126,"count":41,"type":"VEC3"},{"bufferView":0,"byteOffset":204,"componentType":5126,"count":41,"min":[0.0],"max":[70.0],"type":"SCALAR"},{"bufferView":2,"byteOffset":160,"componentType":5126,"count":41,"type":"VEC4"},{"bufferView":3,"componentType":5126,"count":156,"min":[-14.310589790344239,-1.2451399564743043,-14.120349884033204],"max":[14.310669898986817,6.17563009262085,11.101110458374024],"type":"VEC3","name":"part000_vertices#0_POSITION"},{"bufferView":3,"byteOffset":12,"componentType":5120,"count":156,"type":"VEC4","name":"part000_vertices#0_TANGENT"},{"bufferView":3,"byteOffset":16,"componentType":5120,"count":156,"type":"VEC4","name":"part000_vertices#0_NORMAL"},{"bufferView":3,"byteOffset":20,"componentType":5122,"count":156,"type":"VEC2","name":"part000_vertices#0_TEXCOORD_0"},{"bufferView":3,"byteOffset":24,"componentType":5122,"count":156,"type":"VEC2","name":"part000_vertices#0_TEXCOORD_1"},{"bufferView":3,"byteOffset":28,"componentType":5123,"count":156,"type":"VEC4","name":"part000_vertices#0_COLOR_0"},{"bufferView":4,"componentType":5123,"count":282,"type":"SCALAR","name":"part000_indices#0"},{"bufferView":3,"byteOffset":5616,"componentType":5126,"count":42,"min":[-1.8808399438858033,-0.00004999999873689376,-1.8808399438858033],"max":[1.8808399438858033,-0.00004999999873689376,1.8808399438858033],"type":"VEC3","name":"part001_vertices#0_POSITION"},{"bufferView":3,"byteOffset":5628,"componentType":5120,"count":42,"type":"VEC4","name":"part001_vertices#0_TANGENT"},{"bufferView":3,"byteOffset":5632,"componentType":5120,"count":42,"type":"VEC4","name":"part001_vertices#0_NORMAL"},{"bufferView":3,"byteOffset":5636,"componentType":5122,"count":42,"type":"VEC2","name":"part001_vertices#0_TEXCOORD_0"},{"bufferView":3,"byteOffset":5640,"componentType":5122,"count":42,"type":"VEC2","name":"part001_vertices#0_TEXCOORD_1"},{"bufferView":3,"byteOffset":5644,"componentType":5123,"count":42,"type":"VEC4","name":"part001_vertices#0_COLOR_0"},{"bufferView":4,"byteOffset":564,"componentType":5123,"count":120,"type":"SCALAR","name":"part001_indices#0"},{"bufferView":3,"byteOffset":7128,"componentType":5126,"count":42,"min":[-1.8808399438858033,-0.00004999999873689376,-1.8808399438858033],"max":[1.8808399438858033,-0.00004999999873689376,1.8808399438858033],"type":"VEC3","name":"part002_vertices#0_POSITION"},{"bufferView":3,"byteOffset":7140,"componentType":5120,"count":42,"type":"VEC4","name":"part002_vertices#0_TANGENT"},{"bufferView":3,"byteOffset":7144,"componentType":5120,"count":42,"type":"VEC4","name":"part002_vertices#0_NORMAL"},{"bufferView":3,"byteOffset":7148,"componentType":5122,"count":42,"type":"VEC2","name":"part002_vertices#0_TEXCOORD_0"},{"bufferView":3,"byteOffset":7152,"componentType":5122,"count":42,"type":"VEC2","name":"part002_vertices#0_TEXCOORD_1"},{"bufferView":3,"byteOffset":7156,"componentType":5123,"count":42,"type":"VEC4","name":"part002_vertices#0_COLOR_0"},{"bufferView":4,"byteOffset":804,"componentType":5123,"count":120,"type":"SCALAR","name":"part002_indices#0"}],"animations":[{"name":"Engine_Blade","channels":[{"sampler":0,"target":{"node":34,"path":"rotation"}},{"sampler":1,"target":{"node":37,"path":"rotation"}}],"samplers":[{"input":0,"output":1,"interpolation":"LINEAR"},{"input":2,"output":3,"interpolation":"LINEAR"}]},{"name":"c_gear","channels":[{"sampler":0,"target":{"node":40,"path":"translation"}},{"sampler":1,"target":{"node":42,"path":"rotation"}}],"samplers":[{"input":4,"output":5,"interpolation":"LINEAR"},{"input":6,"output":7,"interpolation":"LINEAR"}]}],"asset":{"generator":"ModelConverterX","version":"2.0","extensions":{"ASOBO_asset_optimized":{"BoundingBoxMax":[14.310669898986817,6.17563009262085,11.101110458374024],"BoundingBoxMin":[-14.310589790344239,-1.2451399564743043,-14.120349884033204],"MajorVersion":4,"MinorVersion":4,"UseCheckerboardMaterialForMissingTextures":true,"UseOnlyFilenameForImageURI":true}}},"bufferViews":[{"buffer":0,"byteLength":368,"byteStride":4},{"buffer":0,"byteLength":492,"byteStride":12,"byteOffset":368},{"buffer":0,"byteLength":816,"byteStride":16,"byteOffset":860},{"buffer":0,"byteLength":8640,"byteStride":36,"byteOffset":1676,"target":34962,"name":"BufferViewVertexND"},{"buffer":0,"byteLength":1044,"byteOffset":10316,"target":34963,"name":"BufferViewIndex"}],"extensionsRequired":["MSFT_texture_dds"],"materials":[{"name":"material00","alphaMode":"BLEND","pbrMetallicRoughness":{"baseColorFactor":[0.0,0.0,0.0,1.0],"metallicFactor":0.0,"baseColorTexture":{"index":0}}},{"name":"material01","occlusionTexture":{"index":2},"emissiveTexture":{"index":3},"emissiveFactor":[1.0,1.0,1.0],"pbrMetallicRoughness":{"baseColorTexture":{"index":1},"metallicRoughnessTexture":{"index":2}},"extensions":{"ASOBO_material_day_night_switch":{}}}],"meshes":[{"primitives":[{"attributes":{"COLOR_0":13,"NORMAL":10,"POSITION":8,"TANGENT":9,"TEXCOORD_0":11,"TEXCOORD_1":12},"indices":14,"material":1,"mode":4,"extras":{"ASOBO_primitive":{"PrimitiveCount":94,"VertexType":"VTX","VertexVersion":2}}}],"name":"part000"},{"primitives":[{"attributes":{"COLOR_0":20,"NORMAL":17,"POSITION":15,"TANGENT":16,"TEXCOORD_0":18,"TEXCOORD_1":19},"indices":21,"material":0,"mode":4,"extras":{"ASOBO_primitive":{"PrimitiveCount":40,"VertexType":"VTX","VertexVersion":2}}}],"name":"part001"},{"primitives":[{"attributes":{"COLOR_0":27,"NORMAL":24,"POSITION":22,"TANGENT":23,"TEXCOORD_0":25,"TEXCOORD_1":26},"indices":28,"material":0,"mode":4,"extras":{"ASOBO_primitive":{"PrimitiveCount":40,"VertexType":"VTX","VertexVersion":2}}}],"name":"part002"}],"nodes":[{"name":"node0","children":[1,2,3,4,5,6,7,8,9,10,11,12,13,14,15,16,17,18,19,20,21,22,23,24,25,26,27,28,29,30,31]},{"mesh":0,"name":"node1"},{"translation":[3.6000000000000007,1.0,-5.0],"rotation":[-6.123031769111886e-17,3.061515884555943e-17,1.0,1.874575902277672e-33],"scale":[1.0,1.0,1.0],"name":"contrail1"},{"translation":[4.400000095367433,1.850000023841858,-11.649999618530272],"rotation":[-0.35355332433820249,0.6123724739481729,0.3535533243382024,0.6123724739481731],"scale":[1.0,1.0,1.0],"name":"logo_l"},{"translation":[5.682535171508789,1.2675739526748656,0.9073579907417304],"rotation":[-4.329637285359677e-17,0.7071067811865475,0.7071067811865475,4.329637285359677e-17],"scale":[1.0,1.0,1.0],"name":"landing_wing_l"},{"translation":[-5.682808876037598,1.267691969871521,0.9069079756736749],"rotation":[-4.329637285359677e-17,0.7071067811865475,0.7071067811865475,4.329637285359677e-17],"scale":[1.0,1.0,1.0],"name":"landing_wing_r"},{"translation":[-4.40000009536743,1.850000023841858,-11.649999618530272],"rotation":[0.3535533243382024,0.6123724739481731,0.35355332433820249,-0.6123724739481729],"scale":[1.0,1.0,1.0],"name":"logo_r"},{"translation":[-3.5999999999999998,1.0,-5.0],"rotation":[-6.123031769111886e-17,3.061515884555943e-17,1.0,1.874575902277672e-33],"scale":[1.0,1.0,1.0],"name":"contrail2"},{"translation":[-1.119780049935182e-16,0.0,0.9144],"rotation":[-4.329637285359677e-17,0.7071067811865475,0.7071067811865475,4.329637285359677e-17],"scale":[1.0,1.0,1.0],"name":"node10"},{"translation":[14.46276,1.72212,0.21336000000000178],"rotation":[-4.329637285359677e-17,0.7071067811865475,0.7071067811865475,4.329637285359677e-17],"scale":[1.0,1.0,1.0],"name":"node11"},{"translation":[-14.46276,1.72212,0.21335999999999825],"rotation":[-4.329637285359677e-17,0.7071067811865475,0.7071067811865475,4.329637285359677e-17],"scale":[1.0,1.0,1.0],"name":"node12"},{"translation":[-14.53896,1.7373600000000003,0.060959999999998227],"rotation":[-4.329637285359677e-17,0.7071067811865475,0.7071067811865475,4.329637285359677e-17],"scale":[1.0,1.0,1.0],"name":"node13"},{"translation":[14.53896,1.7373600000000003,0.06096000000000179],"rotation":[-4.329637285359677e-17,0.7071067811865475,0.7071067811865475,4.329637285359677e-17],"scale":[1.0,1.0,1.0],"name":"node14"},{"translation":[1.7337927773163067e-15,0.3048,-14.15796],"rotation":[-4.329637285359677e-17,0.7071067811865475,0.7071067811865475,4.329637285359677e-17],"scale":[1.0,1.0,1.0],"name":"node15"},{"translation":[1.7337927773163067e-15,0.3048,-14.15796],"rotation":[-4.329637285359677e-17,0.7071067811865475,0.7071067811865475,4.329637285359677e-17],"scale":[1.0,1.0,1.0],"name":"node16"},{"translation":[-3.2846881464765338e-16,1.41732,2.68224],"rotation":[-4.329637285359677e-17,0.7071067811865475,0.7071067811865475,4.329637285359677e-17],"scale":[1.0,1.0,1.0],"name":"node17"},{"translation":[3.471318154799064e-16,-1.3716000000000002,-2.8346400000000004],"rotation":[-4.329637285359677e-17,0.7071067811865475,0.7071067811865475,4.329637285359677e-17],"scale":[1.0,1.0,1.0],"name":"node18"},{"translation":[-9.704760432771577e-16,-2.16408,7.9248],"rotation":[-4.329637285359677e-17,0.7071067811865475,0.7071067811865475,4.329637285359677e-17],"scale":[1.0,1.0,1.0],"name":"node19"},{"translation":[4.572,-2.3622,-1.9811999999999992],"rotation":[-4.329637285359677e-17,0.7071067811865475,0.7071067811865475,4.329637285359677e-17],"scale":[1.0,1.0,1.0],"name":"node20"},{"translation":[-4.572,-2.3622,-1.9812000000000008],"rotation":[-4.329637285359677e-17,0.7071067811865475,0.7071067811865475,4.329637285359677e-17],"scale":[1.0,1.0,1.0],"name":"node21"},{"translation":[7.290816000000001,-0.9144,-1.0149839999999993],"rotation":[-4.329637285359677e-17,0.7071067811865475,0.7071067811865475,4.329637285359677e-17],"scale":[1.0,1.0,1.0],"name":"node22"},{"translation":[-7.290816000000001,-0.9144,-1.014984000000001],"rotation":[-4.329637285359677e-17,0.7071067811865475,0.7071067811865475,4.329637285359677e-17],"scale":[1.0,1.0,1.0],"name":"node23"},{"translation":[8.461804577343524e-16,0.0,-6.909816000000001],"rotation":[-4.329637285359677e-17,0.7071067811865475,0.7071067811865475,4.329637285359677e-17],"scale":[1.0,1.0,1.0],"name":"node24"},{"translation":[-8.614841184167998e-16,-0.4572000000000001,7.034784],"rotation":[-4.329637285359677e-17,0.7071067811865475,0.7071067811865475,4.329637285359677e-17],"scale":[1.0,1.0,1.0],"name":"node25"},{"translation":[4.4196,0.0,5.412270241353378e-16],"rotation":[-4.329637285359677e-17,0.7071067811865475,0.7071067811865475,4.329637285359677e-17],"scale":[1.0,1.0,1.0],"name":"node26"},{"translation":[1.8288,0.0,2.239560099870364e-16],"rotation":[-4.329637285359677e-17,0.7071067811865475,0.7071067811865475,4.329637285359677e-17],"scale":[1.0,1.0,1.0],"name":"node27"},{"translation":[-4.4196,0.0,-5.412270241353378e-16],"rotation":[-4.329637285359677e-17,0.7071067811865475,0.7071067811865475,4.329637285359677e-17],"scale":[1.0,1.0,1.0],"name":"node28"},{"translation":[-1.8288,0.0,-2.239560099870364e-16],"rotation":[-4.329637285359677e-17,0.7071067811865475,0.7071067811865475,4.329637285359677e-17],"scale":[1.0,1.0,1.0],"name":"node29"},{"translation":[0.0,0.0,0.0],"rotation":[-4.329637285359677e-17,0.7071067811865475,0.7071067811865475,4.329637285359677e-17],"scale":[1.0,1.0,1.0],"name":"node30"},{"translation":[1.4630400000000004,0.1524,-2.5298400000000007],"rotation":[-4.329637285359677e-17,0.7071067811865475,0.7071067811865475,4.329637285359677e-17],"scale":[1.0,1.0,1.0],"name":"node31"},{"translation":[-1.46304,0.1524,-2.5298400000000007],"rotation":[-4.329637285359677e-17,0.7071067811865475,0.7071067811865475,4.329637285359677e-17],"scale":[1.0,1.0,1.0],"name":"node32"},{"translation":[0.0,0.0,0.0],"rotation":[-4.329637285359677e-17,0.7071067811865475,0.7071067811865475,4.329637285359677e-17],"scale":[1.0,1.0,1.0],"name":"node33","children":[32,35,38]},{"translation":[3.5695979595184328,-0.38077399134635928,0.7649880051612854],"rotation":[0.0,0.0,0.0,1.0],"scale":[1.0,1.0,1.0],"name":"node52","children":[33]},{"translation":[-0.0009769999887794257,4.001791954040527,0.11333199869841336],"rotation":[0.0,0.0,0.0,1.0],"scale":[1.0,1.0,1.0],"name":"node53","children":[34]},{"mesh":1,"name":"node33_anim_Engine_Blade"},{"translation":[-3.569291114807129,-0.38077300786972048,0.7649869918823241],"rotation":[0.0,0.0,0.0,1.0],"scale":[1.0,1.0,1.0],"name":"node86","children":[36]},{"translation":[0.0009769999887794257,4.001791954040527,0.11333199869841336],"rotation":[0.0,0.0,0.0,1.0],"scale":[1.0,1.0,1.0],"name":"node87","children":[37]},{"mesh":2,"name":"node35_anim_Engine_Blade"},{"translation":[0.0,-1.5113409757614136,0.04907099902629852],"rotation":[0.0,0.0,0.0,1.0],"scale":[1.0,1.0,1.0],"name":"node108","children":[39]},{"name":"node109","children":[40]},{"name":"node37_anim_c_gear","children":[41]},{"name":"node119","children":[42]},{"name":"node38_anim_c_gear","children":[43,44]},{"translation":[0.1799990067045714,-0.13991756209900786,0.47391617095924906],"rotation":[0.999780692396443,0.0,0.0,-0.02094199396640882],"scale":[1.0,1.0,1.0],"name":"taxi_gear"},{"translation":[0.1799990067045714,-0.13991756209900786,0.47391617095924906],"rotation":[0.999780692396443,0.0,0.0,-0.02094199396640882],"scale":[1.0,1.0,1.0],"name":"landing_gear"}],"scene":0,"scenes":[{"nodes":[0]}],"textures":[{"extensions":{"MSFT_texture_dds":{"source":0}}},{"extensions":{"MSFT_texture_dds":{"source":1}}},{"extensions":{"MSFT_texture_dds":{"source":2}}},{"extensions":{"MSFT_texture_dds":{"source":3}}}],"extensionsUsed":["ASOBO_material_day_night_switch","MSFT_texture_dds","ASOBO_asset_optimized"],"buffers":[{"byteLength":11360,"uri":"NAAI_Fokker-50-APU_MSFS_LOD1.bin"}],"images":[{"uri":"42_F50_P.PNG.DDS","extras":"ASOBO_image_converted_meta"},{"uri":"42_F50_T.PNG.DDS","extras":"ASOBO_image_converted_meta"},{"uri":"42_F50_C.PNG.DDS","extras":"ASOBO_image_converted_meta"},{"uri":"42_F50_L.PNG.DDS","extras":"ASOBO_image_converted_meta"}]}
