{"accessors":[{"bufferView":0,"componentType":5126,"count":2,"min":[0.0],"max":[100.0],"type":"SCALAR"},{"bufferView":1,"componentType":5126,"count":2,"type":"VEC3"},{"bufferView":0,"byteOffset":8,"componentType":5126,"count":51,"min":[0.0],"max":[100.0],"type":"SCALAR"},{"bufferView":2,"componentType":5126,"count":51,"type":"VEC4"},{"bufferView":0,"byteOffset":212,"componentType":5126,"count":2,"min":[0.0],"max":[100.0],"type":"SCALAR"},{"bufferView":1,"byteOffset":24,"componentType":5126,"count":2,"type":"VEC3"},{"bufferView":0,"byteOffset":220,"componentType":5126,"count":51,"min":[0.0],"max":[100.0],"type":"SCALAR"},{"bufferView":2,"byteOffset":816,"componentType":5126,"count":51,"type":"VEC4"},{"bufferView":3,"componentType":5126,"count":130,"min":[-14.202369689941407,-0.7443299889564514,-18.124120712280275],"max":[14.202369689941407,6.919099807739258,20.225059509277345],"type":"VEC3","name":"part000_vertices#0_POSITION"},{"bufferView":3,"byteOffset":12,"componentType":5120,"count":130,"type":"VEC4","name":"part000_vertices#0_TANGENT"},{"bufferView":3,"byteOffset":16,"componentType":5120,"count":130,"type":"VEC4","name":"part000_vertices#0_NORMAL"},{"bufferView":3,"byteOffset":20,"componentType":5122,"count":130,"type":"VEC2","name":"part000_vertices#0_TEXCOORD_0"},{"bufferView":3,"byteOffset":24,"componentType":5122,"count":130,"type":"VEC2","name":"part000_vertices#0_TEXCOORD_1"},{"bufferView":3,"byteOffset":28,"componentType":5123,"count":130,"type":"VEC4","name":"part000_vertices#0_COLOR_0"},{"bufferView":4,"componentType":5123,"count":246,"type":"SCALAR","name":"part000_indices#0"},{"bufferView":3,"byteOffset":4680,"componentType":5126,"count":18,"min":[-3.112260103225708,-0.18548999726772309,0.03846000134944916],"max":[4.616710186004639,0.2594900131225586,1.2833199501037598],"type":"VEC3","name":"part001_vertices#0_POSITION"},{"bufferView":3,"byteOffset":4692,"componentType":5120,"count":18,"type":"VEC4","name":"part001_vertices#0_TANGENT"},{"bufferView":3,"byteOffset":4696,"componentType":5120,"count":18,"type":"VEC4","name":"part001_vertices#0_NORMAL"},{"bufferView":3,"byteOffset":4700,"componentType":5122,"count":18,"type":"VEC2","name":"part001_vertices#0_TEXCOORD_0"},{"bufferView":3,"byteOffset":4704,"componentType":5122,"count":18,"type":"VEC2","name":"part001_vertices#0_TEXCOORD_1"},{"bufferView":3,"byteOffset":4708,"componentType":5123,"count":18,"type":"VEC4","name":"part001_vertices#0_COLOR_0"},{"bufferView":4,"byteOffset":492,"componentType":5123,"count":24,"type":"SCALAR","name":"part001_indices#0"},{"bufferView":3,"byteOffset":5328,"componentType":5126,"count":18,"min":[-4.6178297996521,-0.16972999274730683,0.03821000084280968],"max":[3.1125400066375734,0.25328999757766726,1.288849949836731],"type":"VEC3","name":"part002_vertices#0_POSITION"},{"bufferView":3,"byteOffset":5340,"componentType":5120,"count":18,"type":"VEC4","name":"part002_vertices#0_TANGENT"},{"bufferView":3,"byteOffset":5344,"componentType":5120,"count":18,"type":"VEC4","name":"part002_vertices#0_NORMAL"},{"bufferView":3,"byteOffset":5348,"componentType":5122,"count":18,"type":"VEC2","name":"part002_vertices#0_TEXCOORD_0"},{"bufferView":3,"byteOffset":5352,"componentType":5122,"count":18,"type":"VEC2","name":"part002_vertices#0_TEXCOORD_1"},{"bufferView":3,"byteOffset":5356,"componentType":5123,"count":18,"type":"VEC4","name":"part002_vertices#0_COLOR_0"},{"bufferView":4,"byteOffset":540,"componentType":5123,"count":24,"type":"SCALAR","name":"part002_indices#0"}],"animations":[{"name":"custom_anim_FLAPS_AIRLINER","channels":[{"sampler":0,"target":{"node":45,"path":"translation"}},{"sampler":1,"target":{"node":47,"path":"rotation"}},{"sampler":2,"target":{"node":49,"path":"translation"}},{"sampler":3,"target":{"node":51,"path":"rotation"}}],"samplers":[{"input":0,"output":1,"interpolation":"LINEAR"},{"input":2,"output":3,"interpolation":"LINEAR"},{"input":4,"output":5,"interpolation":"LINEAR"},{"input":6,"output":7,"interpolation":"LINEAR"}]}],"asset":{"generator":"ModelConverterX","version":"2.0","extensions":{"ASOBO_asset_optimized":{"BoundingBoxMax":[14.202369689941407,6.919099807739258,20.225059509277345],"BoundingBoxMin":[-14.202369689941407,-0.7443299889564514,-18.124120712280275],"MajorVersion":4,"MinorVersion":3,"UseCheckerboardMaterialForMissingTextures":true}}},"bufferViews":[{"buffer":0,"byteLength":424,"byteStride":4},{"buffer":0,"byteLength":48,"byteStride":12,"byteOffset":424},{"buffer":0,"byteLength":1632,"byteStride":16,"byteOffset":472},{"buffer":0,"byteLength":5976,"byteStride":36,"byteOffset":2104,"target":34962,"name":"BufferViewVertexND"},{"buffer":0,"byteLength":588,"byteOffset":8080,"target":34963,"name":"BufferViewIndex"}],"extensionsRequired":["MSFT_texture_dds"],"materials":[{"name":"material00","occlusionTexture":{"index":1},"emissiveTexture":{"index":2},"emissiveFactor":[1.0,1.0,1.0],"pbrMetallicRoughness":{"baseColorTexture":{"index":0},"metallicRoughnessTexture":{"index":1}},"extensions":{"ASOBO_material_day_night_switch":{}}}],"meshes":[{"primitives":[{"attributes":{"COLOR_0":13,"NORMAL":10,"POSITION":8,"TANGENT":9,"TEXCOORD_0":11,"TEXCOORD_1":12},"indices":14,"material":0,"mode":4,"extras":{"ASOBO_primitive":{"PrimitiveCount":82,"VertexType":"VTX","VertexVersion":2}}}],"name":"part000"},{"primitives":[{"attributes":{"COLOR_0":20,"NORMAL":17,"POSITION":15,"TANGENT":16,"TEXCOORD_0":18,"TEXCOORD_1":19},"indices":21,"material":0,"mode":4,"extras":{"ASOBO_primitive":{"PrimitiveCount":8,"VertexType":"VTX","VertexVersion":2}}}],"name":"part001"},{"primitives":[{"attributes":{"COLOR_0":27,"NORMAL":24,"POSITION":22,"TANGENT":23,"TEXCOORD_0":25,"TEXCOORD_1":26},"indices":28,"material":0,"mode":4,"extras":{"ASOBO_primitive":{"PrimitiveCount":8,"VertexType":"VTX","VertexVersion":2}}}],"name":"part002"}],"nodes":[{"name":"node0","children":[1,2,3,4,5,6,7,8,9,10,11,12,13,14,15,16,17,18,19,20,21,22,23,24,25,26,27,28,29,30,31,32,33,34,35,36,37,38,39,40,41,42,43]},{"mesh":0,"name":"node1"},{"translation":[13.71,0.2,-2.5399999999999984],"rotation":[-0.04585622725685058,-0.7056183149704719,-0.7056183149704719,0.04585622725685059],"scale":[1.0,1.0,1.0],"name":"landing_wing_l1"},{"translation":[1.519999980926512,0.119999997317791,12.5],"rotation":[0.5213338584858462,0.4777143581642273,0.5213338584858462,-0.4777143581642273],"scale":[1.0,1.0,1.0],"name":"landing_l"},{"translation":[-1.5199999809265153,0.119999997317791,12.5],"rotation":[0.5213338584858462,-0.4777143581642273,-0.5213338584858462,-0.47771435816422738],"scale":[1.0,1.0,1.0],"name":"landing_r"},{"translation":[-13.710000038146973,0.20000000298023225,-2.539999961853029],"rotation":[-0.04587758488715242,0.7056169266712088,0.7056169266712088,0.04587758488715242],"scale":[1.0,1.0,1.0],"name":"landing_wing_r1"},{"translation":[14.109999656677246,0.20000000298023225,-3.140000104904173],"rotation":[0.49600967221009009,-0.25820643557851427,-0.3828072343598427,-0.7353655302104158],"scale":[1.0,1.0,1.0],"name":"logo_l"},{"translation":[-14.109999656677246,0.20000000298023225,-3.1400001049041768],"rotation":[0.49600967221009009,0.25820643557851438,0.3828072343598429,-0.7353655302104157],"scale":[1.0,1.0,1.0],"name":"logo_r"},{"translation":[2.9300000000000017,1.1,-9.9],"rotation":[-6.123031769111886e-17,3.061515884555943e-17,1.0,1.874575902277672e-33],"scale":[1.0,1.0,1.0],"name":"contrail1"},{"translation":[-2.929999999999999,1.1,-9.9],"rotation":[-6.123031769111886e-17,3.061515884555943e-17,1.0,1.874575902277672e-33],"scale":[1.0,1.0,1.0],"name":"contrail2"},{"translation":[-3.7326001664506055e-16,0.0,3.048],"rotation":[-4.329637285359677e-17,0.7071067811865476,0.7071067811865475,4.329637285359677e-17],"scale":[1.0,1.0,1.0],"name":"node12"},{"translation":[1.7373599999999983,1.2192,15.6972],"rotation":[-4.329637285359677e-17,0.7071067811865476,0.7071067811865475,4.329637285359677e-17],"scale":[1.0,1.0,1.0],"name":"node13"},{"translation":[-1.3716000000000013,-0.9144,9.7536],"rotation":[-4.329637285359677e-17,0.7071067811865476,0.7071067811865475,4.329637285359677e-17],"scale":[1.0,1.0,1.0],"name":"node14"},{"translation":[13.819632000000003,0.31699200000000007,-1.6855439999999984],"rotation":[-4.329637285359677e-17,0.7071067811865476,0.7071067811865475,4.329637285359677e-17],"scale":[1.0,1.0,1.0],"name":"node15"},{"translation":[-13.819632000000003,0.31699200000000007,-1.685544000000002],"rotation":[-4.329637285359677e-17,0.7071067811865476,0.7071067811865475,4.329637285359677e-17],"scale":[1.0,1.0,1.0],"name":"node16"},{"translation":[13.981176,0.31699200000000007,-1.8501359999999985],"rotation":[-4.329637285359677e-17,0.7071067811865476,0.7071067811865475,4.329637285359677e-17],"scale":[1.0,1.0,1.0],"name":"node17"},{"translation":[-13.981176,0.31699200000000007,-1.850136000000002],"rotation":[-4.329637285359677e-17,0.7071067811865476,0.7071067811865475,4.329637285359677e-17],"scale":[1.0,1.0,1.0],"name":"node18"},{"translation":[-8.398350374513864e-17,-0.862584,0.6858000000000001],"rotation":[-4.329637285359677e-17,0.7071067811865476,0.7071067811865475,4.329637285359677e-17],"scale":[1.0,1.0,1.0],"name":"node19"},{"translation":[-2.7658567233398998e-16,2.883408,2.2585680000000005],"rotation":[-4.329637285359677e-17,0.7071067811865476,0.7071067811865475,4.329637285359677e-17],"scale":[1.0,1.0,1.0],"name":"node20"},{"translation":[-14.194536,0.225552,-3.1546800000000019],"rotation":[-4.329637285359677e-17,0.7071067811865476,0.7071067811865475,4.329637285359677e-17],"scale":[1.0,1.0,1.0],"name":"node21"},{"translation":[14.194536,0.225552,-3.1546799999999988],"rotation":[-4.329637285359677e-17,0.7071067811865476,0.7071067811865475,4.329637285359677e-17],"scale":[1.0,1.0,1.0],"name":"node22"},{"translation":[-2.1649080965413514e-15,-1.79832,17.6784],"rotation":[-4.329637285359677e-17,0.7071067811865476,0.7071067811865475,4.329637285359677e-17],"scale":[1.0,1.0,1.0],"name":"node23"},{"translation":[3.048,-2.16408,-0.15239999999999966],"rotation":[-4.329637285359677e-17,0.7071067811865476,0.7071067811865475,4.329637285359677e-17],"scale":[1.0,1.0,1.0],"name":"node24"},{"translation":[-3.048,-2.16408,-0.15240000000000038],"rotation":[-4.329637285359677e-17,0.7071067811865476,0.7071067811865475,4.329637285359677e-17],"scale":[1.0,1.0,1.0],"name":"node25"},{"translation":[16.254984,0.1524,-3.7094159999999984],"rotation":[-4.329637285359677e-17,0.7071067811865476,0.7071067811865475,4.329637285359677e-17],"scale":[1.0,1.0,1.0],"name":"node26"},{"translation":[-16.254984,0.1524,-3.7094160000000016],"rotation":[-4.329637285359677e-17,0.7071067811865476,0.7071067811865475,4.329637285359677e-17],"scale":[1.0,1.0,1.0],"name":"node27"},{"translation":[1.4794235411730309e-15,-0.1524,-12.08080896],"rotation":[-4.329637285359677e-17,0.7071067811865476,0.7071067811865475,4.329637285359677e-17],"scale":[1.0,1.0,1.0],"name":"node28"},{"translation":[-2.679021513067592e-15,0.31656528,21.87659328],"rotation":[-4.329637285359677e-17,0.7071067811865476,0.7071067811865475,4.329637285359677e-17],"scale":[1.0,1.0,1.0],"name":"node29"},{"translation":[-4.105860183095667e-16,0.0,3.3528],"rotation":[-4.329637285359677e-17,0.7071067811865476,0.7071067811865475,4.329637285359677e-17],"scale":[1.0,1.0,1.0],"name":"node30"},{"translation":[5.7912,0.0,1.2192000000000008],"rotation":[-4.329637285359677e-17,0.7071067811865476,0.7071067811865475,4.329637285359677e-17],"scale":[1.0,1.0,1.0],"name":"node31"},{"translation":[-5.7912,0.0,1.2191999999999995],"rotation":[-4.329637285359677e-17,0.7071067811865476,0.7071067811865475,4.329637285359677e-17],"scale":[1.0,1.0,1.0],"name":"node32"},{"translation":[0.0,0.0,0.0],"rotation":[-4.329637285359677e-17,0.7071067811865476,0.7071067811865475,4.329637285359677e-17],"scale":[1.0,1.0,1.0],"name":"node33"},{"translation":[0.4571999999999985,0.0,12.4968],"rotation":[-4.329637285359677e-17,0.7071067811865476,0.7071067811865475,4.329637285359677e-17],"scale":[1.0,1.0,1.0],"name":"node34"},{"translation":[-0.4572000000000016,0.0,12.4968],"rotation":[-4.329637285359677e-17,0.7071067811865476,0.7071067811865475,4.329637285359677e-17],"scale":[1.0,1.0,1.0],"name":"node35"},{"translation":[0.0,0.0,0.0],"rotation":[-4.329637285359677e-17,0.7071067811865476,0.7071067811865475,4.329637285359677e-17],"scale":[1.0,1.0,1.0],"name":"node36"},{"translation":[-9.518130424449046e-16,0.0,7.7724],"rotation":[-4.329637285359677e-17,0.7071067811865476,0.7071067811865475,4.329637285359677e-17],"scale":[1.0,1.0,1.0],"name":"node37"},{"translation":[-4.105860183095667e-16,0.0,3.3528],"rotation":[-4.329637285359677e-17,0.7071067811865476,0.7071067811865475,4.329637285359677e-17],"scale":[1.0,1.0,1.0],"name":"node38"},{"translation":[3.7326001664506055e-16,0.0,-3.048],"rotation":[-4.329637285359677e-17,0.7071067811865476,0.7071067811865475,4.329637285359677e-17],"scale":[1.0,1.0,1.0],"name":"node39"},{"translation":[1.138443050767435e-15,0.0,-9.2964],"rotation":[-4.329637285359677e-17,0.7071067811865476,0.7071067811865475,4.329637285359677e-17],"scale":[1.0,1.0,1.0],"name":"node40"},{"translation":[-7.651830341223742e-16,0.0,6.2484],"rotation":[-4.329637285359677e-17,0.7071067811865476,0.7071067811865475,4.329637285359677e-17],"scale":[1.0,1.0,1.0],"name":"node41"},{"translation":[1.0264650457739166e-15,0.0,-8.382],"rotation":[-4.329637285359677e-17,0.7071067811865476,0.7071067811865475,4.329637285359677e-17],"scale":[1.0,1.0,1.0],"name":"node42"},{"translation":[2.7858720000000014,1.024128,-6.096],"rotation":[-4.329637285359677e-17,0.7071067811865476,0.7071067811865475,4.329637285359677e-17],"scale":[1.0,1.0,1.0],"name":"node43"},{"translation":[-2.7858719999999996,1.024128,-6.096],"rotation":[-4.329637285359677e-17,0.7071067811865476,0.7071067811865475,4.329637285359677e-17],"scale":[1.0,1.0,1.0],"name":"node44"},{"translation":[0.0,0.0,0.0],"rotation":[-4.329637285359677e-17,0.7071067811865476,0.7071067811865475,4.329637285359677e-17],"scale":[1.0,1.0,1.0],"name":"node45","children":[44,48]},{"name":"node54","children":[45]},{"name":"node44_anim_custom_anim_FLAPS_AIRLINER","children":[46]},{"name":"node55","children":[47]},{"mesh":1,"name":"node45_anim_custom_anim_FLAPS_AIRLINER"},{"name":"node57","children":[49]},{"name":"node46_anim_custom_anim_FLAPS_AIRLINER","children":[50]},{"name":"node58","children":[51]},{"mesh":2,"name":"node47_anim_custom_anim_FLAPS_AIRLINER"}],"scene":0,"scenes":[{"nodes":[0]}],"textures":[{"extensions":{"MSFT_texture_dds":{"source":0}}},{"extensions":{"MSFT_texture_dds":{"source":1}}},{"extensions":{"MSFT_texture_dds":{"source":2}}}],"extensionsUsed":["ASOBO_material_day_night_switch","MSFT_texture_dds","ASOBO_asset_optimized"],"buffers":[{"byteLength":8668,"uri":"AIA_Boeing_717_MSFS_LOD1.bin"}],"images":[{"uri":"AIA_B717_T.PNG.DDS","extras":"ASOBO_image_converted_meta"},{"uri":"AIA_B717_C.PNG.DDS","extras":"ASOBO_image_converted_meta"},{"uri":"AIA_B717_L.PNG.DDS","extras":"ASOBO_image_converted_meta"}]}
